{"glyphs":{"0":{"ha":793,"x_min":60,"x_max":706,"o":"m 60 458 q 88 673 60 583 q 164 820 117 763 q 268 906 211 878 q 383 933 326 933 q 499 906 442 933 q 603 820 556 878 q 677 673 649 763 q 706 458 706 583 q 677 246 706 335 q 603 99 649 157 q 499 12 556 40 q 383 -17 442 -17 q 268 12 326 -17 q 164 99 211 40 q 88 246 117 157 q 60 458 60 335 m 107 458 q 147 219 107 315 q 249 75 186 123 q 383 28 313 28 q 518 75 455 28 q 620 219 581 123 q 659 458 659 315 q 620 699 659 603 q 518 842 581 794 q 383 889 455 889 q 249 842 313 889 q 147 699 186 794 q 107 458 107 603 z "},"1":{"ha":399,"x_min":47,"x_max":261,"o":"m 217 867 l 47 765 l 47 813 l 219 917 l 261 917 l 261 0 l 217 0 l 217 867 z "},"2":{"ha":726,"x_min":50,"x_max":615,"o":"m 360 889 q 243 865 293 889 q 161 808 194 840 q 111 749 128 775 q 93 720 94 723 l 50 737 q 63 761 51 740 q 99 811 75 782 q 159 868 123 840 q 246 915 196 896 q 360 933 296 933 q 463 918 417 933 q 544 872 510 903 q 596 790 578 840 q 615 669 615 740 q 584 546 615 611 q 503 414 553 481 q 397 287 454 348 q 285 175 340 226 q 191 90 231 124 q 137 44 151 56 l 607 44 l 607 0 l 59 0 l 59 41 q 139 107 90 66 q 245 201 188 148 q 359 313 303 253 q 464 434 416 372 q 540 556 511 496 q 568 668 568 615 q 514 840 568 791 q 360 889 460 889 z "},"3":{"ha":694,"x_min":47,"x_max":609,"o":"m 79 802 q 96 829 81 808 q 140 874 110 850 q 215 916 169 898 q 326 933 261 933 q 472 901 415 933 q 557 815 529 868 q 585 698 585 761 q 561 592 585 639 q 498 516 537 545 q 415 482 459 488 q 504 452 459 479 q 579 376 549 425 q 609 257 609 327 q 574 118 609 181 q 474 20 538 56 q 324 -17 410 -17 q 188 10 244 -17 q 95 74 131 36 q 47 148 60 113 l 87 172 q 128 108 99 141 q 207 51 158 74 q 322 28 256 28 q 453 59 399 28 q 534 142 506 90 q 561 257 561 194 q 527 372 561 328 q 439 438 493 417 q 322 459 384 459 l 304 459 l 304 502 l 328 502 q 431 525 383 502 q 510 591 480 548 q 540 696 540 635 q 487 833 540 776 q 324 889 434 889 q 228 873 267 889 q 166 837 189 858 q 134 800 144 816 q 124 782 124 783 l 79 802 z "},"4":{"ha":646,"x_min":37,"x_max":578,"o":"m 474 917 l 474 238 l 578 238 l 578 193 l 474 193 l 474 0 l 429 0 l 429 193 l 37 193 l 37 235 l 438 917 l 474 917 m 429 238 l 429 810 l 429 810 l 92 238 l 429 238 z "},"5":{"ha":720,"x_min":76,"x_max":628,"o":"m 118 156 q 134 128 121 149 q 173 85 147 108 q 239 45 199 62 q 337 28 279 28 q 518 102 452 28 q 583 300 585 176 q 523 474 582 414 q 370 535 465 535 q 267 513 311 535 q 196 460 224 492 q 157 400 168 429 l 110 413 l 185 917 l 592 917 l 592 872 l 228 872 l 172 491 q 198 520 175 499 q 264 560 220 541 q 374 579 308 579 q 502 548 445 579 q 593 454 559 516 q 628 300 627 392 q 596 138 628 209 q 499 25 564 66 q 337 -17 434 -17 q 220 2 268 -17 q 141 48 172 22 q 95 97 110 74 q 76 128 80 120 l 118 156 z "},"6":{"ha":750,"x_min":58,"x_max":665,"o":"m 370 585 q 519 546 453 585 q 626 438 586 506 q 665 283 665 369 q 624 130 665 197 q 512 23 582 62 q 359 -17 442 -17 q 205 24 273 -17 q 97 135 137 64 q 58 297 58 206 q 91 453 58 388 q 171 578 124 518 l 439 917 l 496 917 l 178 520 q 249 565 199 544 q 370 585 300 585 m 363 26 q 493 61 435 26 q 586 155 551 97 q 621 285 621 214 q 586 415 621 357 q 493 508 551 474 q 363 543 435 543 q 233 508 292 543 q 139 415 174 474 q 104 285 104 357 q 139 155 104 214 q 233 61 174 97 q 363 26 292 26 z "},"7":{"ha":692,"x_min":74,"x_max":624,"o":"m 89 917 l 624 917 l 624 876 l 126 0 l 74 0 l 571 872 l 89 872 l 89 917 z "},"8":{"ha":747,"x_min":85,"x_max":633,"o":"m 360 -17 q 215 19 276 -17 q 119 116 153 56 q 85 248 85 176 q 110 369 85 319 q 177 449 135 418 q 265 494 218 480 q 200 533 232 507 q 146 602 167 560 q 124 704 124 644 q 155 823 124 771 q 239 904 186 874 q 359 933 292 933 q 478 904 426 933 q 562 823 531 874 q 592 704 592 771 q 549 565 592 615 q 452 494 506 515 q 541 449 499 480 q 608 369 582 418 q 633 248 633 319 q 600 116 633 176 q 505 19 566 56 q 360 -17 443 -17 m 359 28 q 473 57 422 28 q 555 136 524 86 q 585 249 585 186 q 555 362 585 312 q 473 441 524 412 q 359 470 422 470 q 244 441 296 470 q 162 362 192 412 q 132 249 132 312 q 162 136 132 186 q 244 57 192 86 q 359 28 296 28 m 359 515 q 453 540 410 515 q 520 608 495 565 q 546 702 546 651 q 520 796 546 753 q 453 864 495 838 q 359 889 410 889 q 265 864 308 889 q 196 796 222 838 q 171 702 171 753 q 196 608 171 651 q 265 540 222 565 q 359 515 308 515 z "},"9":{"ha":749,"x_min":72,"x_max":679,"o":"m 241 0 l 559 397 q 488 352 538 373 q 367 331 437 331 q 218 371 285 331 q 111 479 151 410 q 72 633 72 547 q 114 787 72 719 q 225 894 156 855 q 378 933 294 933 q 532 893 464 933 q 640 782 600 853 q 679 620 679 711 q 646 464 679 529 q 566 339 613 399 l 298 0 l 241 0 m 374 374 q 504 408 445 374 q 598 502 563 443 q 633 631 633 560 q 598 761 633 703 q 504 855 563 820 q 374 890 445 890 q 244 855 303 890 q 151 761 185 820 q 116 631 116 703 q 151 502 116 560 q 244 408 185 443 q 374 374 303 374 z "},"A":{"ha":754,"x_min":32,"x_max":726,"o":"m 353 917 l 407 917 l 726 0 l 680 0 l 590 251 l 170 251 l 79 0 l 32 0 l 353 917 m 182 296 l 579 296 l 381 859 l 379 859 l 182 296 z "},"Á":{"ha":754,"x_min":32,"x_max":726,"o":"m 353 917 l 407 917 l 726 0 l 680 0 l 590 251 l 170 251 l 79 0 l 32 0 l 353 917 m 182 296 l 579 296 l 381 859 l 379 859 l 182 296 m 328 956 l 301 990 l 501 1147 l 542 1094 l 328 956 z "},"Ă":{"ha":754,"x_min":32,"x_max":726,"o":"m 353 917 l 407 917 l 726 0 l 680 0 l 590 251 l 170 251 l 79 0 l 32 0 l 353 917 m 182 296 l 579 296 l 381 859 l 379 859 l 182 296 m 380 972 q 295 993 330 972 q 241 1042 260 1013 q 219 1097 222 1071 l 276 1111 q 293 1072 281 1092 q 327 1036 306 1051 q 380 1022 349 1022 q 432 1036 410 1022 q 466 1072 453 1051 q 482 1111 478 1092 l 541 1097 q 519 1043 538 1072 q 465 993 500 1014 q 380 972 430 972 z "},"Ắ":{"ha":754,"x_min":32,"x_max":726,"o":"m 353 917 l 407 917 l 726 0 l 680 0 l 590 251 l 170 251 l 79 0 l 32 0 l 353 917 m 182 296 l 579 296 l 381 859 l 379 859 l 182 296 m 380 1031 q 295 1051 331 1031 q 241 1100 260 1072 q 219 1155 222 1129 l 276 1169 q 293 1130 281 1151 q 327 1095 306 1109 q 380 1081 349 1081 q 432 1095 410 1081 q 466 1130 453 1109 q 482 1169 478 1151 l 541 1155 q 519 1101 538 1131 q 465 1051 500 1072 q 380 1031 430 1031 m 328 1208 l 301 1242 l 501 1399 l 542 1347 l 328 1208 z "},"Ặ":{"ha":754,"x_min":32,"x_max":726,"o":"m 353 917 l 407 917 l 726 0 l 680 0 l 590 251 l 170 251 l 79 0 l 32 0 l 353 917 m 182 296 l 579 296 l 381 859 l 379 859 l 182 296 m 379 -169 q 343 -153 358 -169 q 328 -118 328 -137 q 343 -82 328 -98 q 379 -67 358 -67 q 415 -82 399 -67 q 431 -118 431 -97 q 415 -154 431 -139 q 379 -169 399 -169 m 380 972 q 295 993 330 972 q 241 1042 260 1013 q 219 1097 222 1071 l 276 1111 q 293 1072 281 1092 q 327 1036 306 1051 q 380 1022 349 1022 q 432 1036 410 1022 q 466 1072 453 1051 q 482 1111 478 1092 l 541 1097 q 519 1043 538 1072 q 465 993 500 1014 q 380 972 430 972 z "},"Ằ":{"ha":754,"x_min":32,"x_max":726,"o":"m 353 917 l 407 917 l 726 0 l 680 0 l 590 251 l 170 251 l 79 0 l 32 0 l 353 917 m 182 296 l 579 296 l 381 859 l 379 859 l 182 296 m 433 1222 l 219 1360 l 260 1413 l 460 1256 l 433 1222 m 380 1031 q 295 1051 331 1031 q 241 1100 260 1072 q 219 1155 222 1129 l 276 1169 q 293 1130 281 1151 q 327 1095 306 1109 q 380 1081 349 1081 q 432 1095 410 1081 q 466 1130 453 1109 q 482 1169 478 1151 l 541 1155 q 519 1101 538 1131 q 465 1051 500 1072 q 380 1031 430 1031 z "},"Ẳ":{"ha":754,"x_min":32,"x_max":726,"o":"m 353 917 l 407 917 l 726 0 l 680 0 l 590 251 l 170 251 l 79 0 l 32 0 l 353 917 m 182 296 l 579 296 l 381 859 l 379 859 l 182 296 m 369 1174 l 343 1210 q 393 1231 363 1215 q 447 1274 423 1247 q 471 1342 471 1302 q 454 1401 471 1383 q 413 1423 437 1419 q 367 1428 389 1428 q 300 1416 338 1428 q 242 1394 263 1404 l 242 1438 q 290 1459 254 1447 q 381 1472 325 1472 q 447 1461 416 1472 q 498 1423 478 1450 q 517 1348 517 1397 q 503 1281 517 1310 q 466 1232 489 1253 q 418 1198 443 1212 q 369 1174 392 1184 m 380 1031 q 295 1051 331 1031 q 241 1100 260 1072 q 219 1155 222 1129 l 276 1169 q 293 1130 281 1151 q 327 1095 306 1109 q 380 1081 349 1081 q 432 1095 410 1081 q 466 1130 453 1109 q 482 1169 478 1151 l 541 1155 q 519 1101 538 1131 q 465 1051 500 1072 q 380 1031 430 1031 z "},"Ẵ":{"ha":754,"x_min":32,"x_max":726,"o":"m 353 917 l 407 917 l 726 0 l 680 0 l 590 251 l 170 251 l 79 0 l 32 0 l 353 917 m 182 296 l 579 296 l 381 859 l 379 859 l 182 296 m 183 1256 q 205 1304 190 1279 q 244 1346 221 1328 q 299 1363 268 1363 q 366 1350 340 1363 q 414 1323 392 1336 q 469 1309 437 1309 q 510 1324 497 1309 q 533 1363 524 1340 l 599 1363 q 576 1318 593 1344 q 535 1274 560 1293 q 480 1256 510 1256 q 411 1269 438 1256 q 364 1296 385 1283 q 317 1309 342 1309 q 273 1291 291 1309 q 249 1256 256 1273 l 183 1256 m 380 1031 q 295 1051 331 1031 q 241 1100 260 1072 q 219 1155 222 1129 l 276 1169 q 293 1130 281 1151 q 327 1095 306 1109 q 380 1081 349 1081 q 432 1095 410 1081 q 466 1130 453 1109 q 482 1169 478 1151 l 541 1155 q 519 1101 538 1131 q 465 1051 500 1072 q 380 1031 430 1031 z "},"Â":{"ha":754,"x_min":32,"x_max":726,"o":"m 353 917 l 407 917 l 726 0 l 680 0 l 590 251 l 170 251 l 79 0 l 32 0 l 353 917 m 182 296 l 579 296 l 381 859 l 379 859 l 182 296 m 237 978 l 203 1024 l 379 1153 l 556 1023 l 523 977 l 379 1083 l 237 978 z "},"Ấ":{"ha":754,"x_min":32,"x_max":726,"o":"m 353 917 l 407 917 l 726 0 l 680 0 l 590 251 l 170 251 l 79 0 l 32 0 l 353 917 m 182 296 l 579 296 l 381 859 l 379 859 l 182 296 m 524 991 l 380 1097 l 238 992 l 203 1038 l 380 1167 l 557 1037 l 524 991 m 508 1157 l 481 1191 l 680 1348 l 722 1296 l 508 1157 z "},"Ậ":{"ha":754,"x_min":32,"x_max":726,"o":"m 353 917 l 407 917 l 726 0 l 680 0 l 590 251 l 170 251 l 79 0 l 32 0 l 353 917 m 182 296 l 579 296 l 381 859 l 379 859 l 182 296 m 379 -169 q 343 -153 358 -169 q 328 -118 328 -137 q 343 -82 328 -98 q 379 -67 358 -67 q 415 -82 399 -67 q 431 -118 431 -97 q 415 -154 431 -139 q 379 -169 399 -169 m 237 978 l 203 1024 l 379 1153 l 556 1023 l 523 977 l 379 1083 l 237 978 z "},"Ầ":{"ha":754,"x_min":32,"x_max":726,"o":"m 353 917 l 407 917 l 726 0 l 680 0 l 590 251 l 170 251 l 79 0 l 32 0 l 353 917 m 182 296 l 579 296 l 381 859 l 379 859 l 182 296 m 527 991 l 383 1097 l 241 992 l 207 1038 l 383 1167 l 560 1037 l 527 991 m 620 1133 l 406 1272 l 447 1324 l 647 1167 l 620 1133 z "},"Ẩ":{"ha":754,"x_min":32,"x_max":726,"o":"m 353 917 l 407 917 l 726 0 l 680 0 l 590 251 l 170 251 l 79 0 l 32 0 l 353 917 m 182 296 l 579 296 l 381 859 l 379 859 l 182 296 m 506 1132 l 479 1168 q 529 1189 499 1173 q 583 1232 559 1204 q 607 1300 607 1260 q 590 1359 607 1341 q 549 1381 573 1376 q 503 1385 525 1385 q 436 1374 474 1385 q 378 1351 399 1362 l 378 1396 q 426 1417 390 1404 q 517 1429 461 1429 q 583 1418 552 1429 q 634 1381 615 1408 q 653 1306 653 1354 q 639 1239 653 1267 q 602 1190 625 1210 q 554 1156 579 1169 q 506 1132 528 1142 m 524 991 l 381 1097 l 238 992 l 204 1038 l 381 1167 l 558 1037 l 524 991 z "},"Ẫ":{"ha":754,"x_min":32,"x_max":726,"o":"m 353 917 l 407 917 l 726 0 l 680 0 l 590 251 l 170 251 l 79 0 l 32 0 l 353 917 m 182 296 l 579 296 l 381 859 l 379 859 l 182 296 m 173 1201 q 195 1249 180 1224 q 235 1291 211 1274 q 289 1308 258 1308 q 356 1295 331 1308 q 405 1268 382 1281 q 459 1254 427 1254 q 503 1273 488 1254 q 523 1308 519 1291 l 590 1308 q 566 1260 582 1285 q 525 1218 549 1235 q 470 1201 501 1201 q 402 1214 428 1201 q 354 1241 375 1228 q 308 1254 333 1254 q 264 1236 281 1254 q 240 1201 246 1218 l 173 1201 m 521 991 l 377 1097 l 235 992 l 201 1038 l 377 1167 l 554 1037 l 521 991 z "},"Ȁ":{"ha":754,"x_min":32,"x_max":726,"o":"m 353 917 l 407 917 l 726 0 l 680 0 l 590 251 l 170 251 l 79 0 l 32 0 l 353 917 m 182 296 l 579 296 l 381 859 l 379 859 l 182 296 m 511 952 l 297 1091 l 338 1143 l 538 986 l 511 952 m 282 952 l 68 1091 l 109 1143 l 309 986 l 282 952 z "},"Ä":{"ha":754,"x_min":32,"x_max":726,"o":"m 353 917 l 407 917 l 726 0 l 680 0 l 590 251 l 170 251 l 79 0 l 32 0 l 353 917 m 182 296 l 579 296 l 381 859 l 379 859 l 182 296 m 511 985 q 475 1001 490 985 q 460 1036 460 1017 q 475 1072 460 1056 q 511 1088 490 1088 q 547 1072 531 1088 q 563 1036 563 1057 q 547 1000 563 1015 q 511 985 531 985 m 248 985 q 212 1001 227 985 q 197 1036 197 1017 q 212 1072 197 1056 q 248 1088 227 1088 q 284 1072 268 1088 q 299 1036 299 1057 q 284 1000 299 1015 q 248 985 268 985 z "},"Ạ":{"ha":754,"x_min":32,"x_max":726,"o":"m 353 917 l 407 917 l 726 0 l 680 0 l 590 251 l 170 251 l 79 0 l 32 0 l 353 917 m 182 296 l 579 296 l 381 859 l 379 859 l 182 296 m 379 -169 q 343 -153 358 -169 q 328 -118 328 -137 q 343 -82 328 -98 q 379 -67 358 -67 q 415 -82 399 -67 q 431 -118 431 -97 q 415 -154 431 -139 q 379 -169 399 -169 z "},"À":{"ha":754,"x_min":32,"x_max":726,"o":"m 353 917 l 407 917 l 726 0 l 680 0 l 590 251 l 170 251 l 79 0 l 32 0 l 353 917 m 182 296 l 579 296 l 381 859 l 379 859 l 182 296 m 419 956 l 205 1094 l 246 1147 l 446 990 l 419 956 z "},"Ả":{"ha":754,"x_min":32,"x_max":726,"o":"m 353 917 l 407 917 l 726 0 l 680 0 l 590 251 l 170 251 l 79 0 l 32 0 l 353 917 m 182 296 l 579 296 l 381 859 l 379 859 l 182 296 m 369 974 l 343 1010 q 393 1028 363 1015 q 447 1064 423 1041 q 471 1121 471 1088 q 454 1175 471 1158 q 413 1195 437 1191 q 367 1199 389 1199 q 300 1188 338 1199 q 242 1165 263 1176 l 242 1210 q 290 1231 254 1218 q 381 1243 325 1243 q 447 1233 416 1243 q 498 1197 478 1222 q 517 1126 517 1172 q 503 1069 517 1093 q 466 1027 489 1044 q 418 996 443 1009 q 369 974 392 983 z "},"Ȃ":{"ha":754,"x_min":32,"x_max":726,"o":"m 353 917 l 407 917 l 726 0 l 680 0 l 590 251 l 170 251 l 79 0 l 32 0 l 353 917 m 182 296 l 579 296 l 381 859 l 379 859 l 182 296 m 278 978 l 219 993 q 241 1047 222 1017 q 295 1097 260 1076 q 380 1117 330 1117 q 465 1097 430 1117 q 519 1048 499 1076 q 541 993 538 1019 l 483 978 q 467 1018 480 998 q 432 1053 454 1039 q 380 1067 410 1067 q 328 1053 349 1067 q 294 1018 306 1039 q 278 978 282 998 z "},"Ā":{"ha":754,"x_min":32,"x_max":726,"o":"m 353 917 l 407 917 l 726 0 l 680 0 l 590 251 l 170 251 l 79 0 l 32 0 l 353 917 m 182 296 l 579 296 l 381 859 l 379 859 l 182 296 m 194 1018 l 194 1063 l 565 1063 l 565 1018 l 194 1018 z "},"Ą":{"ha":765,"x_min":32,"x_max":838,"o":"m 353 917 l 407 917 l 726 0 l 680 0 l 590 251 l 170 251 l 79 0 l 32 0 l 353 917 m 182 296 l 579 296 l 381 859 l 379 859 l 182 296 m 686 -292 q 626 -283 657 -292 q 573 -247 594 -273 q 551 -174 551 -222 q 572 -99 551 -137 q 623 -27 593 -60 q 681 28 653 6 l 711 0 q 664 -49 689 -20 q 620 -110 638 -78 q 603 -170 603 -142 q 632 -234 603 -217 q 699 -250 660 -250 q 760 -233 733 -250 q 800 -197 787 -216 l 838 -226 q 778 -272 822 -252 q 686 -292 733 -292 z "},"Å":{"ha":754,"x_min":32,"x_max":726,"o":"m 353 917 l 407 917 l 726 0 l 680 0 l 590 251 l 170 251 l 79 0 l 32 0 l 353 917 m 182 296 l 579 296 l 381 859 l 379 859 l 182 296 m 380 959 q 298 987 329 959 q 267 1060 267 1015 q 300 1132 267 1103 q 380 1161 333 1161 q 459 1132 427 1161 q 492 1060 492 1103 q 460 987 492 1015 q 380 959 429 959 m 380 997 q 424 1013 406 997 q 442 1060 442 1030 q 424 1107 442 1090 q 380 1123 406 1123 q 336 1107 356 1123 q 317 1060 317 1090 q 336 1013 317 1030 q 380 997 356 997 z "},"Ǻ":{"ha":754,"x_min":32,"x_max":726,"o":"m 353 917 l 407 917 l 726 0 l 680 0 l 590 251 l 170 251 l 79 0 l 32 0 l 353 917 m 182 296 l 579 296 l 381 859 l 379 859 l 182 296 m 380 959 q 298 987 329 959 q 267 1060 267 1015 q 300 1132 267 1103 q 380 1161 333 1161 q 459 1132 427 1161 q 492 1060 492 1103 q 460 987 492 1015 q 380 959 429 959 m 380 997 q 424 1013 406 997 q 442 1060 442 1030 q 424 1107 442 1090 q 380 1123 406 1123 q 336 1107 356 1123 q 317 1060 317 1090 q 336 1013 317 1030 q 380 997 356 997 m 328 1200 l 301 1234 l 501 1391 l 542 1339 l 328 1200 z "},"Ã":{"ha":754,"x_min":32,"x_max":726,"o":"m 353 917 l 407 917 l 726 0 l 680 0 l 590 251 l 170 251 l 79 0 l 32 0 l 353 917 m 182 296 l 579 296 l 381 859 l 379 859 l 182 296 m 172 983 q 194 1031 178 1006 q 233 1073 210 1056 q 288 1090 257 1090 q 355 1077 329 1090 q 403 1050 381 1063 q 458 1036 426 1036 q 502 1055 486 1036 q 522 1090 517 1073 l 588 1090 q 564 1042 581 1067 q 524 1000 548 1017 q 469 983 499 983 q 400 996 427 983 q 352 1023 374 1010 q 306 1036 331 1036 q 262 1018 280 1036 q 238 983 244 1000 l 172 983 z "},"Æ":{"ha":1113,"x_min":19,"x_max":1064,"o":"m 538 917 l 592 917 l 602 251 l 209 251 l 65 0 l 19 0 l 538 917 m 229 296 l 565 296 l 565 868 l 563 879 l 229 296 m 558 917 l 1064 917 l 1064 872 l 601 872 l 601 482 l 1051 482 l 1051 438 l 601 438 l 601 44 l 1064 44 l 1064 0 l 558 0 l 558 917 z "},"Ǽ":{"ha":1113,"x_min":19,"x_max":1064,"o":"m 538 917 l 592 917 l 602 251 l 209 251 l 65 0 l 19 0 l 538 917 m 229 296 l 565 296 l 565 868 l 563 879 l 229 296 m 558 917 l 1064 917 l 1064 872 l 601 872 l 601 482 l 1051 482 l 1051 438 l 601 438 l 601 44 l 1064 44 l 1064 0 l 558 0 l 558 917 m 735 1008 l 708 1042 l 907 1199 l 949 1147 l 735 1008 z "},"B":{"ha":709,"x_min":88,"x_max":624,"o":"m 88 917 l 292 917 q 430 898 365 917 q 535 832 494 879 q 576 698 576 785 q 551 587 576 637 q 494 506 527 537 q 433 474 460 476 q 485 459 453 473 q 549 419 517 446 q 602 352 581 392 q 624 256 624 311 q 597 124 624 182 q 511 33 569 66 q 357 0 452 0 l 88 0 l 88 917 m 130 43 l 376 43 q 505 74 460 43 q 565 153 549 106 q 581 250 581 201 q 526 389 581 332 q 363 447 470 447 l 130 447 l 130 43 m 130 489 l 342 489 q 450 521 408 489 q 512 600 492 553 q 532 692 532 647 q 473 833 532 792 q 315 874 413 874 l 130 874 l 130 489 z "},"C":{"ha":863,"x_min":41,"x_max":798,"o":"m 503 26 q 679 53 608 26 q 778 107 750 81 l 798 68 q 692 12 768 40 q 508 -17 616 -17 q 321 20 406 -17 q 173 122 236 57 q 76 273 110 187 q 41 457 41 358 q 75 642 41 556 q 173 794 110 728 q 321 896 235 859 q 508 933 406 933 q 692 905 616 933 q 798 849 768 876 l 778 810 q 679 864 750 836 q 503 891 608 891 q 345 860 420 891 q 213 773 271 830 q 121 636 154 716 q 88 459 88 557 q 121 281 88 360 q 213 144 154 201 q 345 56 271 87 q 503 26 420 26 z "},"Ć":{"ha":863,"x_min":41,"x_max":798,"o":"m 503 26 q 679 53 608 26 q 778 107 750 81 l 798 68 q 692 12 768 40 q 508 -17 616 -17 q 321 20 406 -17 q 173 122 236 57 q 76 273 110 187 q 41 457 41 358 q 75 642 41 556 q 173 794 110 728 q 321 896 235 859 q 508 933 406 933 q 692 905 616 933 q 798 849 768 876 l 778 810 q 679 864 750 836 q 503 891 608 891 q 345 860 420 891 q 213 773 271 830 q 121 636 154 716 q 88 459 88 557 q 121 281 88 360 q 213 144 154 201 q 345 56 271 87 q 503 26 420 26 m 452 956 l 425 990 l 625 1147 l 666 1094 l 452 956 z "},"Č":{"ha":863,"x_min":41,"x_max":798,"o":"m 503 26 q 679 53 608 26 q 778 107 750 81 l 798 68 q 692 12 768 40 q 508 -17 616 -17 q 321 20 406 -17 q 173 122 236 57 q 76 273 110 187 q 41 457 41 358 q 75 642 41 556 q 173 794 110 728 q 321 896 235 859 q 508 933 406 933 q 692 905 616 933 q 798 849 768 876 l 778 810 q 679 864 750 836 q 503 891 608 891 q 345 860 420 891 q 213 773 271 830 q 121 636 154 716 q 88 459 88 557 q 121 281 88 360 q 213 144 154 201 q 345 56 271 87 q 503 26 420 26 m 503 988 l 349 1100 l 379 1140 l 503 1050 l 629 1141 l 658 1101 l 503 988 z "},"Ç":{"ha":863,"x_min":41,"x_max":798,"o":"m 503 26 q 679 53 608 26 q 778 107 750 81 l 798 68 q 692 12 768 40 q 508 -17 616 -17 q 321 20 406 -17 q 173 122 236 57 q 76 273 110 187 q 41 457 41 358 q 75 642 41 556 q 173 794 110 728 q 321 896 235 859 q 508 933 406 933 q 692 905 616 933 q 798 849 768 876 l 778 810 q 679 864 750 836 q 503 891 608 891 q 345 860 420 891 q 213 773 271 830 q 121 636 154 716 q 88 459 88 557 q 121 281 88 360 q 213 144 154 201 q 345 56 271 87 q 503 26 420 26 m 505 -291 q 431 -279 466 -291 q 378 -256 396 -267 l 408 -218 q 448 -238 422 -228 q 505 -249 475 -249 q 574 -231 546 -249 q 603 -185 603 -214 q 584 -143 603 -156 q 533 -129 565 -129 q 492 -132 511 -129 q 463 -139 472 -135 l 434 -124 l 487 29 l 525 10 l 487 -101 q 554 -94 515 -91 q 622 -116 592 -97 q 651 -176 651 -135 q 628 -240 651 -215 q 572 -278 606 -266 q 505 -291 538 -291 z "},"Ĉ":{"ha":863,"x_min":41,"x_max":798,"o":"m 503 26 q 679 53 608 26 q 778 107 750 81 l 798 68 q 692 12 768 40 q 508 -17 616 -17 q 321 20 406 -17 q 173 122 236 57 q 76 273 110 187 q 41 457 41 358 q 75 642 41 556 q 173 794 110 728 q 321 896 235 859 q 508 933 406 933 q 692 905 616 933 q 798 849 768 876 l 778 810 q 679 864 750 836 q 503 891 608 891 q 345 860 420 891 q 213 773 271 830 q 121 636 154 716 q 88 459 88 557 q 121 281 88 360 q 213 144 154 201 q 345 56 271 87 q 503 26 420 26 m 360 978 l 326 1024 l 503 1153 l 680 1023 l 647 977 l 503 1083 l 360 978 z "},"Ċ":{"ha":863,"x_min":41,"x_max":798,"o":"m 503 26 q 679 53 608 26 q 778 107 750 81 l 798 68 q 692 12 768 40 q 508 -17 616 -17 q 321 20 406 -17 q 173 122 236 57 q 76 273 110 187 q 41 457 41 358 q 75 642 41 556 q 173 794 110 728 q 321 896 235 859 q 508 933 406 933 q 692 905 616 933 q 798 849 768 876 l 778 810 q 679 864 750 836 q 503 891 608 891 q 345 860 420 891 q 213 773 271 830 q 121 636 154 716 q 88 459 88 557 q 121 281 88 360 q 213 144 154 201 q 345 56 271 87 q 503 26 420 26 m 503 1006 q 467 1022 482 1006 q 452 1057 452 1038 q 467 1093 452 1077 q 503 1108 482 1108 q 539 1093 523 1108 q 554 1057 554 1078 q 539 1021 554 1036 q 503 1006 523 1006 z "},"D":{"ha":756,"x_min":85,"x_max":672,"o":"m 85 917 l 251 917 q 491 858 398 917 q 628 696 584 799 q 672 459 672 592 q 628 222 672 325 q 492 59 585 118 q 251 0 399 0 l 85 0 l 85 917 m 128 872 l 128 44 l 249 44 q 465 97 382 44 q 588 243 549 150 q 628 458 627 336 q 590 673 628 579 q 467 819 551 766 q 249 872 383 872 l 128 872 z "},"Ǆ":{"ha":1524,"x_min":85,"x_max":1452,"o":"m 85 917 l 251 917 q 491 858 398 917 q 628 696 584 799 q 672 459 672 592 q 628 222 672 325 q 492 59 585 118 q 251 0 399 0 l 85 0 l 85 917 m 128 872 l 128 44 l 249 44 q 465 97 382 44 q 588 243 549 150 q 628 458 627 336 q 590 673 628 579 q 467 819 551 766 q 249 872 383 872 l 128 872 m 865 917 l 1452 917 l 885 44 l 1422 44 l 1422 0 l 800 0 l 1371 872 l 865 872 l 865 917 m 1138 1026 l 961 1156 l 995 1201 l 1138 1098 l 1281 1202 l 1315 1156 l 1138 1026 z "},"Ð":{"ha":756,"x_min":-8,"x_max":672,"o":"m 85 0 l 85 917 l 251 917 q 491 858 398 917 q 628 696 584 799 q 672 459 672 592 q 628 222 672 325 q 492 59 585 118 q 251 0 399 0 l 85 0 m -8 436 l -8 478 l 349 478 l 349 436 l -8 436 m 128 44 l 249 44 q 465 97 382 44 q 588 243 549 150 q 628 458 627 336 q 590 673 628 579 q 467 819 551 766 q 249 872 383 872 l 128 872 l 128 44 z "},"Ď":{"ha":756,"x_min":85,"x_max":672,"o":"m 85 917 l 251 917 q 491 858 398 917 q 628 696 584 799 q 672 459 672 592 q 628 222 672 325 q 492 59 585 118 q 251 0 399 0 l 85 0 l 85 917 m 128 872 l 128 44 l 249 44 q 465 97 382 44 q 588 243 549 150 q 628 458 627 336 q 590 673 628 579 q 467 819 551 766 q 249 872 383 872 l 128 872 m 360 988 l 206 1100 l 235 1140 l 360 1050 l 485 1141 l 514 1101 l 360 988 z "},"Đ":{"ha":756,"x_min":-8,"x_max":672,"o":"m 85 0 l 85 917 l 251 917 q 491 858 398 917 q 628 696 584 799 q 672 459 672 592 q 628 222 672 325 q 492 59 585 118 q 251 0 399 0 l 85 0 m -8 436 l -8 478 l 349 478 l 349 436 l -8 436 m 128 44 l 249 44 q 465 97 382 44 q 588 243 549 150 q 628 458 627 336 q 590 673 628 579 q 467 819 551 766 q 249 872 383 872 l 128 872 l 128 44 z "},"ǅ":{"ha":1307,"x_min":85,"x_max":1253,"o":"m 85 917 l 251 917 q 491 858 398 917 q 628 696 584 799 q 672 459 672 592 q 628 222 672 325 q 492 59 585 118 q 251 0 399 0 l 85 0 l 85 917 m 128 872 l 128 44 l 249 44 q 465 97 382 44 q 588 243 549 150 q 628 458 627 336 q 590 673 628 579 q 467 819 551 766 q 249 872 383 872 l 128 872 m 813 570 l 1253 570 l 865 44 l 1246 44 l 1246 0 l 780 0 l 1169 526 l 813 526 l 813 570 m 1029 680 l 853 809 l 887 854 l 1029 751 l 1173 856 l 1206 810 l 1029 680 z "},"E":{"ha":719,"x_min":93,"x_max":599,"o":"m 93 917 l 599 917 l 599 872 l 135 872 l 135 482 l 585 482 l 585 438 l 135 438 l 135 44 l 599 44 l 599 0 l 93 0 l 93 917 z "},"É":{"ha":719,"x_min":93,"x_max":599,"o":"m 93 917 l 599 917 l 599 872 l 135 872 l 135 482 l 585 482 l 585 438 l 135 438 l 135 44 l 599 44 l 599 0 l 93 0 l 93 917 m 301 956 l 274 990 l 474 1147 l 515 1094 l 301 956 z "},"Ĕ":{"ha":719,"x_min":93,"x_max":599,"o":"m 93 917 l 599 917 l 599 872 l 135 872 l 135 482 l 585 482 l 585 438 l 135 438 l 135 44 l 599 44 l 599 0 l 93 0 l 93 917 m 352 972 q 267 993 302 972 q 213 1042 233 1013 q 191 1097 194 1071 l 249 1111 q 265 1072 253 1092 q 300 1036 278 1051 q 352 1022 322 1022 q 404 1036 383 1022 q 438 1072 426 1051 q 454 1111 451 1092 l 513 1097 q 491 1043 510 1072 q 437 993 472 1014 q 352 972 402 972 z "},"Ě":{"ha":719,"x_min":93,"x_max":599,"o":"m 93 917 l 599 917 l 599 872 l 135 872 l 135 482 l 585 482 l 585 438 l 135 438 l 135 44 l 599 44 l 599 0 l 93 0 l 93 917 m 352 988 l 198 1100 l 228 1140 l 352 1050 l 478 1141 l 506 1101 l 352 988 z "},"Ê":{"ha":719,"x_min":93,"x_max":599,"o":"m 93 917 l 599 917 l 599 872 l 135 872 l 135 482 l 585 482 l 585 438 l 135 438 l 135 44 l 599 44 l 599 0 l 93 0 l 93 917 m 209 978 l 175 1024 l 351 1153 l 528 1023 l 495 977 l 351 1083 l 209 978 z "},"Ế":{"ha":719,"x_min":93,"x_max":694,"o":"m 93 917 l 599 917 l 599 872 l 135 872 l 135 482 l 585 482 l 585 438 l 135 438 l 135 44 l 599 44 l 599 0 l 93 0 l 93 917 m 496 991 l 352 1097 l 210 992 l 176 1038 l 352 1167 l 529 1037 l 496 991 m 480 1157 l 453 1191 l 652 1348 l 694 1296 l 480 1157 z "},"Ệ":{"ha":719,"x_min":93,"x_max":599,"o":"m 93 917 l 599 917 l 599 872 l 135 872 l 135 482 l 585 482 l 585 438 l 135 438 l 135 44 l 599 44 l 599 0 l 93 0 l 93 917 m 346 -169 q 310 -153 325 -169 q 295 -118 295 -137 q 310 -82 295 -98 q 346 -67 325 -67 q 382 -82 366 -67 q 397 -118 397 -97 q 382 -154 397 -139 q 346 -169 366 -169 m 209 978 l 175 1024 l 351 1153 l 528 1023 l 495 977 l 351 1083 l 209 978 z "},"Ề":{"ha":719,"x_min":93,"x_max":619,"o":"m 93 917 l 599 917 l 599 872 l 135 872 l 135 482 l 585 482 l 585 438 l 135 438 l 135 44 l 599 44 l 599 0 l 93 0 l 93 917 m 499 991 l 356 1097 l 213 992 l 179 1038 l 356 1167 l 533 1037 l 499 991 m 592 1133 l 378 1272 l 419 1324 l 619 1167 l 592 1133 z "},"Ể":{"ha":719,"x_min":93,"x_max":626,"o":"m 93 917 l 599 917 l 599 872 l 135 872 l 135 482 l 585 482 l 585 438 l 135 438 l 135 44 l 599 44 l 599 0 l 93 0 l 93 917 m 478 1132 l 451 1168 q 501 1189 471 1173 q 555 1232 531 1204 q 579 1300 579 1260 q 562 1359 579 1341 q 521 1381 545 1376 q 476 1385 497 1385 q 408 1374 446 1385 q 350 1351 371 1362 l 350 1396 q 398 1417 363 1404 q 489 1429 433 1429 q 556 1418 524 1429 q 606 1381 587 1408 q 626 1306 626 1354 q 611 1239 626 1267 q 574 1190 597 1210 q 526 1156 551 1169 q 478 1132 501 1142 m 497 991 l 353 1097 l 210 992 l 176 1038 l 353 1167 l 530 1037 l 497 991 z "},"Ễ":{"ha":719,"x_min":93,"x_max":599,"o":"m 93 917 l 599 917 l 599 872 l 135 872 l 135 482 l 585 482 l 585 438 l 135 438 l 135 44 l 599 44 l 599 0 l 93 0 l 93 917 m 145 1201 q 168 1249 152 1224 q 207 1291 183 1274 q 261 1308 231 1308 q 328 1295 303 1308 q 377 1268 354 1281 q 431 1254 399 1254 q 475 1273 460 1254 q 495 1308 491 1291 l 562 1308 q 538 1260 554 1285 q 497 1218 522 1235 q 442 1201 473 1201 q 374 1214 401 1201 q 326 1241 347 1228 q 280 1254 305 1254 q 236 1236 253 1254 q 212 1201 218 1218 l 145 1201 m 493 991 l 349 1097 l 207 992 l 173 1038 l 349 1167 l 526 1037 l 493 991 z "},"Ȅ":{"ha":719,"x_min":40,"x_max":599,"o":"m 93 917 l 599 917 l 599 872 l 135 872 l 135 482 l 585 482 l 585 438 l 135 438 l 135 44 l 599 44 l 599 0 l 93 0 l 93 917 m 483 952 l 269 1091 l 310 1143 l 510 986 l 483 952 m 254 952 l 40 1091 l 81 1143 l 281 986 l 254 952 z "},"Ë":{"ha":719,"x_min":93,"x_max":599,"o":"m 93 917 l 599 917 l 599 872 l 135 872 l 135 482 l 585 482 l 585 438 l 135 438 l 135 44 l 599 44 l 599 0 l 93 0 l 93 917 m 483 985 q 448 1001 463 985 q 433 1036 433 1017 q 448 1072 433 1056 q 483 1088 463 1088 q 519 1072 503 1088 q 535 1036 535 1057 q 519 1000 535 1015 q 483 985 503 985 m 220 985 q 184 1001 199 985 q 169 1036 169 1017 q 184 1072 169 1056 q 220 1088 199 1088 q 256 1072 240 1088 q 272 1036 272 1057 q 256 1000 272 1015 q 220 985 240 985 z "},"Ė":{"ha":719,"x_min":93,"x_max":599,"o":"m 93 917 l 599 917 l 599 872 l 135 872 l 135 482 l 585 482 l 585 438 l 135 438 l 135 44 l 599 44 l 599 0 l 93 0 l 93 917 m 351 1006 q 316 1022 331 1006 q 301 1057 301 1038 q 316 1093 301 1077 q 351 1108 331 1108 q 387 1093 372 1108 q 403 1057 403 1078 q 387 1021 403 1036 q 351 1006 372 1006 z "},"Ẹ":{"ha":719,"x_min":93,"x_max":599,"o":"m 93 917 l 599 917 l 599 872 l 135 872 l 135 482 l 585 482 l 585 438 l 135 438 l 135 44 l 599 44 l 599 0 l 93 0 l 93 917 m 346 -169 q 310 -153 325 -169 q 295 -118 295 -137 q 310 -82 295 -98 q 346 -67 325 -67 q 382 -82 366 -67 q 397 -118 397 -97 q 382 -154 397 -139 q 346 -169 366 -169 z "},"È":{"ha":719,"x_min":93,"x_max":599,"o":"m 93 917 l 599 917 l 599 872 l 135 872 l 135 482 l 585 482 l 585 438 l 135 438 l 135 44 l 599 44 l 599 0 l 93 0 l 93 917 m 391 956 l 177 1094 l 218 1147 l 418 990 l 391 956 z "},"Ẻ":{"ha":719,"x_min":93,"x_max":599,"o":"m 93 917 l 599 917 l 599 872 l 135 872 l 135 482 l 585 482 l 585 438 l 135 438 l 135 44 l 599 44 l 599 0 l 93 0 l 93 917 m 342 974 l 315 1010 q 365 1028 335 1015 q 419 1064 395 1041 q 443 1121 443 1088 q 426 1175 443 1158 q 385 1195 409 1191 q 340 1199 361 1199 q 272 1188 310 1199 q 214 1165 235 1176 l 214 1210 q 262 1231 226 1218 q 353 1243 297 1243 q 419 1233 388 1243 q 470 1197 451 1222 q 490 1126 490 1172 q 475 1069 490 1093 q 438 1027 461 1044 q 390 996 415 1009 q 342 974 365 983 z "},"Ȇ":{"ha":719,"x_min":93,"x_max":599,"o":"m 93 917 l 599 917 l 599 872 l 135 872 l 135 482 l 585 482 l 585 438 l 135 438 l 135 44 l 599 44 l 599 0 l 93 0 l 93 917 m 250 978 l 191 993 q 213 1047 194 1017 q 267 1097 232 1076 q 352 1117 302 1117 q 437 1097 402 1117 q 491 1048 472 1076 q 513 993 510 1019 l 456 978 q 439 1018 452 998 q 405 1053 426 1039 q 352 1067 383 1067 q 300 1053 322 1067 q 266 1018 278 1039 q 250 978 254 998 z "},"Ē":{"ha":719,"x_min":93,"x_max":599,"o":"m 93 917 l 599 917 l 599 872 l 135 872 l 135 482 l 585 482 l 585 438 l 135 438 l 135 44 l 599 44 l 599 0 l 93 0 l 93 917 m 167 1018 l 167 1063 l 537 1063 l 537 1018 l 167 1018 z "},"Ę":{"ha":719,"x_min":93,"x_max":599,"o":"m 93 917 l 599 917 l 599 872 l 135 872 l 135 482 l 585 482 l 585 438 l 135 438 l 135 44 l 599 44 l 599 0 l 93 0 l 93 917 m 433 -292 q 372 -283 403 -292 q 319 -247 341 -273 q 298 -174 298 -222 q 319 -99 298 -137 q 370 -27 340 -60 q 428 28 400 6 l 458 0 q 410 -49 435 -20 q 367 -110 385 -78 q 349 -170 349 -142 q 378 -234 349 -217 q 446 -250 407 -250 q 507 -233 480 -250 q 547 -197 533 -216 l 585 -226 q 524 -272 569 -252 q 433 -292 480 -292 z "},"Ẽ":{"ha":719,"x_min":93,"x_max":599,"o":"m 93 917 l 599 917 l 599 872 l 135 872 l 135 482 l 585 482 l 585 438 l 135 438 l 135 44 l 599 44 l 599 0 l 93 0 l 93 917 m 144 983 q 166 1031 151 1006 q 206 1073 182 1056 q 260 1090 229 1090 q 327 1077 301 1090 q 375 1050 353 1063 q 430 1036 398 1036 q 474 1055 458 1036 q 494 1090 490 1073 l 560 1090 q 536 1042 553 1067 q 496 1000 520 1017 q 441 983 472 983 q 373 996 399 983 q 325 1023 346 1010 q 278 1036 303 1036 q 234 1018 252 1036 q 210 983 217 1000 l 144 983 z "},"F":{"ha":602,"x_min":88,"x_max":521,"o":"m 88 917 l 521 917 l 521 872 l 130 872 l 130 482 l 497 482 l 497 438 l 130 438 l 130 0 l 88 0 l 88 917 z "},"G":{"ha":980,"x_min":33,"x_max":918,"o":"m 459 485 l 918 485 l 918 442 q 884 266 918 349 q 790 119 850 183 q 650 19 730 56 q 476 -17 569 -17 q 301 21 382 -17 q 160 125 220 59 q 67 277 100 191 q 33 459 33 363 q 67 641 33 555 q 160 792 100 726 q 301 896 220 858 q 476 933 382 933 q 577 922 528 933 q 668 887 625 910 q 749 833 712 865 q 815 763 786 802 l 783 735 q 651 847 731 806 q 476 889 572 889 q 317 855 390 889 q 191 761 244 821 q 107 624 137 702 q 78 459 78 547 q 107 294 78 372 q 191 156 137 216 q 317 62 244 96 q 476 28 390 28 q 632 60 561 28 q 757 150 703 93 q 840 283 810 208 q 874 442 871 358 l 459 442 l 459 485 z "},"Ğ":{"ha":980,"x_min":33,"x_max":918,"o":"m 459 485 l 918 485 l 918 442 q 884 266 918 349 q 790 119 850 183 q 650 19 730 56 q 476 -17 569 -17 q 301 21 382 -17 q 160 125 220 59 q 67 277 100 191 q 33 459 33 363 q 67 641 33 555 q 160 792 100 726 q 301 896 220 858 q 476 933 382 933 q 577 922 528 933 q 668 887 625 910 q 749 833 712 865 q 815 763 786 802 l 783 735 q 651 847 731 806 q 476 889 572 889 q 317 855 390 889 q 191 761 244 821 q 107 624 137 702 q 78 459 78 547 q 107 294 78 372 q 191 156 137 216 q 317 62 244 96 q 476 28 390 28 q 632 60 561 28 q 757 150 703 93 q 840 283 810 208 q 874 442 871 358 l 459 442 l 459 485 m 476 972 q 392 993 426 972 q 338 1042 357 1013 q 315 1097 318 1071 l 373 1111 q 390 1072 377 1092 q 424 1036 402 1051 q 476 1022 446 1022 q 528 1036 507 1022 q 563 1072 550 1051 q 578 1111 575 1092 l 638 1097 q 616 1043 635 1072 q 561 993 597 1014 q 476 972 526 972 z "},"Ǧ":{"ha":980,"x_min":33,"x_max":918,"o":"m 459 485 l 918 485 l 918 442 q 884 266 918 349 q 790 119 850 183 q 650 19 730 56 q 476 -17 569 -17 q 301 21 382 -17 q 160 125 220 59 q 67 277 100 191 q 33 459 33 363 q 67 641 33 555 q 160 792 100 726 q 301 896 220 858 q 476 933 382 933 q 577 922 528 933 q 668 887 625 910 q 749 833 712 865 q 815 763 786 802 l 783 735 q 651 847 731 806 q 476 889 572 889 q 317 855 390 889 q 191 761 244 821 q 107 624 137 702 q 78 459 78 547 q 107 294 78 372 q 191 156 137 216 q 317 62 244 96 q 476 28 390 28 q 632 60 561 28 q 757 150 703 93 q 840 283 810 208 q 874 442 871 358 l 459 442 l 459 485 m 476 988 l 322 1100 l 352 1140 l 476 1050 l 602 1141 l 631 1101 l 476 988 z "},"Ĝ":{"ha":980,"x_min":33,"x_max":918,"o":"m 459 485 l 918 485 l 918 442 q 884 266 918 349 q 790 119 850 183 q 650 19 730 56 q 476 -17 569 -17 q 301 21 382 -17 q 160 125 220 59 q 67 277 100 191 q 33 459 33 363 q 67 641 33 555 q 160 792 100 726 q 301 896 220 858 q 476 933 382 933 q 577 922 528 933 q 668 887 625 910 q 749 833 712 865 q 815 763 786 802 l 783 735 q 651 847 731 806 q 476 889 572 889 q 317 855 390 889 q 191 761 244 821 q 107 624 137 702 q 78 459 78 547 q 107 294 78 372 q 191 156 137 216 q 317 62 244 96 q 476 28 390 28 q 632 60 561 28 q 757 150 703 93 q 840 283 810 208 q 874 442 871 358 l 459 442 l 459 485 m 333 978 l 299 1024 l 476 1153 l 653 1023 l 619 977 l 476 1083 l 333 978 z "},"Ģ":{"ha":980,"x_min":33,"x_max":918,"o":"m 459 485 l 918 485 l 918 442 q 884 266 918 349 q 790 119 850 183 q 650 19 730 56 q 476 -17 569 -17 q 301 21 382 -17 q 160 125 220 59 q 67 277 100 191 q 33 459 33 363 q 67 641 33 555 q 160 792 100 726 q 301 896 220 858 q 476 933 382 933 q 577 922 528 933 q 668 887 625 910 q 749 833 712 865 q 815 763 786 802 l 783 735 q 651 847 731 806 q 476 889 572 889 q 317 855 390 889 q 191 761 244 821 q 107 624 137 702 q 78 459 78 547 q 107 294 78 372 q 191 156 137 216 q 317 62 244 96 q 476 28 390 28 q 632 60 561 28 q 757 150 703 93 q 840 283 810 208 q 874 442 871 358 l 459 442 l 459 485 m 460 -281 l 431 -256 q 478 -226 453 -247 q 508 -178 503 -205 q 482 -184 496 -184 q 444 -167 459 -184 q 428 -132 428 -151 q 445 -89 428 -105 q 488 -73 462 -73 q 533 -92 514 -73 q 551 -137 551 -110 q 539 -199 551 -171 q 505 -247 526 -226 q 460 -281 484 -268 z "},"Ġ":{"ha":980,"x_min":33,"x_max":918,"o":"m 459 485 l 918 485 l 918 442 q 884 266 918 349 q 790 119 850 183 q 650 19 730 56 q 476 -17 569 -17 q 301 21 382 -17 q 160 125 220 59 q 67 277 100 191 q 33 459 33 363 q 67 641 33 555 q 160 792 100 726 q 301 896 220 858 q 476 933 382 933 q 577 922 528 933 q 668 887 625 910 q 749 833 712 865 q 815 763 786 802 l 783 735 q 651 847 731 806 q 476 889 572 889 q 317 855 390 889 q 191 761 244 821 q 107 624 137 702 q 78 459 78 547 q 107 294 78 372 q 191 156 137 216 q 317 62 244 96 q 476 28 390 28 q 632 60 561 28 q 757 150 703 93 q 840 283 810 208 q 874 442 871 358 l 459 442 l 459 485 m 476 1006 q 440 1022 455 1006 q 425 1057 425 1038 q 440 1093 425 1077 q 476 1108 455 1108 q 511 1093 496 1108 q 527 1057 527 1078 q 511 1021 527 1036 q 476 1006 496 1006 z "},"H":{"ha":841,"x_min":93,"x_max":721,"o":"m 679 438 l 135 438 l 135 0 l 93 0 l 93 917 l 135 917 l 135 482 l 679 482 l 679 917 l 721 917 l 721 0 l 679 0 l 679 438 z "},"Ħ":{"ha":841,"x_min":55,"x_max":763,"o":"m 55 742 l 763 742 l 763 699 l 55 699 l 55 742 m 679 438 l 135 438 l 135 0 l 93 0 l 93 917 l 135 917 l 135 482 l 679 482 l 679 917 l 721 917 l 721 0 l 679 0 l 679 438 z "},"Ĥ":{"ha":841,"x_min":93,"x_max":721,"o":"m 679 438 l 135 438 l 135 0 l 93 0 l 93 917 l 135 917 l 135 482 l 679 482 l 679 917 l 721 917 l 721 0 l 679 0 l 679 438 m 264 978 l 230 1024 l 406 1153 l 583 1023 l 550 977 l 406 1083 l 264 978 z "},"I":{"ha":281,"x_min":106,"x_max":150,"o":"m 106 917 l 150 917 l 150 0 l 106 0 l 106 917 z "},"Í":{"ha":281,"x_min":48,"x_max":289,"o":"m 106 917 l 150 917 l 150 0 l 106 0 l 106 917 m 75 956 l 48 990 l 248 1147 l 289 1094 l 75 956 z "},"Ĭ":{"ha":281,"x_min":-35,"x_max":288,"o":"m 106 917 l 150 917 l 150 0 l 106 0 l 106 917 m 126 972 q 42 993 76 972 q -12 1042 7 1013 q -35 1097 -32 1071 l 23 1111 q 40 1072 27 1092 q 74 1036 52 1051 q 126 1022 96 1022 q 178 1036 157 1022 q 213 1072 200 1051 q 228 1111 225 1092 l 288 1097 q 266 1043 285 1072 q 211 993 247 1014 q 126 972 176 972 z "},"Î":{"ha":281,"x_min":-51,"x_max":303,"o":"m 106 917 l 150 917 l 150 0 l 106 0 l 106 917 m -17 978 l -51 1024 l 126 1153 l 303 1023 l 269 977 l 126 1083 l -17 978 z "},"Ȉ":{"ha":281,"x_min":-185,"x_max":285,"o":"m 106 917 l 150 917 l 150 0 l 106 0 l 106 917 m 258 952 l 44 1091 l 85 1143 l 285 986 l 258 952 m 28 952 l -185 1091 l -144 1143 l 56 986 l 28 952 z "},"Ï":{"ha":281,"x_min":-56,"x_max":309,"o":"m 106 917 l 150 917 l 150 0 l 106 0 l 106 917 m 258 985 q 222 1001 237 985 q 207 1036 207 1017 q 222 1072 207 1056 q 258 1088 237 1088 q 293 1072 278 1088 q 309 1036 309 1057 q 293 1000 309 1015 q 258 985 278 985 m -6 985 q -41 1001 -26 985 q -56 1036 -56 1017 q -41 1072 -56 1056 q -6 1088 -26 1088 q 30 1072 15 1088 q 46 1036 46 1057 q 30 1000 46 1015 q -6 985 15 985 z "},"İ":{"ha":281,"x_min":75,"x_max":177,"o":"m 106 917 l 150 917 l 150 0 l 106 0 l 106 917 m 126 1006 q 90 1022 105 1006 q 75 1057 75 1038 q 90 1093 75 1077 q 126 1108 105 1108 q 161 1093 146 1108 q 177 1057 177 1078 q 161 1021 177 1036 q 126 1006 146 1006 z "},"Ị":{"ha":281,"x_min":74,"x_max":176,"o":"m 106 917 l 150 917 l 150 0 l 106 0 l 106 917 m 125 -169 q 89 -153 104 -169 q 74 -118 74 -137 q 89 -82 74 -98 q 125 -67 104 -67 q 161 -82 145 -67 q 176 -118 176 -97 q 161 -154 176 -139 q 125 -169 145 -169 z "},"Ì":{"ha":281,"x_min":-49,"x_max":192,"o":"m 106 917 l 150 917 l 150 0 l 106 0 l 106 917 m 165 956 l -49 1094 l -8 1147 l 192 990 l 165 956 z "},"Ỉ":{"ha":281,"x_min":-12,"x_max":264,"o":"m 106 917 l 150 917 l 150 0 l 106 0 l 106 917 m 116 974 l 90 1010 q 139 1028 109 1015 q 193 1064 169 1041 q 217 1121 217 1088 q 200 1175 217 1158 q 159 1195 183 1191 q 114 1199 135 1199 q 47 1188 84 1199 q -12 1165 9 1176 l -12 1210 q 36 1231 1 1218 q 127 1243 72 1243 q 194 1233 163 1243 q 244 1197 225 1222 q 264 1126 264 1172 q 250 1069 264 1093 q 213 1027 235 1044 q 164 996 190 1009 q 116 974 139 983 z "},"Ȋ":{"ha":281,"x_min":-35,"x_max":288,"o":"m 106 917 l 150 917 l 150 0 l 106 0 l 106 917 m 24 978 l -35 993 q -13 1047 -32 1017 q 41 1097 6 1076 q 126 1117 76 1117 q 211 1097 176 1117 q 265 1048 246 1076 q 288 993 285 1019 l 230 978 q 214 1018 226 998 q 179 1053 201 1039 q 126 1067 157 1067 q 74 1053 96 1067 q 41 1018 53 1039 q 24 978 28 998 z "},"Ī":{"ha":281,"x_min":-59,"x_max":311,"o":"m 106 917 l 150 917 l 150 0 l 106 0 l 106 917 m -59 1018 l -59 1063 l 311 1063 l 311 1018 l -59 1018 z "},"Į":{"ha":281,"x_min":-10,"x_max":277,"o":"m 106 917 l 150 917 l 150 0 l 106 0 l 106 917 m 125 -292 q 65 -283 96 -292 q 12 -247 33 -273 q -10 -174 -10 -222 q 11 -99 -10 -137 q 62 -27 32 -60 q 120 28 92 6 l 150 0 q 102 -49 128 -20 q 59 -110 77 -78 q 42 -170 42 -142 q 70 -234 42 -217 q 138 -250 99 -250 q 199 -233 172 -250 q 239 -197 226 -216 l 277 -226 q 217 -272 261 -252 q 125 -292 172 -292 z "},"Ĩ":{"ha":281,"x_min":-82,"x_max":335,"o":"m 106 917 l 150 917 l 150 0 l 106 0 l 106 917 m -82 983 q -59 1031 -75 1006 q -20 1073 -44 1056 q 34 1090 3 1090 q 101 1077 76 1090 q 150 1050 127 1063 q 204 1036 172 1036 q 248 1055 233 1036 q 268 1090 264 1073 l 335 1090 q 311 1042 327 1067 q 270 1000 294 1017 q 215 983 246 983 q 147 996 174 983 q 99 1023 120 1010 q 53 1036 78 1036 q 9 1018 26 1036 q -15 983 -9 1000 l -82 983 z "},"J":{"ha":515,"x_min":-4,"x_max":426,"o":"m 426 276 q 404 120 426 186 q 332 19 381 55 q 201 -17 282 -17 q 90 3 133 -17 q 24 46 47 22 q -4 82 1 70 l 26 118 q 51 83 33 105 q 105 44 69 61 q 201 26 142 26 q 313 60 273 26 q 368 150 352 94 q 383 268 383 205 l 383 917 l 426 917 l 426 276 z "},"Ĵ":{"ha":515,"x_min":-4,"x_max":581,"o":"m 426 276 q 404 120 426 186 q 332 19 381 55 q 201 -17 282 -17 q 90 3 133 -17 q 24 46 47 22 q -4 82 1 70 l 26 118 q 51 83 33 105 q 105 44 69 61 q 201 26 142 26 q 313 60 273 26 q 368 150 352 94 q 383 268 383 205 l 383 917 l 426 917 l 426 276 m 261 978 l 227 1024 l 403 1153 l 581 1023 l 547 977 l 403 1083 l 261 978 z "},"K":{"ha":618,"x_min":104,"x_max":594,"o":"m 198 454 l 594 0 l 540 0 l 149 442 l 149 0 l 104 0 l 104 917 l 149 917 l 149 459 l 519 917 l 572 917 l 198 454 z "},"Ķ":{"ha":618,"x_min":104,"x_max":594,"o":"m 198 454 l 594 0 l 540 0 l 149 442 l 149 0 l 104 0 l 104 917 l 149 917 l 149 459 l 519 917 l 572 917 l 198 454 m 288 -281 l 259 -256 q 306 -226 281 -247 q 335 -178 331 -205 q 310 -184 324 -184 q 272 -167 287 -184 q 256 -132 256 -151 q 273 -89 256 -105 q 315 -73 290 -73 q 360 -92 342 -73 q 379 -137 379 -110 q 366 -199 379 -171 q 333 -247 353 -226 q 288 -281 312 -268 z "},"L":{"ha":600,"x_min":88,"x_max":515,"o":"m 88 917 l 131 917 l 131 44 l 515 44 l 515 0 l 88 0 l 88 917 z "},"Ǉ":{"ha":1115,"x_min":88,"x_max":1026,"o":"m 88 917 l 131 917 l 131 44 l 515 44 l 515 0 l 88 0 l 88 917 m 1026 276 q 1004 120 1026 186 q 932 19 981 55 q 801 -17 882 -17 q 690 3 733 -17 q 624 46 647 22 q 596 82 601 70 l 626 118 q 651 83 633 105 q 705 44 669 61 q 801 26 742 26 q 913 60 873 26 q 968 150 952 94 q 983 268 983 205 l 983 917 l 1026 917 l 1026 276 z "},"Ĺ":{"ha":600,"x_min":88,"x_max":515,"o":"m 88 917 l 131 917 l 131 44 l 515 44 l 515 0 l 88 0 l 88 917 m 235 956 l 208 990 l 408 1147 l 449 1094 l 235 956 z "},"Ľ":{"ha":600,"x_min":88,"x_max":624,"o":"m 550 738 l 527 758 q 564 782 544 766 q 588 820 584 799 q 568 816 579 816 q 537 829 549 816 q 525 858 525 842 q 538 892 525 879 q 572 905 551 905 q 608 890 593 905 q 624 853 624 875 q 613 804 624 826 q 586 765 603 782 q 550 738 569 748 m 88 917 l 131 917 l 131 44 l 515 44 l 515 0 l 88 0 l 88 917 z "},"Ļ":{"ha":600,"x_min":88,"x_max":515,"o":"m 88 917 l 131 917 l 131 44 l 515 44 l 515 0 l 88 0 l 88 917 m 271 -281 l 242 -256 q 289 -226 265 -247 q 319 -178 314 -205 q 293 -184 307 -184 q 255 -167 270 -184 q 240 -132 240 -151 q 256 -89 240 -105 q 299 -73 273 -73 q 344 -92 325 -73 q 363 -137 363 -110 q 350 -199 363 -171 q 316 -247 337 -226 q 271 -281 295 -268 z "},"Ŀ":{"ha":600,"x_min":88,"x_max":515,"o":"m 88 917 l 131 917 l 131 44 l 515 44 l 515 0 l 88 0 l 88 917 m 363 383 q 317 402 336 383 q 298 449 298 422 q 317 496 298 477 q 363 515 336 515 q 410 496 391 515 q 429 449 429 477 q 410 402 429 422 q 363 383 391 383 z "},"ǈ":{"ha":897,"x_min":88,"x_max":799,"o":"m 88 917 l 131 917 l 131 44 l 515 44 l 515 0 l 88 0 l 88 917 m 635 -306 q 578 -297 602 -306 q 546 -280 555 -288 l 574 -242 q 593 -255 581 -249 q 635 -261 606 -261 q 695 -236 676 -261 q 720 -165 715 -210 q 726 -61 726 -120 l 726 570 l 771 570 l 771 -87 q 759 -205 771 -156 q 718 -280 747 -253 q 635 -306 688 -306 m 753 831 q 721 844 734 831 q 708 876 708 858 q 714 899 708 889 q 731 916 720 910 q 753 922 741 922 q 777 916 767 922 q 793 899 787 910 q 799 876 799 889 q 786 844 799 858 q 753 831 773 831 z "},"Ł":{"ha":656,"x_min":41,"x_max":572,"o":"m 146 0 l 146 458 l 41 376 l 41 448 l 146 530 l 146 917 l 188 917 l 188 563 l 268 626 l 268 553 l 188 490 l 188 44 l 572 44 l 572 0 l 146 0 z "},"M":{"ha":926,"x_min":88,"x_max":799,"o":"m 799 917 l 799 0 l 756 0 l 756 765 l 759 822 l 743 765 l 465 33 l 421 33 l 143 765 l 128 822 l 131 765 l 131 0 l 88 0 l 88 917 l 132 917 l 438 106 l 443 81 l 449 106 l 756 917 l 799 917 z "},"N":{"ha":889,"x_min":93,"x_max":769,"o":"m 135 870 l 137 870 l 137 0 l 93 0 l 93 917 l 163 917 l 726 47 l 726 47 l 726 917 l 769 917 l 769 0 l 699 0 l 135 870 z "},"Ǌ":{"ha":1404,"x_min":93,"x_max":1315,"o":"m 135 870 l 137 870 l 137 0 l 93 0 l 93 917 l 163 917 l 726 47 l 726 47 l 726 917 l 769 917 l 769 0 l 699 0 l 135 870 m 1315 276 q 1293 120 1315 186 q 1220 19 1270 55 q 1090 -17 1171 -17 q 979 3 1022 -17 q 913 46 935 22 q 885 82 890 70 l 915 118 q 940 83 922 105 q 994 44 958 61 q 1090 26 1031 26 q 1201 60 1162 26 q 1257 150 1241 94 q 1272 268 1272 205 l 1272 917 l 1315 917 l 1315 276 z "},"Ń":{"ha":889,"x_min":93,"x_max":769,"o":"m 135 870 l 137 870 l 137 0 l 93 0 l 93 917 l 163 917 l 726 47 l 726 47 l 726 917 l 769 917 l 769 0 l 699 0 l 135 870 m 408 956 l 381 990 l 581 1147 l 622 1094 l 408 956 z "},"Ň":{"ha":889,"x_min":93,"x_max":769,"o":"m 135 870 l 137 870 l 137 0 l 93 0 l 93 917 l 163 917 l 726 47 l 726 47 l 726 917 l 769 917 l 769 0 l 699 0 l 135 870 m 459 988 l 305 1100 l 335 1140 l 459 1050 l 585 1141 l 613 1101 l 459 988 z "},"Ņ":{"ha":889,"x_min":93,"x_max":769,"o":"m 135 870 l 137 870 l 137 0 l 93 0 l 93 917 l 163 917 l 726 47 l 726 47 l 726 917 l 769 917 l 769 0 l 699 0 l 135 870 m 428 -281 l 400 -256 q 447 -226 422 -247 q 476 -178 472 -205 q 451 -184 465 -184 q 413 -167 428 -184 q 397 -132 397 -151 q 414 -89 397 -105 q 456 -73 431 -73 q 501 -92 483 -73 q 520 -137 520 -110 q 507 -199 520 -171 q 474 -247 494 -226 q 428 -281 453 -268 z "},"ǋ":{"ha":1185,"x_min":93,"x_max":1088,"o":"m 135 870 l 137 870 l 137 0 l 93 0 l 93 917 l 163 917 l 726 47 l 726 47 l 726 917 l 769 917 l 769 0 l 699 0 l 135 870 m 924 -306 q 867 -297 891 -306 q 835 -280 844 -288 l 863 -242 q 882 -255 870 -249 q 924 -261 894 -261 q 984 -236 965 -261 q 1009 -165 1003 -210 q 1015 -61 1015 -120 l 1015 570 l 1060 570 l 1060 -87 q 1048 -205 1060 -156 q 1007 -280 1036 -253 q 924 -306 977 -306 m 1042 831 q 1010 844 1023 831 q 997 876 997 858 q 1003 899 997 889 q 1019 916 1009 910 q 1042 922 1030 922 q 1066 916 1056 922 q 1082 899 1076 910 q 1088 876 1088 889 q 1075 844 1088 858 q 1042 831 1062 831 z "},"Ñ":{"ha":889,"x_min":93,"x_max":769,"o":"m 135 870 l 137 870 l 137 0 l 93 0 l 93 917 l 163 917 l 726 47 l 726 47 l 726 917 l 769 917 l 769 0 l 699 0 l 135 870 m 262 1058 q 284 1107 269 1082 q 324 1149 300 1131 q 378 1166 347 1166 q 445 1152 419 1166 q 493 1125 471 1139 q 548 1112 516 1112 q 592 1130 576 1112 q 612 1166 608 1149 l 678 1166 q 655 1118 671 1143 q 614 1076 638 1093 q 559 1058 590 1058 q 491 1072 517 1058 q 443 1099 464 1085 q 397 1112 422 1112 q 352 1094 370 1112 q 328 1058 335 1076 l 262 1058 z "},"Ŋ":{"ha":889,"x_min":93,"x_max":769,"o":"m 769 0 l 726 0 l 726 -28 q 700 -192 726 -133 q 611 -250 673 -250 q 561 -242 583 -250 q 529 -228 539 -235 l 501 -265 q 540 -282 506 -269 q 609 -294 573 -294 q 697 -263 662 -294 q 751 -173 733 -231 q 769 -32 769 -114 l 769 0 m 135 870 l 137 870 l 137 0 l 93 0 l 93 917 l 163 917 l 726 47 l 726 47 l 726 917 l 769 917 l 769 0 l 699 0 l 135 870 z "},"O":{"ha":980,"x_min":33,"x_max":918,"o":"m 78 459 q 130 239 78 337 q 271 85 181 142 q 476 28 361 28 q 682 85 592 28 q 823 239 772 142 q 874 459 874 337 q 823 678 874 581 q 682 832 772 776 q 476 889 592 889 q 271 832 361 889 q 130 678 181 776 q 78 459 78 581 m 33 459 q 67 645 33 559 q 160 797 100 732 q 301 897 220 861 q 476 933 382 933 q 652 897 572 933 q 792 797 732 861 q 885 645 852 732 q 918 459 918 559 q 885 272 918 358 q 792 120 852 185 q 652 19 732 56 q 476 -17 572 -17 q 301 19 382 -17 q 160 120 220 56 q 67 272 100 185 q 33 459 33 358 z "},"Ó":{"ha":980,"x_min":33,"x_max":918,"o":"m 78 459 q 130 239 78 337 q 271 85 181 142 q 476 28 361 28 q 682 85 592 28 q 823 239 772 142 q 874 459 874 337 q 823 678 874 581 q 682 832 772 776 q 476 889 592 889 q 271 832 361 889 q 130 678 181 776 q 78 459 78 581 m 33 459 q 67 645 33 559 q 160 797 100 732 q 301 897 220 861 q 476 933 382 933 q 652 897 572 933 q 792 797 732 861 q 885 645 852 732 q 918 459 918 559 q 885 272 918 358 q 792 120 852 185 q 652 19 732 56 q 476 -17 572 -17 q 301 19 382 -17 q 160 120 220 56 q 67 272 100 185 q 33 459 33 358 m 425 956 l 398 990 l 598 1147 l 639 1094 l 425 956 z "},"Ŏ":{"ha":980,"x_min":33,"x_max":918,"o":"m 78 459 q 130 239 78 337 q 271 85 181 142 q 476 28 361 28 q 682 85 592 28 q 823 239 772 142 q 874 459 874 337 q 823 678 874 581 q 682 832 772 776 q 476 889 592 889 q 271 832 361 889 q 130 678 181 776 q 78 459 78 581 m 33 459 q 67 645 33 559 q 160 797 100 732 q 301 897 220 861 q 476 933 382 933 q 652 897 572 933 q 792 797 732 861 q 885 645 852 732 q 918 459 918 559 q 885 272 918 358 q 792 120 852 185 q 652 19 732 56 q 476 -17 572 -17 q 301 19 382 -17 q 160 120 220 56 q 67 272 100 185 q 33 459 33 358 m 476 972 q 392 993 426 972 q 338 1042 357 1013 q 315 1097 318 1071 l 373 1111 q 390 1072 377 1092 q 424 1036 402 1051 q 476 1022 446 1022 q 528 1036 507 1022 q 563 1072 550 1051 q 578 1111 575 1092 l 638 1097 q 616 1043 635 1072 q 561 993 597 1014 q 476 972 526 972 z "},"Ô":{"ha":980,"x_min":33,"x_max":918,"o":"m 78 459 q 130 239 78 337 q 271 85 181 142 q 476 28 361 28 q 682 85 592 28 q 823 239 772 142 q 874 459 874 337 q 823 678 874 581 q 682 832 772 776 q 476 889 592 889 q 271 832 361 889 q 130 678 181 776 q 78 459 78 581 m 33 459 q 67 645 33 559 q 160 797 100 732 q 301 897 220 861 q 476 933 382 933 q 652 897 572 933 q 792 797 732 861 q 885 645 852 732 q 918 459 918 559 q 885 272 918 358 q 792 120 852 185 q 652 19 732 56 q 476 -17 572 -17 q 301 19 382 -17 q 160 120 220 56 q 67 272 100 185 q 33 459 33 358 m 333 978 l 299 1024 l 476 1153 l 653 1023 l 619 977 l 476 1083 l 333 978 z "},"Ố":{"ha":980,"x_min":33,"x_max":918,"o":"m 78 459 q 130 239 78 337 q 271 85 181 142 q 476 28 361 28 q 682 85 592 28 q 823 239 772 142 q 874 459 874 337 q 823 678 874 581 q 682 832 772 776 q 476 889 592 889 q 271 832 361 889 q 130 678 181 776 q 78 459 78 581 m 33 459 q 67 645 33 559 q 160 797 100 732 q 301 897 220 861 q 476 933 382 933 q 652 897 572 933 q 792 797 732 861 q 885 645 852 732 q 918 459 918 559 q 885 272 918 358 q 792 120 852 185 q 652 19 732 56 q 476 -17 572 -17 q 301 19 382 -17 q 160 120 220 56 q 67 272 100 185 q 33 459 33 358 m 620 991 l 476 1097 l 334 992 l 300 1038 l 476 1167 l 653 1037 l 620 991 m 604 1157 l 578 1191 l 776 1348 l 819 1296 l 604 1157 z "},"Ộ":{"ha":980,"x_min":33,"x_max":918,"o":"m 78 459 q 130 239 78 337 q 271 85 181 142 q 476 28 361 28 q 682 85 592 28 q 823 239 772 142 q 874 459 874 337 q 823 678 874 581 q 682 832 772 776 q 476 889 592 889 q 271 832 361 889 q 130 678 181 776 q 78 459 78 581 m 33 459 q 67 645 33 559 q 160 797 100 732 q 301 897 220 861 q 476 933 382 933 q 652 897 572 933 q 792 797 732 861 q 885 645 852 732 q 918 459 918 559 q 885 272 918 358 q 792 120 852 185 q 652 19 732 56 q 476 -17 572 -17 q 301 19 382 -17 q 160 120 220 56 q 67 272 100 185 q 33 459 33 358 m 476 -169 q 440 -153 455 -169 q 425 -118 425 -137 q 440 -82 425 -98 q 476 -67 455 -67 q 511 -82 496 -67 q 527 -118 527 -97 q 511 -154 527 -139 q 476 -169 496 -169 m 333 978 l 299 1024 l 476 1153 l 653 1023 l 619 977 l 476 1083 l 333 978 z "},"Ồ":{"ha":980,"x_min":33,"x_max":918,"o":"m 78 459 q 130 239 78 337 q 271 85 181 142 q 476 28 361 28 q 682 85 592 28 q 823 239 772 142 q 874 459 874 337 q 823 678 874 581 q 682 832 772 776 q 476 889 592 889 q 271 832 361 889 q 130 678 181 776 q 78 459 78 581 m 33 459 q 67 645 33 559 q 160 797 100 732 q 301 897 220 861 q 476 933 382 933 q 652 897 572 933 q 792 797 732 861 q 885 645 852 732 q 918 459 918 559 q 885 272 918 358 q 792 120 852 185 q 652 19 732 56 q 476 -17 572 -17 q 301 19 382 -17 q 160 120 220 56 q 67 272 100 185 q 33 459 33 358 m 624 991 l 480 1097 l 338 992 l 303 1038 l 480 1167 l 657 1037 l 624 991 m 717 1133 l 503 1272 l 544 1324 l 744 1167 l 717 1133 z "},"Ổ":{"ha":980,"x_min":33,"x_max":918,"o":"m 78 459 q 130 239 78 337 q 271 85 181 142 q 476 28 361 28 q 682 85 592 28 q 823 239 772 142 q 874 459 874 337 q 823 678 874 581 q 682 832 772 776 q 476 889 592 889 q 271 832 361 889 q 130 678 181 776 q 78 459 78 581 m 33 459 q 67 645 33 559 q 160 797 100 732 q 301 897 220 861 q 476 933 382 933 q 652 897 572 933 q 792 797 732 861 q 885 645 852 732 q 918 459 918 559 q 885 272 918 358 q 792 120 852 185 q 652 19 732 56 q 476 -17 572 -17 q 301 19 382 -17 q 160 120 220 56 q 67 272 100 185 q 33 459 33 358 m 602 1132 l 576 1168 q 625 1189 595 1173 q 680 1232 656 1204 q 703 1300 703 1260 q 686 1359 703 1341 q 645 1381 669 1376 q 600 1385 622 1385 q 533 1374 570 1385 q 474 1351 495 1362 l 474 1396 q 522 1417 487 1404 q 613 1429 558 1429 q 680 1418 649 1429 q 731 1381 711 1408 q 750 1306 750 1354 q 736 1239 750 1267 q 699 1190 722 1210 q 650 1156 676 1169 q 602 1132 625 1142 m 621 991 l 477 1097 l 335 992 l 301 1038 l 477 1167 l 654 1037 l 621 991 z "},"Ỗ":{"ha":980,"x_min":33,"x_max":918,"o":"m 78 459 q 130 239 78 337 q 271 85 181 142 q 476 28 361 28 q 682 85 592 28 q 823 239 772 142 q 874 459 874 337 q 823 678 874 581 q 682 832 772 776 q 476 889 592 889 q 271 832 361 889 q 130 678 181 776 q 78 459 78 581 m 33 459 q 67 645 33 559 q 160 797 100 732 q 301 897 220 861 q 476 933 382 933 q 652 897 572 933 q 792 797 732 861 q 885 645 852 732 q 918 459 918 559 q 885 272 918 358 q 792 120 852 185 q 652 19 732 56 q 476 -17 572 -17 q 301 19 382 -17 q 160 120 220 56 q 67 272 100 185 q 33 459 33 358 m 269 1201 q 292 1249 276 1224 q 331 1291 308 1274 q 385 1308 355 1308 q 453 1295 427 1308 q 501 1268 478 1281 q 556 1254 524 1254 q 600 1273 584 1254 q 619 1308 615 1291 l 686 1308 q 662 1260 678 1285 q 622 1218 646 1235 q 567 1201 597 1201 q 498 1214 525 1201 q 450 1241 472 1228 q 404 1254 429 1254 q 360 1236 378 1254 q 336 1201 342 1218 l 269 1201 m 617 991 l 474 1097 l 331 992 l 297 1038 l 474 1167 l 651 1037 l 617 991 z "},"Ȍ":{"ha":980,"x_min":33,"x_max":918,"o":"m 78 459 q 130 239 78 337 q 271 85 181 142 q 476 28 361 28 q 682 85 592 28 q 823 239 772 142 q 874 459 874 337 q 823 678 874 581 q 682 832 772 776 q 476 889 592 889 q 271 832 361 889 q 130 678 181 776 q 78 459 78 581 m 33 459 q 67 645 33 559 q 160 797 100 732 q 301 897 220 861 q 476 933 382 933 q 652 897 572 933 q 792 797 732 861 q 885 645 852 732 q 918 459 918 559 q 885 272 918 358 q 792 120 852 185 q 652 19 732 56 q 476 -17 572 -17 q 301 19 382 -17 q 160 120 220 56 q 67 272 100 185 q 33 459 33 358 m 608 952 l 394 1091 l 435 1143 l 635 986 l 608 952 m 378 952 l 165 1091 l 206 1143 l 406 986 l 378 952 z "},"Ö":{"ha":980,"x_min":33,"x_max":918,"o":"m 78 459 q 130 239 78 337 q 271 85 181 142 q 476 28 361 28 q 682 85 592 28 q 823 239 772 142 q 874 459 874 337 q 823 678 874 581 q 682 832 772 776 q 476 889 592 889 q 271 832 361 889 q 130 678 181 776 q 78 459 78 581 m 33 459 q 67 645 33 559 q 160 797 100 732 q 301 897 220 861 q 476 933 382 933 q 652 897 572 933 q 792 797 732 861 q 885 645 852 732 q 918 459 918 559 q 885 272 918 358 q 792 120 852 185 q 652 19 732 56 q 476 -17 572 -17 q 301 19 382 -17 q 160 120 220 56 q 67 272 100 185 q 33 459 33 358 m 608 985 q 572 1001 587 985 q 557 1036 557 1017 q 572 1072 557 1056 q 608 1088 587 1088 q 643 1072 628 1088 q 659 1036 659 1057 q 643 1000 659 1015 q 608 985 628 985 m 344 985 q 309 1001 324 985 q 294 1036 294 1017 q 309 1072 294 1056 q 344 1088 324 1088 q 380 1072 365 1088 q 396 1036 396 1057 q 380 1000 396 1015 q 344 985 365 985 z "},"Ȫ":{"ha":980,"x_min":33,"x_max":918,"o":"m 78 459 q 130 239 78 337 q 271 85 181 142 q 476 28 361 28 q 682 85 592 28 q 823 239 772 142 q 874 459 874 337 q 823 678 874 581 q 682 832 772 776 q 476 889 592 889 q 271 832 361 889 q 130 678 181 776 q 78 459 78 581 m 33 459 q 67 645 33 559 q 160 797 100 732 q 301 897 220 861 q 476 933 382 933 q 652 897 572 933 q 792 797 732 861 q 885 645 852 732 q 918 459 918 559 q 885 272 918 358 q 792 120 852 185 q 652 19 732 56 q 476 -17 572 -17 q 301 19 382 -17 q 160 120 220 56 q 67 272 100 185 q 33 459 33 358 m 608 985 q 572 1001 587 985 q 557 1036 557 1017 q 572 1072 557 1056 q 608 1088 587 1088 q 643 1072 628 1088 q 659 1036 659 1057 q 643 1000 659 1015 q 608 985 628 985 m 344 985 q 309 1001 324 985 q 294 1036 294 1017 q 309 1072 294 1056 q 344 1088 324 1088 q 380 1072 365 1088 q 396 1036 396 1057 q 380 1000 396 1015 q 344 985 365 985 m 291 1189 l 291 1233 l 661 1233 l 661 1189 l 291 1189 z "},"Ȱ":{"ha":980,"x_min":33,"x_max":918,"o":"m 78 459 q 130 239 78 337 q 271 85 181 142 q 476 28 361 28 q 682 85 592 28 q 823 239 772 142 q 874 459 874 337 q 823 678 874 581 q 682 832 772 776 q 476 889 592 889 q 271 832 361 889 q 130 678 181 776 q 78 459 78 581 m 33 459 q 67 645 33 559 q 160 797 100 732 q 301 897 220 861 q 476 933 382 933 q 652 897 572 933 q 792 797 732 861 q 885 645 852 732 q 918 459 918 559 q 885 272 918 358 q 792 120 852 185 q 652 19 732 56 q 476 -17 572 -17 q 301 19 382 -17 q 160 120 220 56 q 67 272 100 185 q 33 459 33 358 m 476 1006 q 440 1022 455 1006 q 425 1057 425 1038 q 440 1093 425 1077 q 476 1108 455 1108 q 511 1093 496 1108 q 527 1057 527 1078 q 511 1021 527 1036 q 476 1006 496 1006 m 291 1203 l 291 1247 l 661 1247 l 661 1203 l 291 1203 z "},"Ọ":{"ha":980,"x_min":33,"x_max":918,"o":"m 78 459 q 130 239 78 337 q 271 85 181 142 q 476 28 361 28 q 682 85 592 28 q 823 239 772 142 q 874 459 874 337 q 823 678 874 581 q 682 832 772 776 q 476 889 592 889 q 271 832 361 889 q 130 678 181 776 q 78 459 78 581 m 33 459 q 67 645 33 559 q 160 797 100 732 q 301 897 220 861 q 476 933 382 933 q 652 897 572 933 q 792 797 732 861 q 885 645 852 732 q 918 459 918 559 q 885 272 918 358 q 792 120 852 185 q 652 19 732 56 q 476 -17 572 -17 q 301 19 382 -17 q 160 120 220 56 q 67 272 100 185 q 33 459 33 358 m 476 -169 q 440 -153 455 -169 q 425 -118 425 -137 q 440 -82 425 -98 q 476 -67 455 -67 q 511 -82 496 -67 q 527 -118 527 -97 q 511 -154 527 -139 q 476 -169 496 -169 z "},"Ò":{"ha":980,"x_min":33,"x_max":918,"o":"m 78 459 q 130 239 78 337 q 271 85 181 142 q 476 28 361 28 q 682 85 592 28 q 823 239 772 142 q 874 459 874 337 q 823 678 874 581 q 682 832 772 776 q 476 889 592 889 q 271 832 361 889 q 130 678 181 776 q 78 459 78 581 m 33 459 q 67 645 33 559 q 160 797 100 732 q 301 897 220 861 q 476 933 382 933 q 652 897 572 933 q 792 797 732 861 q 885 645 852 732 q 918 459 918 559 q 885 272 918 358 q 792 120 852 185 q 652 19 732 56 q 476 -17 572 -17 q 301 19 382 -17 q 160 120 220 56 q 67 272 100 185 q 33 459 33 358 m 515 956 l 301 1094 l 342 1147 l 542 990 l 515 956 z "},"Ỏ":{"ha":980,"x_min":33,"x_max":918,"o":"m 78 459 q 130 239 78 337 q 271 85 181 142 q 476 28 361 28 q 682 85 592 28 q 823 239 772 142 q 874 459 874 337 q 823 678 874 581 q 682 832 772 776 q 476 889 592 889 q 271 832 361 889 q 130 678 181 776 q 78 459 78 581 m 33 459 q 67 645 33 559 q 160 797 100 732 q 301 897 220 861 q 476 933 382 933 q 652 897 572 933 q 792 797 732 861 q 885 645 852 732 q 918 459 918 559 q 885 272 918 358 q 792 120 852 185 q 652 19 732 56 q 476 -17 572 -17 q 301 19 382 -17 q 160 120 220 56 q 67 272 100 185 q 33 459 33 358 m 466 974 l 440 1010 q 489 1028 459 1015 q 543 1064 519 1041 q 567 1121 567 1088 q 550 1175 567 1158 q 509 1195 533 1191 q 464 1199 485 1199 q 397 1188 434 1199 q 338 1165 359 1176 l 338 1210 q 386 1231 351 1218 q 477 1243 422 1243 q 544 1233 513 1243 q 594 1197 575 1222 q 614 1126 614 1172 q 600 1069 614 1093 q 563 1027 585 1044 q 514 996 540 1009 q 466 974 489 983 z "},"Ơ":{"ha":980,"x_min":33,"x_max":949,"o":"m 78 459 q 130 239 78 337 q 271 85 181 142 q 476 28 361 28 q 682 85 592 28 q 823 239 772 142 q 874 459 874 337 q 823 678 874 581 q 682 832 772 776 q 476 889 592 889 q 271 832 361 889 q 130 678 181 776 q 78 459 78 581 m 33 459 q 67 645 33 559 q 160 797 100 732 q 301 897 220 861 q 476 933 382 933 q 652 897 572 933 q 792 797 732 861 q 885 645 852 732 q 918 459 918 559 q 885 272 918 358 q 792 120 852 185 q 652 19 732 56 q 476 -17 572 -17 q 301 19 382 -17 q 160 120 220 56 q 67 272 100 185 q 33 459 33 358 m 821 774 q 782 780 801 774 q 747 796 763 787 l 747 835 q 776 818 757 826 q 815 811 794 811 q 883 841 860 811 q 905 907 905 871 q 901 953 905 938 q 888 988 897 969 l 932 988 q 943 959 938 978 q 949 903 949 940 q 932 842 949 872 q 886 793 915 813 q 821 774 858 774 z "},"Ớ":{"ha":980,"x_min":33,"x_max":949,"o":"m 78 459 q 130 239 78 337 q 271 85 181 142 q 476 28 361 28 q 682 85 592 28 q 823 239 772 142 q 874 459 874 337 q 823 678 874 581 q 682 832 772 776 q 476 889 592 889 q 271 832 361 889 q 130 678 181 776 q 78 459 78 581 m 33 459 q 67 645 33 559 q 160 797 100 732 q 301 897 220 861 q 476 933 382 933 q 652 897 572 933 q 792 797 732 861 q 885 645 852 732 q 918 459 918 559 q 885 272 918 358 q 792 120 852 185 q 652 19 732 56 q 476 -17 572 -17 q 301 19 382 -17 q 160 120 220 56 q 67 272 100 185 q 33 459 33 358 m 821 774 q 782 780 801 774 q 747 796 763 787 l 747 835 q 776 818 757 826 q 815 811 794 811 q 883 841 860 811 q 905 907 905 871 q 901 953 905 938 q 888 988 897 969 l 932 988 q 943 959 938 978 q 949 903 949 940 q 932 842 949 872 q 886 793 915 813 q 821 774 858 774 m 394 1008 l 367 1042 l 566 1199 l 608 1147 l 394 1008 z "},"Ợ":{"ha":980,"x_min":33,"x_max":949,"o":"m 78 459 q 130 239 78 337 q 271 85 181 142 q 476 28 361 28 q 682 85 592 28 q 823 239 772 142 q 874 459 874 337 q 823 678 874 581 q 682 832 772 776 q 476 889 592 889 q 271 832 361 889 q 130 678 181 776 q 78 459 78 581 m 33 459 q 67 645 33 559 q 160 797 100 732 q 301 897 220 861 q 476 933 382 933 q 652 897 572 933 q 792 797 732 861 q 885 645 852 732 q 918 459 918 559 q 885 272 918 358 q 792 120 852 185 q 652 19 732 56 q 476 -17 572 -17 q 301 19 382 -17 q 160 120 220 56 q 67 272 100 185 q 33 459 33 358 m 821 774 q 782 780 801 774 q 747 796 763 787 l 747 835 q 776 818 757 826 q 815 811 794 811 q 883 841 860 811 q 905 907 905 871 q 901 953 905 938 q 888 988 897 969 l 932 988 q 943 959 938 978 q 949 903 949 940 q 932 842 949 872 q 886 793 915 813 q 821 774 858 774 m 476 -210 q 441 -195 456 -210 q 426 -160 426 -179 q 441 -124 426 -140 q 476 -108 456 -108 q 512 -124 497 -108 q 528 -160 528 -139 q 512 -195 528 -181 q 476 -210 497 -210 z "},"Ờ":{"ha":980,"x_min":33,"x_max":949,"o":"m 78 459 q 130 239 78 337 q 271 85 181 142 q 476 28 361 28 q 682 85 592 28 q 823 239 772 142 q 874 459 874 337 q 823 678 874 581 q 682 832 772 776 q 476 889 592 889 q 271 832 361 889 q 130 678 181 776 q 78 459 78 581 m 33 459 q 67 645 33 559 q 160 797 100 732 q 301 897 220 861 q 476 933 382 933 q 652 897 572 933 q 792 797 732 861 q 885 645 852 732 q 918 459 918 559 q 885 272 918 358 q 792 120 852 185 q 652 19 732 56 q 476 -17 572 -17 q 301 19 382 -17 q 160 120 220 56 q 67 272 100 185 q 33 459 33 358 m 821 774 q 782 780 801 774 q 747 796 763 787 l 747 835 q 776 818 757 826 q 815 811 794 811 q 883 841 860 811 q 905 907 905 871 q 901 953 905 938 q 888 988 897 969 l 932 988 q 943 959 938 978 q 949 903 949 940 q 932 842 949 872 q 886 793 915 813 q 821 774 858 774 m 582 1042 l 368 1181 l 409 1233 l 609 1076 l 582 1042 z "},"Ở":{"ha":980,"x_min":33,"x_max":949,"o":"m 78 459 q 130 239 78 337 q 271 85 181 142 q 476 28 361 28 q 682 85 592 28 q 823 239 772 142 q 874 459 874 337 q 823 678 874 581 q 682 832 772 776 q 476 889 592 889 q 271 832 361 889 q 130 678 181 776 q 78 459 78 581 m 33 459 q 67 645 33 559 q 160 797 100 732 q 301 897 220 861 q 476 933 382 933 q 652 897 572 933 q 792 797 732 861 q 885 645 852 732 q 918 459 918 559 q 885 272 918 358 q 792 120 852 185 q 652 19 732 56 q 476 -17 572 -17 q 301 19 382 -17 q 160 120 220 56 q 67 272 100 185 q 33 459 33 358 m 821 774 q 782 780 801 774 q 747 796 763 787 l 747 835 q 776 818 757 826 q 815 811 794 811 q 883 841 860 811 q 905 907 905 871 q 901 953 905 938 q 888 988 897 969 l 932 988 q 943 959 938 978 q 949 903 949 940 q 932 842 949 872 q 886 793 915 813 q 821 774 858 774 m 466 956 l 440 992 q 489 1013 459 997 q 543 1056 519 1028 q 567 1124 567 1084 q 550 1183 567 1165 q 509 1205 533 1201 q 464 1210 485 1210 q 397 1198 434 1210 q 338 1176 359 1186 l 338 1220 q 386 1241 351 1228 q 477 1253 422 1253 q 544 1243 513 1253 q 594 1205 575 1232 q 614 1130 614 1178 q 600 1063 614 1092 q 563 1014 585 1035 q 514 980 540 994 q 466 956 489 966 z "},"Ỡ":{"ha":980,"x_min":33,"x_max":949,"o":"m 78 459 q 130 239 78 337 q 271 85 181 142 q 476 28 361 28 q 682 85 592 28 q 823 239 772 142 q 874 459 874 337 q 823 678 874 581 q 682 832 772 776 q 476 889 592 889 q 271 832 361 889 q 130 678 181 776 q 78 459 78 581 m 33 459 q 67 645 33 559 q 160 797 100 732 q 301 897 220 861 q 476 933 382 933 q 652 897 572 933 q 792 797 732 861 q 885 645 852 732 q 918 459 918 559 q 885 272 918 358 q 792 120 852 185 q 652 19 732 56 q 476 -17 572 -17 q 301 19 382 -17 q 160 120 220 56 q 67 272 100 185 q 33 459 33 358 m 821 774 q 782 780 801 774 q 747 796 763 787 l 747 835 q 776 818 757 826 q 815 811 794 811 q 883 841 860 811 q 905 907 905 871 q 901 953 905 938 q 888 988 897 969 l 932 988 q 943 959 938 978 q 949 903 949 940 q 932 842 949 872 q 886 793 915 813 q 821 774 858 774 m 279 1058 q 302 1107 286 1082 q 341 1149 317 1131 q 395 1166 365 1166 q 463 1152 437 1166 q 511 1125 488 1139 q 565 1112 533 1112 q 609 1130 594 1112 q 629 1166 625 1149 l 696 1166 q 672 1118 688 1143 q 631 1076 656 1093 q 576 1058 607 1058 q 508 1072 535 1058 q 460 1099 481 1085 q 414 1112 439 1112 q 370 1094 388 1112 q 346 1058 352 1076 l 279 1058 z "},"Ő":{"ha":958,"x_min":33,"x_max":918,"o":"m 78 459 q 130 239 78 337 q 271 85 181 142 q 476 28 361 28 q 682 85 592 28 q 823 239 772 142 q 874 459 874 337 q 823 678 874 581 q 682 832 772 776 q 476 889 592 889 q 271 832 361 889 q 130 678 181 776 q 78 459 78 581 m 33 459 q 67 645 33 559 q 160 797 100 732 q 301 897 220 861 q 476 933 382 933 q 652 897 572 933 q 792 797 732 861 q 885 645 852 732 q 918 459 918 559 q 885 272 918 358 q 792 120 852 185 q 652 19 732 56 q 476 -17 572 -17 q 301 19 382 -17 q 160 120 220 56 q 67 272 100 185 q 33 459 33 358 m 578 1037 l 551 1063 l 733 1256 l 776 1201 l 578 1037 m 339 1037 l 311 1063 l 493 1256 l 536 1201 l 339 1037 z "},"Ȏ":{"ha":980,"x_min":33,"x_max":918,"o":"m 78 459 q 130 239 78 337 q 271 85 181 142 q 476 28 361 28 q 682 85 592 28 q 823 239 772 142 q 874 459 874 337 q 823 678 874 581 q 682 832 772 776 q 476 889 592 889 q 271 832 361 889 q 130 678 181 776 q 78 459 78 581 m 33 459 q 67 645 33 559 q 160 797 100 732 q 301 897 220 861 q 476 933 382 933 q 652 897 572 933 q 792 797 732 861 q 885 645 852 732 q 918 459 918 559 q 885 272 918 358 q 792 120 852 185 q 652 19 732 56 q 476 -17 572 -17 q 301 19 382 -17 q 160 120 220 56 q 67 272 100 185 q 33 459 33 358 m 374 1033 l 315 1048 q 336 1101 317 1072 q 391 1151 356 1131 q 476 1172 426 1172 q 560 1152 526 1172 q 615 1102 595 1131 q 637 1048 634 1074 l 579 1033 q 563 1073 576 1053 q 528 1108 550 1094 q 476 1122 506 1122 q 424 1108 445 1122 q 390 1073 402 1094 q 374 1033 378 1053 z "},"Ō":{"ha":980,"x_min":33,"x_max":918,"o":"m 78 459 q 130 239 78 337 q 271 85 181 142 q 476 28 361 28 q 682 85 592 28 q 823 239 772 142 q 874 459 874 337 q 823 678 874 581 q 682 832 772 776 q 476 889 592 889 q 271 832 361 889 q 130 678 181 776 q 78 459 78 581 m 33 459 q 67 645 33 559 q 160 797 100 732 q 301 897 220 861 q 476 933 382 933 q 652 897 572 933 q 792 797 732 861 q 885 645 852 732 q 918 459 918 559 q 885 272 918 358 q 792 120 852 185 q 652 19 732 56 q 476 -17 572 -17 q 301 19 382 -17 q 160 120 220 56 q 67 272 100 185 q 33 459 33 358 m 303 1095 l 303 1140 l 674 1140 l 674 1095 l 303 1095 z "},"Ǫ":{"ha":980,"x_min":33,"x_max":918,"o":"m 78 459 q 130 239 78 337 q 271 85 181 142 q 476 28 361 28 q 682 85 592 28 q 823 239 772 142 q 874 459 874 337 q 823 678 874 581 q 682 832 772 776 q 476 889 592 889 q 271 832 361 889 q 130 678 181 776 q 78 459 78 581 m 33 459 q 67 645 33 559 q 160 797 100 732 q 301 897 220 861 q 476 933 382 933 q 652 897 572 933 q 792 797 732 861 q 885 645 852 732 q 918 459 918 559 q 885 272 918 358 q 792 120 852 185 q 652 19 732 56 q 476 -17 572 -17 q 301 19 382 -17 q 160 120 220 56 q 67 272 100 185 q 33 459 33 358 m 568 -292 q 508 -283 539 -292 q 455 -247 476 -273 q 433 -174 433 -222 q 454 -99 433 -137 q 505 -27 475 -60 q 563 28 535 6 l 593 0 q 545 -49 571 -20 q 502 -110 520 -78 q 485 -170 485 -142 q 514 -234 485 -217 q 581 -250 542 -250 q 642 -233 615 -250 q 682 -197 669 -216 l 720 -226 q 660 -272 704 -252 q 568 -292 615 -292 z "},"Ø":{"ha":958,"x_min":17,"x_max":929,"o":"m 898 908 l 929 879 l 48 -15 l 17 15 l 898 908 m 78 459 q 130 239 78 337 q 271 85 181 142 q 476 28 361 28 q 682 85 592 28 q 823 239 772 142 q 874 459 874 337 q 823 678 874 581 q 682 832 772 776 q 476 889 592 889 q 271 832 361 889 q 130 678 181 776 q 78 459 78 581 m 33 459 q 67 645 33 559 q 160 797 100 732 q 301 897 220 861 q 476 933 382 933 q 652 897 572 933 q 792 797 732 861 q 885 645 852 732 q 918 459 918 559 q 885 272 918 358 q 792 120 852 185 q 652 19 732 56 q 476 -17 572 -17 q 301 19 382 -17 q 160 120 220 56 q 67 272 100 185 q 33 459 33 358 z "},"Ǿ":{"ha":958,"x_min":17,"x_max":929,"o":"m 898 908 l 929 879 l 48 -15 l 17 15 l 898 908 m 78 459 q 130 239 78 337 q 271 85 181 142 q 476 28 361 28 q 682 85 592 28 q 823 239 772 142 q 874 459 874 337 q 823 678 874 581 q 682 832 772 776 q 476 889 592 889 q 271 832 361 889 q 130 678 181 776 q 78 459 78 581 m 33 459 q 67 645 33 559 q 160 797 100 732 q 301 897 220 861 q 476 933 382 933 q 652 897 572 933 q 792 797 732 861 q 885 645 852 732 q 918 459 918 559 q 885 272 918 358 q 792 120 852 185 q 652 19 732 56 q 476 -17 572 -17 q 301 19 382 -17 q 160 120 220 56 q 67 272 100 185 q 33 459 33 358 m 394 1008 l 367 1042 l 566 1199 l 608 1147 l 394 1008 z "},"Õ":{"ha":980,"x_min":33,"x_max":918,"o":"m 78 459 q 130 239 78 337 q 271 85 181 142 q 476 28 361 28 q 682 85 592 28 q 823 239 772 142 q 874 459 874 337 q 823 678 874 581 q 682 832 772 776 q 476 889 592 889 q 271 832 361 889 q 130 678 181 776 q 78 459 78 581 m 33 459 q 67 645 33 559 q 160 797 100 732 q 301 897 220 861 q 476 933 382 933 q 652 897 572 933 q 792 797 732 861 q 885 645 852 732 q 918 459 918 559 q 885 272 918 358 q 792 120 852 185 q 652 19 732 56 q 476 -17 572 -17 q 301 19 382 -17 q 160 120 220 56 q 67 272 100 185 q 33 459 33 358 m 279 1058 q 302 1107 286 1082 q 341 1149 317 1131 q 395 1166 365 1166 q 463 1152 437 1166 q 511 1125 488 1139 q 565 1112 533 1112 q 609 1130 594 1112 q 629 1166 625 1149 l 696 1166 q 672 1118 688 1143 q 631 1076 656 1093 q 576 1058 607 1058 q 508 1072 535 1058 q 460 1099 481 1085 q 414 1112 439 1112 q 370 1094 388 1112 q 346 1058 352 1076 l 279 1058 z "},"Ȭ":{"ha":980,"x_min":33,"x_max":918,"o":"m 78 459 q 130 239 78 337 q 271 85 181 142 q 476 28 361 28 q 682 85 592 28 q 823 239 772 142 q 874 459 874 337 q 823 678 874 581 q 682 832 772 776 q 476 889 592 889 q 271 832 361 889 q 130 678 181 776 q 78 459 78 581 m 33 459 q 67 645 33 559 q 160 797 100 732 q 301 897 220 861 q 476 933 382 933 q 652 897 572 933 q 792 797 732 861 q 885 645 852 732 q 918 459 918 559 q 885 272 918 358 q 792 120 852 185 q 652 19 732 56 q 476 -17 572 -17 q 301 19 382 -17 q 160 120 220 56 q 67 272 100 185 q 33 459 33 358 m 279 1058 q 302 1107 286 1082 q 341 1149 317 1131 q 395 1166 365 1166 q 463 1152 437 1166 q 511 1125 488 1139 q 565 1112 533 1112 q 609 1130 594 1112 q 629 1166 625 1149 l 696 1166 q 672 1118 688 1143 q 631 1076 656 1093 q 576 1058 607 1058 q 508 1072 535 1058 q 460 1099 481 1085 q 414 1112 439 1112 q 370 1094 388 1112 q 346 1058 352 1076 l 279 1058 m 306 1256 l 306 1300 l 676 1300 l 676 1256 l 306 1256 z "},"Œ":{"ha":1071,"x_min":49,"x_max":965,"o":"m 470 0 q 288 34 367 0 q 156 129 209 67 q 76 274 103 190 q 49 459 49 358 q 79 643 49 559 q 165 788 109 727 q 298 883 221 849 q 470 917 376 917 l 965 917 l 965 872 l 553 872 l 553 482 l 952 482 l 952 438 l 553 438 l 553 44 l 965 44 l 965 0 l 470 0 m 463 40 l 511 40 l 511 879 l 463 879 q 265 822 347 879 q 138 669 182 765 q 94 459 94 574 q 136 249 94 344 q 259 97 177 154 q 463 40 341 40 z "},"P":{"ha":679,"x_min":104,"x_max":601,"o":"m 104 917 l 301 917 q 453 891 385 917 q 561 808 521 865 q 601 654 601 751 q 561 498 601 558 q 453 410 521 438 q 301 382 385 382 l 148 382 l 148 0 l 104 0 l 104 917 m 148 426 l 290 426 q 424 448 363 426 q 520 519 484 469 q 557 654 557 569 q 520 787 557 740 q 424 853 484 834 q 290 872 363 872 l 148 872 l 148 426 z "},"Þ":{"ha":668,"x_min":93,"x_max":600,"o":"m 93 917 l 135 917 l 135 747 l 337 747 q 474 716 415 747 q 567 622 533 685 q 600 465 600 560 q 567 305 600 370 q 474 205 533 239 q 337 170 415 170 l 135 170 l 135 0 l 93 0 l 93 917 m 135 213 l 333 213 q 497 279 437 213 q 558 467 558 345 q 497 646 558 589 q 333 703 437 703 l 135 703 l 135 213 z "},"Q":{"ha":958,"x_min":33,"x_max":918,"o":"m 739 -62 q 807 -53 779 -62 q 851 -35 835 -44 q 868 -24 867 -26 l 900 -65 q 847 -91 886 -74 q 735 -109 808 -109 q 656 -99 690 -109 q 593 -77 622 -90 q 535 -54 565 -64 q 467 -44 505 -44 q 390 -61 424 -44 q 334 -95 356 -78 q 311 -115 313 -112 l 276 -76 q 365 -20 322 -41 q 469 0 408 0 q 562 -16 520 0 q 646 -47 604 -31 q 739 -62 688 -62 m 78 459 q 130 239 78 337 q 271 85 181 142 q 476 28 361 28 q 682 85 592 28 q 823 239 772 142 q 874 459 874 337 q 823 678 874 581 q 682 832 772 776 q 476 889 592 889 q 271 832 361 889 q 130 678 181 776 q 78 459 78 581 m 33 459 q 67 645 33 559 q 160 797 100 732 q 301 897 220 861 q 476 933 382 933 q 652 897 572 933 q 792 797 732 861 q 885 645 852 732 q 918 459 918 559 q 885 272 918 358 q 792 120 852 185 q 652 19 732 56 q 476 -17 572 -17 q 301 19 382 -17 q 160 120 220 56 q 67 272 100 185 q 33 459 33 358 z "},"R":{"ha":726,"x_min":96,"x_max":646,"o":"m 96 917 l 371 917 q 500 888 440 917 q 595 802 559 859 q 632 663 632 746 q 596 523 632 579 q 509 438 560 467 q 415 410 458 410 l 646 0 l 594 0 l 370 407 l 139 407 l 139 0 l 96 0 l 96 917 m 139 449 l 357 449 q 524 501 461 449 q 588 663 588 554 q 524 822 588 771 q 357 872 461 872 l 139 872 l 139 449 z "},"Ŕ":{"ha":726,"x_min":96,"x_max":646,"o":"m 96 917 l 371 917 q 500 888 440 917 q 595 802 559 859 q 632 663 632 746 q 596 523 632 579 q 509 438 560 467 q 415 410 458 410 l 646 0 l 594 0 l 370 407 l 139 407 l 139 0 l 96 0 l 96 917 m 139 449 l 357 449 q 524 501 461 449 q 588 663 588 554 q 524 822 588 771 q 357 872 461 872 l 139 872 l 139 449 m 282 956 l 255 990 l 455 1147 l 496 1094 l 282 956 z "},"Ř":{"ha":726,"x_min":96,"x_max":646,"o":"m 96 917 l 371 917 q 500 888 440 917 q 595 802 559 859 q 632 663 632 746 q 596 523 632 579 q 509 438 560 467 q 415 410 458 410 l 646 0 l 594 0 l 370 407 l 139 407 l 139 0 l 96 0 l 96 917 m 139 449 l 357 449 q 524 501 461 449 q 588 663 588 554 q 524 822 588 771 q 357 872 461 872 l 139 872 l 139 449 m 333 988 l 179 1100 l 209 1140 l 333 1050 l 459 1141 l 488 1101 l 333 988 z "},"Ŗ":{"ha":726,"x_min":96,"x_max":646,"o":"m 96 917 l 371 917 q 500 888 440 917 q 595 802 559 859 q 632 663 632 746 q 596 523 632 579 q 509 438 560 467 q 415 410 458 410 l 646 0 l 594 0 l 370 407 l 139 407 l 139 0 l 96 0 l 96 917 m 139 449 l 357 449 q 524 501 461 449 q 588 663 588 554 q 524 822 588 771 q 357 872 461 872 l 139 872 l 139 449 m 303 -281 l 274 -256 q 321 -226 297 -247 q 351 -178 346 -205 q 325 -184 339 -184 q 287 -167 302 -184 q 272 -132 272 -151 q 288 -89 272 -105 q 331 -73 305 -73 q 376 -92 357 -73 q 394 -137 394 -110 q 382 -199 394 -171 q 348 -247 369 -226 q 303 -281 327 -268 z "},"Ȑ":{"ha":726,"x_min":22,"x_max":646,"o":"m 96 917 l 371 917 q 500 888 440 917 q 595 802 559 859 q 632 663 632 746 q 596 523 632 579 q 509 438 560 467 q 415 410 458 410 l 646 0 l 594 0 l 370 407 l 139 407 l 139 0 l 96 0 l 96 917 m 139 449 l 357 449 q 524 501 461 449 q 588 663 588 554 q 524 822 588 771 q 357 872 461 872 l 139 872 l 139 449 m 465 952 l 251 1091 l 292 1143 l 492 986 l 465 952 m 235 952 l 22 1091 l 63 1143 l 263 986 l 235 952 z "},"Ȓ":{"ha":726,"x_min":96,"x_max":646,"o":"m 96 917 l 371 917 q 500 888 440 917 q 595 802 559 859 q 632 663 632 746 q 596 523 632 579 q 509 438 560 467 q 415 410 458 410 l 646 0 l 594 0 l 370 407 l 139 407 l 139 0 l 96 0 l 96 917 m 139 449 l 357 449 q 524 501 461 449 q 588 663 588 554 q 524 822 588 771 q 357 872 461 872 l 139 872 l 139 449 m 231 978 l 172 993 q 194 1047 175 1017 q 248 1097 213 1076 q 333 1117 283 1117 q 418 1097 383 1117 q 472 1048 453 1076 q 494 993 492 1019 l 437 978 q 420 1018 433 998 q 386 1053 408 1039 q 333 1067 364 1067 q 281 1053 303 1067 q 248 1018 260 1039 q 231 978 235 998 z "},"S":{"ha":697,"x_min":47,"x_max":617,"o":"m 337 933 q 462 916 411 933 q 542 878 513 898 q 574 853 570 859 l 547 815 q 510 842 536 824 q 442 874 485 860 q 339 889 400 889 q 184 847 240 889 q 128 730 128 804 q 157 643 128 680 q 236 576 187 606 q 346 518 286 547 q 438 471 391 497 q 526 411 485 445 q 592 331 567 376 q 617 224 617 285 q 596 129 617 173 q 537 52 576 85 q 445 1 499 19 q 324 -17 391 -17 q 188 3 249 -17 q 88 45 126 24 q 47 69 50 66 l 78 110 q 107 89 87 103 q 159 61 128 76 q 233 38 190 47 q 328 28 275 28 q 507 84 446 28 q 569 226 569 141 q 529 340 569 293 q 430 422 490 387 q 310 485 371 456 q 193 551 245 517 q 110 628 141 585 q 80 731 80 672 q 113 835 80 789 q 205 907 147 881 q 337 933 263 933 z "},"Ś":{"ha":697,"x_min":47,"x_max":617,"o":"m 337 933 q 462 916 411 933 q 542 878 513 898 q 574 853 570 859 l 547 815 q 510 842 536 824 q 442 874 485 860 q 339 889 400 889 q 184 847 240 889 q 128 730 128 804 q 157 643 128 680 q 236 576 187 606 q 346 518 286 547 q 438 471 391 497 q 526 411 485 445 q 592 331 567 376 q 617 224 617 285 q 596 129 617 173 q 537 52 576 85 q 445 1 499 19 q 324 -17 391 -17 q 188 3 249 -17 q 88 45 126 24 q 47 69 50 66 l 78 110 q 107 89 87 103 q 159 61 128 76 q 233 38 190 47 q 328 28 275 28 q 507 84 446 28 q 569 226 569 141 q 529 340 569 293 q 430 422 490 387 q 310 485 371 456 q 193 551 245 517 q 110 628 141 585 q 80 731 80 672 q 113 835 80 789 q 205 907 147 881 q 337 933 263 933 m 283 956 l 256 990 l 456 1147 l 497 1094 l 283 956 z "},"Š":{"ha":697,"x_min":47,"x_max":617,"o":"m 337 933 q 462 916 411 933 q 542 878 513 898 q 574 853 570 859 l 547 815 q 510 842 536 824 q 442 874 485 860 q 339 889 400 889 q 184 847 240 889 q 128 730 128 804 q 157 643 128 680 q 236 576 187 606 q 346 518 286 547 q 438 471 391 497 q 526 411 485 445 q 592 331 567 376 q 617 224 617 285 q 596 129 617 173 q 537 52 576 85 q 445 1 499 19 q 324 -17 391 -17 q 188 3 249 -17 q 88 45 126 24 q 47 69 50 66 l 78 110 q 107 89 87 103 q 159 61 128 76 q 233 38 190 47 q 328 28 275 28 q 507 84 446 28 q 569 226 569 141 q 529 340 569 293 q 430 422 490 387 q 310 485 371 456 q 193 551 245 517 q 110 628 141 585 q 80 731 80 672 q 113 835 80 789 q 205 907 147 881 q 337 933 263 933 m 335 988 l 181 1100 l 210 1140 l 335 1050 l 460 1141 l 489 1101 l 335 988 z "},"Ş":{"ha":697,"x_min":47,"x_max":617,"o":"m 337 933 q 462 916 411 933 q 542 878 513 898 q 574 853 570 859 l 547 815 q 510 842 536 824 q 442 874 485 860 q 339 889 400 889 q 184 847 240 889 q 128 730 128 804 q 157 643 128 680 q 236 576 187 606 q 346 518 286 547 q 438 471 391 497 q 526 411 485 445 q 592 331 567 376 q 617 224 617 285 q 596 129 617 173 q 537 52 576 85 q 445 1 499 19 q 324 -17 391 -17 q 188 3 249 -17 q 88 45 126 24 q 47 69 50 66 l 78 110 q 107 89 87 103 q 159 61 128 76 q 233 38 190 47 q 328 28 275 28 q 507 84 446 28 q 569 226 569 141 q 529 340 569 293 q 430 422 490 387 q 310 485 371 456 q 193 551 245 517 q 110 628 141 585 q 80 731 80 672 q 113 835 80 789 q 205 907 147 881 q 337 933 263 933 m 325 -291 q 251 -279 286 -291 q 199 -256 216 -267 l 228 -218 q 268 -238 242 -228 q 325 -249 295 -249 q 394 -231 366 -249 q 423 -185 423 -214 q 404 -143 423 -156 q 353 -129 385 -129 q 312 -132 331 -129 q 283 -139 292 -135 l 254 -124 l 307 29 l 345 10 l 307 -101 q 374 -94 335 -91 q 442 -116 413 -97 q 471 -176 471 -135 q 448 -240 471 -215 q 392 -278 426 -266 q 325 -291 358 -291 z "},"Ŝ":{"ha":697,"x_min":47,"x_max":617,"o":"m 337 933 q 462 916 411 933 q 542 878 513 898 q 574 853 570 859 l 547 815 q 510 842 536 824 q 442 874 485 860 q 339 889 400 889 q 184 847 240 889 q 128 730 128 804 q 157 643 128 680 q 236 576 187 606 q 346 518 286 547 q 438 471 391 497 q 526 411 485 445 q 592 331 567 376 q 617 224 617 285 q 596 129 617 173 q 537 52 576 85 q 445 1 499 19 q 324 -17 391 -17 q 188 3 249 -17 q 88 45 126 24 q 47 69 50 66 l 78 110 q 107 89 87 103 q 159 61 128 76 q 233 38 190 47 q 328 28 275 28 q 507 84 446 28 q 569 226 569 141 q 529 340 569 293 q 430 422 490 387 q 310 485 371 456 q 193 551 245 517 q 110 628 141 585 q 80 731 80 672 q 113 835 80 789 q 205 907 147 881 q 337 933 263 933 m 192 978 l 158 1024 l 334 1153 l 511 1023 l 478 977 l 334 1083 l 192 978 z "},"Ș":{"ha":697,"x_min":47,"x_max":617,"o":"m 337 933 q 462 916 411 933 q 542 878 513 898 q 574 853 570 859 l 547 815 q 510 842 536 824 q 442 874 485 860 q 339 889 400 889 q 184 847 240 889 q 128 730 128 804 q 157 643 128 680 q 236 576 187 606 q 346 518 286 547 q 438 471 391 497 q 526 411 485 445 q 592 331 567 376 q 617 224 617 285 q 596 129 617 173 q 537 52 576 85 q 445 1 499 19 q 324 -17 391 -17 q 188 3 249 -17 q 88 45 126 24 q 47 69 50 66 l 78 110 q 107 89 87 103 q 159 61 128 76 q 233 38 190 47 q 328 28 275 28 q 507 84 446 28 q 569 226 569 141 q 529 340 569 293 q 430 422 490 387 q 310 485 371 456 q 193 551 245 517 q 110 628 141 585 q 80 731 80 672 q 113 835 80 789 q 205 907 147 881 q 337 933 263 933 m 304 -281 l 276 -256 q 323 -226 298 -247 q 352 -178 347 -205 q 326 -184 340 -184 q 288 -167 303 -184 q 273 -132 273 -151 q 290 -89 273 -105 q 332 -73 306 -73 q 377 -92 358 -73 q 396 -137 396 -110 q 383 -199 396 -171 q 349 -247 370 -226 q 304 -281 328 -268 z "},"ẞ":{"ha":831,"x_min":88,"x_max":746,"o":"m 283 65 q 370 41 321 51 q 463 32 419 32 q 643 98 587 32 q 700 265 700 165 q 625 438 700 382 q 378 465 550 493 l 378 517 l 615 874 q 517 891 569 885 q 424 897 466 897 q 257 866 322 897 q 162 769 192 836 q 132 591 132 702 l 132 0 l 88 0 l 88 613 q 127 801 88 730 q 240 906 166 873 q 417 939 313 939 q 491 935 452 939 q 572 925 529 932 q 663 909 615 919 l 659 865 l 426 511 q 542 510 485 518 q 645 476 599 503 q 718 399 691 449 q 746 272 746 349 q 709 116 746 179 q 608 20 672 52 q 467 -12 545 -12 q 283 18 358 -12 l 283 65 z "},"Ə":{"ha":914,"x_min":33,"x_max":852,"o":"m 433 -9 q 268 28 342 -9 q 142 129 194 65 q 61 278 90 194 q 33 457 33 362 q 34 465 33 461 q 34 473 34 469 q 35 480 35 477 l 804 480 q 759 700 804 608 q 632 841 714 792 q 437 890 549 890 q 302 868 360 890 q 203 813 244 845 q 138 749 162 780 q 107 701 114 718 l 65 729 q 134 817 83 769 q 263 899 185 865 q 439 933 341 933 q 655 880 563 933 q 800 724 748 826 q 852 476 852 622 q 802 230 852 340 q 658 56 752 120 q 433 -9 565 -9 m 433 35 q 592 69 523 35 q 707 161 660 103 q 777 289 753 218 q 801 435 801 360 l 82 435 q 106 291 82 363 q 174 162 129 220 q 285 70 219 104 q 433 35 350 35 z "},"T":{"ha":668,"x_min":26,"x_max":615,"o":"m 298 872 l 26 872 l 26 917 l 615 917 l 615 872 l 342 872 l 342 0 l 298 0 l 298 872 z "},"Ŧ":{"ha":668,"x_min":26,"x_max":615,"o":"m 37 531 l 599 531 l 599 487 l 37 487 l 37 531 m 298 872 l 26 872 l 26 917 l 615 917 l 615 872 l 342 872 l 342 0 l 298 0 l 298 872 z "},"Ť":{"ha":668,"x_min":26,"x_max":615,"o":"m 298 872 l 26 872 l 26 917 l 615 917 l 615 872 l 342 872 l 342 0 l 298 0 l 298 872 m 320 988 l 166 1100 l 196 1140 l 320 1050 l 446 1141 l 474 1101 l 320 988 z "},"Ţ":{"ha":668,"x_min":26,"x_max":615,"o":"m 298 872 l 26 872 l 26 917 l 615 917 l 615 872 l 342 872 l 342 0 l 298 0 l 298 872 m 318 -291 q 244 -279 279 -291 q 192 -256 209 -267 l 222 -218 q 261 -238 235 -228 q 318 -249 288 -249 q 388 -231 359 -249 q 416 -185 416 -214 q 397 -143 416 -156 q 346 -129 378 -129 q 305 -132 324 -129 q 276 -139 285 -135 l 247 -124 l 300 29 l 338 10 l 300 -101 q 367 -94 328 -91 q 435 -116 406 -97 q 464 -176 464 -135 q 441 -240 464 -215 q 385 -278 419 -266 q 318 -291 351 -291 z "},"Ț":{"ha":668,"x_min":26,"x_max":615,"o":"m 298 872 l 26 872 l 26 917 l 615 917 l 615 872 l 342 872 l 342 0 l 298 0 l 298 872 m 290 -281 l 261 -256 q 308 -226 283 -247 q 338 -178 333 -205 q 312 -184 326 -184 q 274 -167 289 -184 q 258 -132 258 -151 q 275 -89 258 -105 q 317 -73 292 -73 q 363 -92 344 -73 q 381 -137 381 -110 q 368 -199 381 -171 q 335 -247 356 -226 q 290 -281 314 -268 z "},"U":{"ha":846,"x_min":78,"x_max":746,"o":"m 702 917 l 746 917 l 746 342 q 700 149 746 229 q 578 26 654 68 q 413 -17 503 -17 q 246 26 322 -17 q 124 149 169 68 q 78 342 78 229 l 78 917 l 121 917 l 121 344 q 160 178 121 249 q 266 67 200 107 q 413 28 333 28 q 558 67 492 28 q 663 178 624 107 q 702 344 702 249 l 702 917 z "},"Ú":{"ha":846,"x_min":78,"x_max":746,"o":"m 702 917 l 746 917 l 746 342 q 700 149 746 229 q 578 26 654 68 q 413 -17 503 -17 q 246 26 322 -17 q 124 149 169 68 q 78 342 78 229 l 78 917 l 121 917 l 121 344 q 160 178 121 249 q 266 67 200 107 q 413 28 333 28 q 558 67 492 28 q 663 178 624 107 q 702 344 702 249 l 702 917 m 361 956 l 334 990 l 534 1147 l 575 1094 l 361 956 z "},"Ŭ":{"ha":846,"x_min":78,"x_max":746,"o":"m 702 917 l 746 917 l 746 342 q 700 149 746 229 q 578 26 654 68 q 413 -17 503 -17 q 246 26 322 -17 q 124 149 169 68 q 78 342 78 229 l 78 917 l 121 917 l 121 344 q 160 178 121 249 q 266 67 200 107 q 413 28 333 28 q 558 67 492 28 q 663 178 624 107 q 702 344 702 249 l 702 917 m 413 972 q 328 993 363 972 q 274 1042 293 1013 q 251 1097 254 1071 l 309 1111 q 326 1072 313 1092 q 360 1036 338 1051 q 413 1022 382 1022 q 465 1036 443 1022 q 499 1072 486 1051 q 515 1111 511 1092 l 574 1097 q 552 1043 571 1072 q 498 993 533 1014 q 413 972 463 972 z "},"Û":{"ha":846,"x_min":78,"x_max":746,"o":"m 702 917 l 746 917 l 746 342 q 700 149 746 229 q 578 26 654 68 q 413 -17 503 -17 q 246 26 322 -17 q 124 149 169 68 q 78 342 78 229 l 78 917 l 121 917 l 121 344 q 160 178 121 249 q 266 67 200 107 q 413 28 333 28 q 558 67 492 28 q 663 178 624 107 q 702 344 702 249 l 702 917 m 269 978 l 235 1024 l 412 1153 l 589 1023 l 556 977 l 412 1083 l 269 978 z "},"Ȕ":{"ha":846,"x_min":78,"x_max":746,"o":"m 702 917 l 746 917 l 746 342 q 700 149 746 229 q 578 26 654 68 q 413 -17 503 -17 q 246 26 322 -17 q 124 149 169 68 q 78 342 78 229 l 78 917 l 121 917 l 121 344 q 160 178 121 249 q 266 67 200 107 q 413 28 333 28 q 558 67 492 28 q 663 178 624 107 q 702 344 702 249 l 702 917 m 544 952 l 330 1091 l 371 1143 l 571 986 l 544 952 m 315 952 l 101 1091 l 142 1143 l 342 986 l 315 952 z "},"Ü":{"ha":846,"x_min":78,"x_max":746,"o":"m 702 917 l 746 917 l 746 342 q 700 149 746 229 q 578 26 654 68 q 413 -17 503 -17 q 246 26 322 -17 q 124 149 169 68 q 78 342 78 229 l 78 917 l 121 917 l 121 344 q 160 178 121 249 q 266 67 200 107 q 413 28 333 28 q 558 67 492 28 q 663 178 624 107 q 702 344 702 249 l 702 917 m 544 985 q 508 1001 523 985 q 493 1036 493 1017 q 508 1072 493 1056 q 544 1088 523 1088 q 580 1072 564 1088 q 595 1036 595 1057 q 580 1000 595 1015 q 544 985 564 985 m 281 985 q 245 1001 260 985 q 230 1036 230 1017 q 245 1072 230 1056 q 281 1088 260 1088 q 316 1072 301 1088 q 332 1036 332 1057 q 316 1000 332 1015 q 281 985 301 985 z "},"Ụ":{"ha":846,"x_min":78,"x_max":746,"o":"m 702 917 l 746 917 l 746 342 q 700 149 746 229 q 578 26 654 68 q 413 -17 503 -17 q 246 26 322 -17 q 124 149 169 68 q 78 342 78 229 l 78 917 l 121 917 l 121 344 q 160 178 121 249 q 266 67 200 107 q 413 28 333 28 q 558 67 492 28 q 663 178 624 107 q 702 344 702 249 l 702 917 m 412 -169 q 376 -153 391 -169 q 361 -118 361 -137 q 376 -82 361 -98 q 412 -67 391 -67 q 448 -82 432 -67 q 463 -118 463 -97 q 448 -154 463 -139 q 412 -169 432 -169 z "},"Ù":{"ha":846,"x_min":78,"x_max":746,"o":"m 702 917 l 746 917 l 746 342 q 700 149 746 229 q 578 26 654 68 q 413 -17 503 -17 q 246 26 322 -17 q 124 149 169 68 q 78 342 78 229 l 78 917 l 121 917 l 121 344 q 160 178 121 249 q 266 67 200 107 q 413 28 333 28 q 558 67 492 28 q 663 178 624 107 q 702 344 702 249 l 702 917 m 451 956 l 238 1094 l 278 1147 l 478 990 l 451 956 z "},"Ủ":{"ha":846,"x_min":78,"x_max":746,"o":"m 702 917 l 746 917 l 746 342 q 700 149 746 229 q 578 26 654 68 q 413 -17 503 -17 q 246 26 322 -17 q 124 149 169 68 q 78 342 78 229 l 78 917 l 121 917 l 121 344 q 160 178 121 249 q 266 67 200 107 q 413 28 333 28 q 558 67 492 28 q 663 178 624 107 q 702 344 702 249 l 702 917 m 402 974 l 376 1010 q 425 1028 395 1015 q 480 1064 456 1041 q 503 1121 503 1088 q 486 1175 503 1158 q 445 1195 469 1191 q 400 1199 422 1199 q 333 1188 370 1199 q 274 1165 295 1176 l 274 1210 q 322 1231 287 1218 q 413 1243 358 1243 q 480 1233 449 1243 q 531 1197 511 1222 q 550 1126 550 1172 q 536 1069 550 1093 q 499 1027 522 1044 q 450 996 476 1009 q 402 974 425 983 z "},"Ư":{"ha":941,"x_min":78,"x_max":949,"o":"m 702 917 l 746 917 l 746 342 q 700 149 746 229 q 578 26 654 68 q 413 -17 503 -17 q 246 26 322 -17 q 124 149 169 68 q 78 342 78 229 l 78 917 l 121 917 l 121 344 q 160 178 121 249 q 266 67 200 107 q 413 28 333 28 q 558 67 492 28 q 663 178 624 107 q 702 344 702 249 l 702 917 m 820 856 q 781 862 800 856 q 746 878 762 869 l 746 917 q 775 900 756 908 q 815 893 794 893 q 882 923 860 893 q 904 989 904 953 q 900 1035 904 1019 q 888 1070 896 1051 l 931 1070 q 943 1041 937 1060 q 949 985 949 1022 q 932 924 949 954 q 886 875 915 894 q 820 856 857 856 z "},"Ứ":{"ha":941,"x_min":78,"x_max":949,"o":"m 702 917 l 746 917 l 746 342 q 700 149 746 229 q 578 26 654 68 q 413 -17 503 -17 q 246 26 322 -17 q 124 149 169 68 q 78 342 78 229 l 78 917 l 121 917 l 121 344 q 160 178 121 249 q 266 67 200 107 q 413 28 333 28 q 558 67 492 28 q 663 178 624 107 q 702 344 702 249 l 702 917 m 820 856 q 781 862 800 856 q 746 878 762 869 l 746 917 q 775 900 756 908 q 815 893 794 893 q 882 923 860 893 q 904 989 904 953 q 900 1035 904 1019 q 888 1070 896 1051 l 931 1070 q 943 1041 937 1060 q 949 985 949 1022 q 932 924 949 954 q 886 875 915 894 q 820 856 857 856 m 330 1008 l 303 1042 l 502 1199 l 544 1147 l 330 1008 z "},"Ự":{"ha":941,"x_min":78,"x_max":949,"o":"m 702 917 l 746 917 l 746 342 q 700 149 746 229 q 578 26 654 68 q 413 -17 503 -17 q 246 26 322 -17 q 124 149 169 68 q 78 342 78 229 l 78 917 l 121 917 l 121 344 q 160 178 121 249 q 266 67 200 107 q 413 28 333 28 q 558 67 492 28 q 663 178 624 107 q 702 344 702 249 l 702 917 m 820 856 q 781 862 800 856 q 746 878 762 869 l 746 917 q 775 900 756 908 q 815 893 794 893 q 882 923 860 893 q 904 989 904 953 q 900 1035 904 1019 q 888 1070 896 1051 l 931 1070 q 943 1041 937 1060 q 949 985 949 1022 q 932 924 949 954 q 886 875 915 894 q 820 856 857 856 m 413 -210 q 377 -195 392 -210 q 362 -160 362 -179 q 377 -124 362 -140 q 413 -108 392 -108 q 448 -124 433 -108 q 464 -160 464 -139 q 448 -195 464 -181 q 413 -210 433 -210 z "},"Ừ":{"ha":941,"x_min":78,"x_max":949,"o":"m 702 917 l 746 917 l 746 342 q 700 149 746 229 q 578 26 654 68 q 413 -17 503 -17 q 246 26 322 -17 q 124 149 169 68 q 78 342 78 229 l 78 917 l 121 917 l 121 344 q 160 178 121 249 q 266 67 200 107 q 413 28 333 28 q 558 67 492 28 q 663 178 624 107 q 702 344 702 249 l 702 917 m 820 856 q 781 862 800 856 q 746 878 762 869 l 746 917 q 775 900 756 908 q 815 893 794 893 q 882 923 860 893 q 904 989 904 953 q 900 1035 904 1019 q 888 1070 896 1051 l 931 1070 q 943 1041 937 1060 q 949 985 949 1022 q 932 924 949 954 q 886 875 915 894 q 820 856 857 856 m 518 1042 l 304 1181 l 345 1233 l 545 1076 l 518 1042 z "},"Ử":{"ha":941,"x_min":78,"x_max":949,"o":"m 702 917 l 746 917 l 746 342 q 700 149 746 229 q 578 26 654 68 q 413 -17 503 -17 q 246 26 322 -17 q 124 149 169 68 q 78 342 78 229 l 78 917 l 121 917 l 121 344 q 160 178 121 249 q 266 67 200 107 q 413 28 333 28 q 558 67 492 28 q 663 178 624 107 q 702 344 702 249 l 702 917 m 820 856 q 781 862 800 856 q 746 878 762 869 l 746 917 q 775 900 756 908 q 815 893 794 893 q 882 923 860 893 q 904 989 904 953 q 900 1035 904 1019 q 888 1070 896 1051 l 931 1070 q 943 1041 937 1060 q 949 985 949 1022 q 932 924 949 954 q 886 875 915 894 q 820 856 857 856 m 402 956 l 376 992 q 425 1013 395 997 q 480 1056 456 1028 q 503 1124 503 1084 q 486 1183 503 1165 q 445 1205 469 1201 q 400 1210 422 1210 q 333 1198 370 1210 q 274 1176 295 1186 l 274 1220 q 322 1241 287 1228 q 413 1253 358 1253 q 480 1243 449 1253 q 531 1205 511 1232 q 550 1130 550 1178 q 536 1063 550 1092 q 499 1014 522 1035 q 450 980 476 994 q 402 956 425 966 z "},"Ữ":{"ha":941,"x_min":78,"x_max":949,"o":"m 702 917 l 746 917 l 746 342 q 700 149 746 229 q 578 26 654 68 q 413 -17 503 -17 q 246 26 322 -17 q 124 149 169 68 q 78 342 78 229 l 78 917 l 121 917 l 121 344 q 160 178 121 249 q 266 67 200 107 q 413 28 333 28 q 558 67 492 28 q 663 178 624 107 q 702 344 702 249 l 702 917 m 820 856 q 781 862 800 856 q 746 878 762 869 l 746 917 q 775 900 756 908 q 815 893 794 893 q 882 923 860 893 q 904 989 904 953 q 900 1035 904 1019 q 888 1070 896 1051 l 931 1070 q 943 1041 937 1060 q 949 985 949 1022 q 932 924 949 954 q 886 875 915 894 q 820 856 857 856 m 215 1058 q 238 1107 222 1082 q 277 1149 253 1131 q 331 1166 301 1166 q 399 1152 373 1166 q 447 1125 424 1139 q 501 1112 469 1112 q 545 1130 530 1112 q 565 1166 561 1149 l 632 1166 q 608 1118 624 1143 q 567 1076 592 1093 q 513 1058 543 1058 q 444 1072 471 1058 q 396 1099 417 1085 q 350 1112 375 1112 q 306 1094 324 1112 q 282 1058 288 1076 l 215 1058 z "},"Ű":{"ha":846,"x_min":78,"x_max":746,"o":"m 702 917 l 746 917 l 746 342 q 700 149 746 229 q 578 26 654 68 q 413 -17 503 -17 q 246 26 322 -17 q 124 149 169 68 q 78 342 78 229 l 78 917 l 121 917 l 121 344 q 160 178 121 249 q 266 67 200 107 q 413 28 333 28 q 558 67 492 28 q 663 178 624 107 q 702 344 702 249 l 702 917 m 208 957 l 180 983 l 362 1176 l 405 1121 l 208 957 m 447 957 l 419 983 l 602 1176 l 645 1121 l 447 957 z "},"Ȗ":{"ha":846,"x_min":78,"x_max":746,"o":"m 702 917 l 746 917 l 746 342 q 700 149 746 229 q 578 26 654 68 q 413 -17 503 -17 q 246 26 322 -17 q 124 149 169 68 q 78 342 78 229 l 78 917 l 121 917 l 121 344 q 160 178 121 249 q 266 67 200 107 q 413 28 333 28 q 558 67 492 28 q 663 178 624 107 q 702 344 702 249 l 702 917 m 310 978 l 251 993 q 273 1047 254 1017 q 327 1097 292 1076 q 413 1117 363 1117 q 497 1097 463 1117 q 551 1048 532 1076 q 574 993 571 1019 l 516 978 q 500 1018 513 998 q 465 1053 487 1039 q 413 1067 443 1067 q 360 1053 382 1067 q 327 1018 339 1039 q 310 978 315 998 z "},"Ū":{"ha":846,"x_min":78,"x_max":746,"o":"m 702 917 l 746 917 l 746 342 q 700 149 746 229 q 578 26 654 68 q 413 -17 503 -17 q 246 26 322 -17 q 124 149 169 68 q 78 342 78 229 l 78 917 l 121 917 l 121 344 q 160 178 121 249 q 266 67 200 107 q 413 28 333 28 q 558 67 492 28 q 663 178 624 107 q 702 344 702 249 l 702 917 m 227 1018 l 227 1063 l 597 1063 l 597 1018 l 227 1018 z "},"Ų":{"ha":846,"x_min":78,"x_max":746,"o":"m 702 917 l 746 917 l 746 342 q 700 149 746 229 q 578 26 654 68 q 413 -17 503 -17 q 246 26 322 -17 q 124 149 169 68 q 78 342 78 229 l 78 917 l 121 917 l 121 344 q 160 178 121 249 q 266 67 200 107 q 413 28 333 28 q 558 67 492 28 q 663 178 624 107 q 702 344 702 249 l 702 917 m 448 -292 q 388 -283 419 -292 q 335 -247 356 -273 q 313 -174 313 -222 q 334 -99 313 -137 q 385 -27 355 -60 q 443 28 415 6 l 473 0 q 425 -49 451 -20 q 382 -110 400 -78 q 365 -170 365 -142 q 393 -234 365 -217 q 461 -250 422 -250 q 522 -233 495 -250 q 562 -197 549 -216 l 600 -226 q 540 -272 584 -252 q 448 -292 495 -292 z "},"Ů":{"ha":846,"x_min":78,"x_max":746,"o":"m 702 917 l 746 917 l 746 342 q 700 149 746 229 q 578 26 654 68 q 413 -17 503 -17 q 246 26 322 -17 q 124 149 169 68 q 78 342 78 229 l 78 917 l 121 917 l 121 344 q 160 178 121 249 q 266 67 200 107 q 413 28 333 28 q 558 67 492 28 q 663 178 624 107 q 702 344 702 249 l 702 917 m 413 959 q 331 987 362 959 q 300 1060 300 1015 q 333 1132 300 1103 q 413 1161 366 1161 q 492 1132 460 1161 q 524 1060 524 1103 q 493 987 524 1015 q 413 959 462 959 m 413 997 q 457 1013 439 997 q 474 1060 474 1030 q 457 1107 474 1090 q 413 1123 439 1123 q 369 1107 388 1123 q 350 1060 350 1090 q 369 1013 350 1030 q 413 997 388 997 z "},"Ũ":{"ha":846,"x_min":78,"x_max":746,"o":"m 702 917 l 746 917 l 746 342 q 700 149 746 229 q 578 26 654 68 q 413 -17 503 -17 q 246 26 322 -17 q 124 149 169 68 q 78 342 78 229 l 78 917 l 121 917 l 121 344 q 160 178 121 249 q 266 67 200 107 q 413 28 333 28 q 558 67 492 28 q 663 178 624 107 q 702 344 702 249 l 702 917 m 204 983 q 227 1031 211 1006 q 266 1073 242 1056 q 320 1090 290 1090 q 388 1077 362 1090 q 436 1050 413 1063 q 490 1036 458 1036 q 534 1055 519 1036 q 554 1090 550 1073 l 621 1090 q 597 1042 613 1067 q 556 1000 581 1017 q 501 983 532 983 q 433 996 460 983 q 385 1023 406 1010 q 339 1036 364 1036 q 295 1018 313 1036 q 271 983 277 1000 l 204 983 z "},"V":{"ha":810,"x_min":18,"x_max":765,"o":"m 421 0 l 361 0 l 18 917 l 67 917 l 391 42 l 717 917 l 765 917 l 421 0 z "},"W":{"ha":1037,"x_min":31,"x_max":963,"o":"m 783 0 l 719 0 l 491 896 l 502 896 l 274 0 l 210 0 l 31 917 l 79 917 l 243 54 l 242 54 l 463 917 l 530 917 l 751 54 l 750 54 l 915 917 l 963 917 l 783 0 z "},"Ẃ":{"ha":1037,"x_min":31,"x_max":963,"o":"m 783 0 l 719 0 l 491 896 l 502 896 l 274 0 l 210 0 l 31 917 l 79 917 l 243 54 l 242 54 l 463 917 l 530 917 l 751 54 l 750 54 l 915 917 l 963 917 l 783 0 m 453 956 l 426 990 l 626 1147 l 667 1094 l 453 956 z "},"Ŵ":{"ha":1037,"x_min":31,"x_max":963,"o":"m 783 0 l 719 0 l 491 896 l 502 896 l 274 0 l 210 0 l 31 917 l 79 917 l 243 54 l 242 54 l 463 917 l 530 917 l 751 54 l 750 54 l 915 917 l 963 917 l 783 0 m 361 978 l 327 1024 l 503 1153 l 681 1023 l 647 977 l 503 1083 l 361 978 z "},"Ẅ":{"ha":1037,"x_min":31,"x_max":963,"o":"m 783 0 l 719 0 l 491 896 l 502 896 l 274 0 l 210 0 l 31 917 l 79 917 l 243 54 l 242 54 l 463 917 l 530 917 l 751 54 l 750 54 l 915 917 l 963 917 l 783 0 m 635 985 q 600 1001 615 985 q 585 1036 585 1017 q 600 1072 585 1056 q 635 1088 615 1088 q 671 1072 656 1088 q 687 1036 687 1057 q 671 1000 687 1015 q 635 985 656 985 m 372 985 q 336 1001 351 985 q 322 1036 322 1017 q 336 1072 322 1056 q 372 1088 351 1088 q 408 1072 392 1088 q 424 1036 424 1057 q 408 1000 424 1015 q 372 985 392 985 z "},"Ẁ":{"ha":1037,"x_min":31,"x_max":963,"o":"m 783 0 l 719 0 l 491 896 l 502 896 l 274 0 l 210 0 l 31 917 l 79 917 l 243 54 l 242 54 l 463 917 l 530 917 l 751 54 l 750 54 l 915 917 l 963 917 l 783 0 m 543 956 l 329 1094 l 370 1147 l 570 990 l 543 956 z "},"X":{"ha":761,"x_min":7,"x_max":728,"o":"m 402 493 l 728 0 l 674 0 l 369 459 l 60 0 l 7 0 l 335 493 l 40 917 l 93 917 l 369 528 l 641 917 l 694 917 l 402 493 z "},"Y":{"ha":713,"x_min":19,"x_max":665,"o":"m 320 330 l 19 917 l 70 917 l 342 385 l 613 917 l 665 917 l 365 330 l 365 0 l 320 0 l 320 330 z "},"Ý":{"ha":713,"x_min":19,"x_max":665,"o":"m 320 330 l 19 917 l 70 917 l 342 385 l 613 917 l 665 917 l 365 330 l 365 0 l 320 0 l 320 330 m 291 956 l 264 990 l 464 1147 l 505 1094 l 291 956 z "},"Ŷ":{"ha":713,"x_min":19,"x_max":665,"o":"m 320 330 l 19 917 l 70 917 l 342 385 l 613 917 l 665 917 l 365 330 l 365 0 l 320 0 l 320 330 m 199 978 l 165 1024 l 342 1153 l 519 1023 l 485 977 l 342 1083 l 199 978 z "},"Ÿ":{"ha":713,"x_min":19,"x_max":665,"o":"m 320 330 l 19 917 l 70 917 l 342 385 l 613 917 l 665 917 l 365 330 l 365 0 l 320 0 l 320 330 m 474 985 q 438 1001 453 985 q 423 1036 423 1017 q 438 1072 423 1056 q 474 1088 453 1088 q 509 1072 494 1088 q 525 1036 525 1057 q 509 1000 525 1015 q 474 985 494 985 m 210 985 q 175 1001 190 985 q 160 1036 160 1017 q 175 1072 160 1056 q 210 1088 190 1088 q 246 1072 231 1088 q 262 1036 262 1057 q 246 1000 262 1015 q 210 985 231 985 z "},"Ỵ":{"ha":713,"x_min":19,"x_max":665,"o":"m 320 330 l 19 917 l 70 917 l 342 385 l 613 917 l 665 917 l 365 330 l 365 0 l 320 0 l 320 330 m 342 -169 q 306 -153 321 -169 q 291 -118 291 -137 q 306 -82 291 -98 q 342 -67 321 -67 q 377 -82 362 -67 q 393 -118 393 -97 q 377 -154 393 -139 q 342 -169 362 -169 z "},"Ỳ":{"ha":713,"x_min":19,"x_max":665,"o":"m 320 330 l 19 917 l 70 917 l 342 385 l 613 917 l 665 917 l 365 330 l 365 0 l 320 0 l 320 330 m 381 956 l 167 1094 l 208 1147 l 408 990 l 381 956 z "},"Ỷ":{"ha":713,"x_min":19,"x_max":665,"o":"m 320 330 l 19 917 l 70 917 l 342 385 l 613 917 l 665 917 l 365 330 l 365 0 l 320 0 l 320 330 m 332 974 l 306 1010 q 355 1028 325 1015 q 409 1064 385 1041 q 433 1121 433 1088 q 416 1175 433 1158 q 375 1195 399 1191 q 330 1199 351 1199 q 263 1188 300 1199 q 204 1165 225 1176 l 204 1210 q 252 1231 217 1218 q 343 1243 288 1243 q 410 1233 378 1243 q 460 1197 441 1222 q 480 1126 480 1172 q 466 1069 480 1093 q 428 1027 451 1044 q 380 996 406 1009 q 332 974 355 983 z "},"Ȳ":{"ha":713,"x_min":19,"x_max":665,"o":"m 320 330 l 19 917 l 70 917 l 342 385 l 613 917 l 665 917 l 365 330 l 365 0 l 320 0 l 320 330 m 157 1018 l 157 1063 l 527 1063 l 527 1018 l 157 1018 z "},"Ỹ":{"ha":713,"x_min":19,"x_max":665,"o":"m 320 330 l 19 917 l 70 917 l 342 385 l 613 917 l 665 917 l 365 330 l 365 0 l 320 0 l 320 330 m 134 983 q 157 1031 141 1006 q 196 1073 172 1056 q 250 1090 219 1090 q 317 1077 292 1090 q 366 1050 343 1063 q 420 1036 388 1036 q 464 1055 449 1036 q 484 1090 480 1073 l 551 1090 q 527 1042 543 1067 q 486 1000 510 1017 q 431 983 462 983 q 363 996 390 983 q 315 1023 336 1010 q 269 1036 294 1036 q 225 1018 242 1036 q 201 983 207 1000 l 134 983 z "},"Z":{"ha":769,"x_min":44,"x_max":697,"o":"m 109 917 l 697 917 l 130 44 l 667 44 l 667 0 l 44 0 l 615 872 l 109 872 l 109 917 z "},"Ź":{"ha":769,"x_min":44,"x_max":697,"o":"m 109 917 l 697 917 l 130 44 l 667 44 l 667 0 l 44 0 l 615 872 l 109 872 l 109 917 m 319 956 l 292 990 l 492 1147 l 533 1094 l 319 956 z "},"Ž":{"ha":769,"x_min":44,"x_max":697,"o":"m 109 917 l 697 917 l 130 44 l 667 44 l 667 0 l 44 0 l 615 872 l 109 872 l 109 917 m 371 988 l 217 1100 l 247 1140 l 371 1050 l 497 1141 l 525 1101 l 371 988 z "},"Ż":{"ha":769,"x_min":44,"x_max":697,"o":"m 109 917 l 697 917 l 130 44 l 667 44 l 667 0 l 44 0 l 615 872 l 109 872 l 109 917 m 370 1006 q 334 1022 349 1006 q 319 1057 319 1038 q 334 1093 319 1077 q 370 1108 349 1108 q 406 1093 390 1108 q 422 1057 422 1078 q 406 1021 422 1036 q 370 1006 390 1006 z "},"a":{"ha":700,"x_min":40,"x_max":600,"o":"m 557 0 l 557 126 q 525 73 553 107 q 447 11 497 38 q 328 -17 397 -17 q 186 18 252 -17 q 81 120 121 53 q 40 285 40 188 q 81 449 40 382 q 186 552 121 517 q 328 587 252 587 q 447 560 397 587 q 526 499 497 533 q 557 443 555 465 l 557 570 l 600 570 l 600 0 l 557 0 m 85 285 q 119 147 85 204 q 209 58 154 89 q 324 28 264 28 q 442 59 390 28 q 524 148 494 90 q 554 285 554 206 q 524 422 554 364 q 442 511 494 479 q 324 542 390 542 q 209 511 264 542 q 119 423 154 481 q 85 285 85 365 z "},"á":{"ha":700,"x_min":40,"x_max":600,"o":"m 557 0 l 557 126 q 525 73 553 107 q 447 11 497 38 q 328 -17 397 -17 q 186 18 252 -17 q 81 120 121 53 q 40 285 40 188 q 81 449 40 382 q 186 552 121 517 q 328 587 252 587 q 447 560 397 587 q 526 499 497 533 q 557 443 555 465 l 557 570 l 600 570 l 600 0 l 557 0 m 85 285 q 119 147 85 204 q 209 58 154 89 q 324 28 264 28 q 442 59 390 28 q 524 148 494 90 q 554 285 554 206 q 524 422 554 364 q 442 511 494 479 q 324 542 390 542 q 209 511 264 542 q 119 423 154 481 q 85 285 85 365 m 245 661 l 219 695 l 417 852 l 460 800 l 245 661 z "},"ă":{"ha":726,"x_min":40,"x_max":600,"o":"m 557 0 l 557 126 q 525 73 553 107 q 447 11 497 38 q 328 -17 397 -17 q 186 18 252 -17 q 81 120 121 53 q 40 285 40 188 q 81 449 40 382 q 186 552 121 517 q 328 587 252 587 q 447 560 397 587 q 526 499 497 533 q 557 443 555 465 l 557 570 l 600 570 l 600 0 l 557 0 m 85 285 q 119 147 85 204 q 209 58 154 89 q 324 28 264 28 q 442 59 390 28 q 524 148 494 90 q 554 285 554 206 q 524 422 554 364 q 442 511 494 479 q 324 542 390 542 q 209 511 264 542 q 119 423 154 481 q 85 285 85 365 m 328 684 q 243 705 278 684 q 189 754 208 725 q 167 808 169 783 l 224 823 q 241 783 228 804 q 275 748 253 763 q 328 734 297 734 q 380 748 358 734 q 414 783 401 763 q 430 823 426 804 l 489 808 q 467 755 486 784 q 413 705 448 726 q 328 684 378 684 z "},"ắ":{"ha":700,"x_min":40,"x_max":600,"o":"m 557 0 l 557 126 q 525 73 553 107 q 447 11 497 38 q 328 -17 397 -17 q 186 18 252 -17 q 81 120 121 53 q 40 285 40 188 q 81 449 40 382 q 186 552 121 517 q 328 587 252 587 q 447 560 397 587 q 526 499 497 533 q 557 443 555 465 l 557 570 l 600 570 l 600 0 l 557 0 m 85 285 q 119 147 85 204 q 209 58 154 89 q 324 28 264 28 q 442 59 390 28 q 524 148 494 90 q 554 285 554 206 q 524 422 554 364 q 442 511 494 479 q 324 542 390 542 q 209 511 264 542 q 119 423 154 481 q 85 285 85 365 m 328 684 q 243 705 278 684 q 189 754 208 725 q 167 808 169 783 l 224 823 q 241 783 228 804 q 275 748 253 763 q 328 734 297 734 q 380 748 358 734 q 414 783 401 763 q 430 823 426 804 l 489 808 q 467 755 486 784 q 413 705 448 726 q 328 684 378 684 m 276 862 l 249 896 l 449 1053 l 490 1001 l 276 862 z "},"ặ":{"ha":700,"x_min":40,"x_max":600,"o":"m 557 0 l 557 126 q 525 73 553 107 q 447 11 497 38 q 328 -17 397 -17 q 186 18 252 -17 q 81 120 121 53 q 40 285 40 188 q 81 449 40 382 q 186 552 121 517 q 328 587 252 587 q 447 560 397 587 q 526 499 497 533 q 557 443 555 465 l 557 570 l 600 570 l 600 0 l 557 0 m 85 285 q 119 147 85 204 q 209 58 154 89 q 324 28 264 28 q 442 59 390 28 q 524 148 494 90 q 554 285 554 206 q 524 422 554 364 q 442 511 494 479 q 324 542 390 542 q 209 511 264 542 q 119 423 154 481 q 85 285 85 365 m 342 -210 q 307 -195 322 -210 q 292 -160 292 -179 q 307 -124 292 -140 q 342 -108 322 -108 q 378 -124 363 -108 q 394 -160 394 -139 q 378 -195 394 -181 q 342 -210 363 -210 m 328 684 q 243 705 278 684 q 189 754 208 725 q 167 808 169 783 l 224 823 q 241 783 228 804 q 275 748 253 763 q 328 734 297 734 q 380 748 358 734 q 414 783 401 763 q 430 823 426 804 l 489 808 q 467 755 486 784 q 413 705 448 726 q 328 684 378 684 z "},"ằ":{"ha":700,"x_min":40,"x_max":600,"o":"m 557 0 l 557 126 q 525 73 553 107 q 447 11 497 38 q 328 -17 397 -17 q 186 18 252 -17 q 81 120 121 53 q 40 285 40 188 q 81 449 40 382 q 186 552 121 517 q 328 587 252 587 q 447 560 397 587 q 526 499 497 533 q 557 443 555 465 l 557 570 l 600 570 l 600 0 l 557 0 m 85 285 q 119 147 85 204 q 209 58 154 89 q 324 28 264 28 q 442 59 390 28 q 524 148 494 90 q 554 285 554 206 q 524 422 554 364 q 442 511 494 479 q 324 542 390 542 q 209 511 264 542 q 119 423 154 481 q 85 285 85 365 m 381 875 l 167 1014 l 208 1066 l 408 909 l 381 875 m 328 684 q 243 705 278 684 q 189 754 208 725 q 167 808 169 783 l 224 823 q 241 783 228 804 q 275 748 253 763 q 328 734 297 734 q 380 748 358 734 q 414 783 401 763 q 430 823 426 804 l 489 808 q 467 755 486 784 q 413 705 448 726 q 328 684 378 684 z "},"ẳ":{"ha":700,"x_min":40,"x_max":600,"o":"m 557 0 l 557 126 q 525 73 553 107 q 447 11 497 38 q 328 -17 397 -17 q 186 18 252 -17 q 81 120 121 53 q 40 285 40 188 q 81 449 40 382 q 186 552 121 517 q 328 587 252 587 q 447 560 397 587 q 526 499 497 533 q 557 443 555 465 l 557 570 l 600 570 l 600 0 l 557 0 m 85 285 q 119 147 85 204 q 209 58 154 89 q 324 28 264 28 q 442 59 390 28 q 524 148 494 90 q 554 285 554 206 q 524 422 554 364 q 442 511 494 479 q 324 542 390 542 q 209 511 264 542 q 119 423 154 481 q 85 285 85 365 m 317 828 l 291 864 q 341 884 310 869 q 395 928 371 900 q 419 996 419 956 q 402 1055 419 1037 q 361 1077 385 1072 q 315 1081 337 1081 q 248 1069 285 1081 q 190 1047 210 1058 l 190 1092 q 238 1113 202 1100 q 328 1125 273 1125 q 395 1114 364 1125 q 446 1077 426 1103 q 465 1001 465 1050 q 451 935 465 963 q 414 886 437 906 q 366 851 391 865 q 317 828 340 838 m 328 684 q 243 705 278 684 q 189 754 208 725 q 167 808 169 783 l 224 823 q 241 783 228 804 q 275 748 253 763 q 328 734 297 734 q 380 748 358 734 q 414 783 401 763 q 430 823 426 804 l 489 808 q 467 755 486 784 q 413 705 448 726 q 328 684 378 684 z "},"ẵ":{"ha":700,"x_min":40,"x_max":600,"o":"m 557 0 l 557 126 q 525 73 553 107 q 447 11 497 38 q 328 -17 397 -17 q 186 18 252 -17 q 81 120 121 53 q 40 285 40 188 q 81 449 40 382 q 186 552 121 517 q 328 587 252 587 q 447 560 397 587 q 526 499 497 533 q 557 443 555 465 l 557 570 l 600 570 l 600 0 l 557 0 m 85 285 q 119 147 85 204 q 209 58 154 89 q 324 28 264 28 q 442 59 390 28 q 524 148 494 90 q 554 285 554 206 q 524 422 554 364 q 442 511 494 479 q 324 542 390 542 q 209 511 264 542 q 119 423 154 481 q 85 285 85 365 m 131 909 q 153 957 138 933 q 192 999 169 982 q 247 1017 216 1017 q 314 1003 288 1017 q 362 976 340 990 q 417 963 385 963 q 458 978 445 963 q 481 1017 472 993 l 547 1017 q 524 972 541 997 q 483 928 508 947 q 428 909 458 909 q 359 923 386 909 q 311 949 333 936 q 265 963 290 963 q 221 944 239 963 q 197 909 203 926 l 131 909 m 328 684 q 243 705 278 684 q 189 754 208 725 q 167 808 169 783 l 224 823 q 241 783 228 804 q 275 748 253 763 q 328 734 297 734 q 380 748 358 734 q 414 783 401 763 q 430 823 426 804 l 489 808 q 467 755 486 784 q 413 705 448 726 q 328 684 378 684 z "},"ǎ":{"ha":700,"x_min":40,"x_max":600,"o":"m 557 0 l 557 126 q 525 73 553 107 q 447 11 497 38 q 328 -17 397 -17 q 186 18 252 -17 q 81 120 121 53 q 40 285 40 188 q 81 449 40 382 q 186 552 121 517 q 328 587 252 587 q 447 560 397 587 q 526 499 497 533 q 557 443 555 465 l 557 570 l 600 570 l 600 0 l 557 0 m 85 285 q 119 147 85 204 q 209 58 154 89 q 324 28 264 28 q 442 59 390 28 q 524 148 494 90 q 554 285 554 206 q 524 422 554 364 q 442 511 494 479 q 324 542 390 542 q 209 511 264 542 q 119 423 154 481 q 85 285 85 365 m 339 680 l 163 809 l 197 854 l 339 751 l 483 856 l 516 810 l 339 680 z "},"â":{"ha":700,"x_min":40,"x_max":600,"o":"m 557 0 l 557 126 q 525 73 553 107 q 447 11 497 38 q 328 -17 397 -17 q 186 18 252 -17 q 81 120 121 53 q 40 285 40 188 q 81 449 40 382 q 186 552 121 517 q 328 587 252 587 q 447 560 397 587 q 526 499 497 533 q 557 443 555 465 l 557 570 l 600 570 l 600 0 l 557 0 m 85 285 q 119 147 85 204 q 209 58 154 89 q 324 28 264 28 q 442 59 390 28 q 524 148 494 90 q 554 285 554 206 q 524 422 554 364 q 442 511 494 479 q 324 542 390 542 q 209 511 264 542 q 119 423 154 481 q 85 285 85 365 m 472 650 l 328 756 l 185 651 l 151 697 l 328 826 l 505 696 l 472 650 z "},"ấ":{"ha":700,"x_min":40,"x_max":670,"o":"m 557 0 l 557 126 q 525 73 553 107 q 447 11 497 38 q 328 -17 397 -17 q 186 18 252 -17 q 81 120 121 53 q 40 285 40 188 q 81 449 40 382 q 186 552 121 517 q 328 587 252 587 q 447 560 397 587 q 526 499 497 533 q 557 443 555 465 l 557 570 l 600 570 l 600 0 l 557 0 m 85 285 q 119 147 85 204 q 209 58 154 89 q 324 28 264 28 q 442 59 390 28 q 524 148 494 90 q 554 285 554 206 q 524 422 554 364 q 442 511 494 479 q 324 542 390 542 q 209 511 264 542 q 119 423 154 481 q 85 285 85 365 m 472 644 l 328 750 l 185 646 l 151 691 l 328 820 l 505 690 l 472 644 m 456 810 l 429 844 l 628 1001 l 670 949 l 456 810 z "},"ậ":{"ha":700,"x_min":40,"x_max":600,"o":"m 557 0 l 557 126 q 525 73 553 107 q 447 11 497 38 q 328 -17 397 -17 q 186 18 252 -17 q 81 120 121 53 q 40 285 40 188 q 81 449 40 382 q 186 552 121 517 q 328 587 252 587 q 447 560 397 587 q 526 499 497 533 q 557 443 555 465 l 557 570 l 600 570 l 600 0 l 557 0 m 85 285 q 119 147 85 204 q 209 58 154 89 q 324 28 264 28 q 442 59 390 28 q 524 148 494 90 q 554 285 554 206 q 524 422 554 364 q 442 511 494 479 q 324 542 390 542 q 209 511 264 542 q 119 423 154 481 q 85 285 85 365 m 342 -210 q 307 -195 322 -210 q 292 -160 292 -179 q 307 -124 292 -140 q 342 -108 322 -108 q 378 -124 363 -108 q 394 -160 394 -139 q 378 -195 394 -181 q 342 -210 363 -210 m 472 650 l 328 756 l 185 651 l 151 697 l 328 826 l 505 696 l 472 650 z "},"ầ":{"ha":700,"x_min":40,"x_max":600,"o":"m 557 0 l 557 126 q 525 73 553 107 q 447 11 497 38 q 328 -17 397 -17 q 186 18 252 -17 q 81 120 121 53 q 40 285 40 188 q 81 449 40 382 q 186 552 121 517 q 328 587 252 587 q 447 560 397 587 q 526 499 497 533 q 557 443 555 465 l 557 570 l 600 570 l 600 0 l 557 0 m 85 285 q 119 147 85 204 q 209 58 154 89 q 324 28 264 28 q 442 59 390 28 q 524 148 494 90 q 554 285 554 206 q 524 422 554 364 q 442 511 494 479 q 324 542 390 542 q 209 511 264 542 q 119 423 154 481 q 85 285 85 365 m 475 644 l 331 750 l 189 646 l 155 691 l 331 820 l 508 690 l 475 644 m 568 787 l 354 926 l 395 978 l 595 821 l 568 787 z "},"ẩ":{"ha":700,"x_min":40,"x_max":601,"o":"m 557 0 l 557 126 q 525 73 553 107 q 447 11 497 38 q 328 -17 397 -17 q 186 18 252 -17 q 81 120 121 53 q 40 285 40 188 q 81 449 40 382 q 186 552 121 517 q 328 587 252 587 q 447 560 397 587 q 526 499 497 533 q 557 443 555 465 l 557 570 l 600 570 l 600 0 l 557 0 m 85 285 q 119 147 85 204 q 209 58 154 89 q 324 28 264 28 q 442 59 390 28 q 524 148 494 90 q 554 285 554 206 q 524 422 554 364 q 442 511 494 479 q 324 542 390 542 q 209 511 264 542 q 119 423 154 481 q 85 285 85 365 m 453 785 l 427 822 q 477 842 447 826 q 531 885 507 858 q 555 953 555 913 q 538 1012 555 994 q 497 1034 521 1030 q 451 1039 473 1039 q 384 1027 422 1039 q 326 1005 347 1015 l 326 1049 q 374 1070 338 1058 q 465 1083 409 1083 q 531 1072 500 1083 q 582 1034 563 1061 q 601 959 601 1008 q 587 892 601 921 q 550 843 573 864 q 502 809 527 823 q 453 785 476 795 m 472 644 l 328 750 l 186 646 l 152 691 l 328 820 l 506 690 l 472 644 z "},"ẫ":{"ha":700,"x_min":40,"x_max":600,"o":"m 557 0 l 557 126 q 525 73 553 107 q 447 11 497 38 q 328 -17 397 -17 q 186 18 252 -17 q 81 120 121 53 q 40 285 40 188 q 81 449 40 382 q 186 552 121 517 q 328 587 252 587 q 447 560 397 587 q 526 499 497 533 q 557 443 555 465 l 557 570 l 600 570 l 600 0 l 557 0 m 85 285 q 119 147 85 204 q 209 58 154 89 q 324 28 264 28 q 442 59 390 28 q 524 148 494 90 q 554 285 554 206 q 524 422 554 364 q 442 511 494 479 q 324 542 390 542 q 209 511 264 542 q 119 423 154 481 q 85 285 85 365 m 121 854 q 143 902 128 878 q 183 944 159 927 q 237 962 206 962 q 304 948 278 962 q 352 921 330 935 q 407 908 375 908 q 451 926 435 908 q 471 962 467 944 l 538 962 q 514 914 530 939 q 473 872 497 889 q 418 854 449 854 q 350 868 376 854 q 302 894 323 881 q 256 908 281 908 q 211 890 229 908 q 188 854 194 872 l 121 854 m 469 644 l 325 750 l 183 646 l 149 691 l 325 820 l 502 690 l 469 644 z "},"ȁ":{"ha":700,"x_min":10,"x_max":600,"o":"m 557 0 l 557 126 q 525 73 553 107 q 447 11 497 38 q 328 -17 397 -17 q 186 18 252 -17 q 81 120 121 53 q 40 285 40 188 q 81 449 40 382 q 186 552 121 517 q 328 587 252 587 q 447 560 397 587 q 526 499 497 533 q 557 443 555 465 l 557 570 l 600 570 l 600 0 l 557 0 m 85 285 q 119 147 85 204 q 209 58 154 89 q 324 28 264 28 q 442 59 390 28 q 524 148 494 90 q 554 285 554 206 q 524 422 554 364 q 442 511 494 479 q 324 542 390 542 q 209 511 264 542 q 119 423 154 481 q 85 285 85 365 m 453 696 l 240 835 l 281 887 l 481 730 l 453 696 m 224 696 l 10 835 l 51 887 l 251 730 l 224 696 z "},"ä":{"ha":700,"x_min":40,"x_max":600,"o":"m 557 0 l 557 126 q 525 73 553 107 q 447 11 497 38 q 328 -17 397 -17 q 186 18 252 -17 q 81 120 121 53 q 40 285 40 188 q 81 449 40 382 q 186 552 121 517 q 328 587 252 587 q 447 560 397 587 q 526 499 497 533 q 557 443 555 465 l 557 570 l 600 570 l 600 0 l 557 0 m 85 285 q 119 147 85 204 q 209 58 154 89 q 324 28 264 28 q 442 59 390 28 q 524 148 494 90 q 554 285 554 206 q 524 422 554 364 q 442 511 494 479 q 324 542 390 542 q 209 511 264 542 q 119 423 154 481 q 85 285 85 365 m 469 706 q 434 721 449 706 q 419 756 419 737 q 434 792 419 776 q 469 808 449 808 q 505 792 490 808 q 521 756 521 777 q 505 720 521 735 q 469 706 490 706 m 206 706 q 170 721 185 706 q 156 756 156 737 q 170 792 156 776 q 206 808 185 808 q 242 792 226 808 q 258 756 258 777 q 242 720 258 735 q 206 706 226 706 z "},"ạ":{"ha":700,"x_min":40,"x_max":600,"o":"m 557 0 l 557 126 q 525 73 553 107 q 447 11 497 38 q 328 -17 397 -17 q 186 18 252 -17 q 81 120 121 53 q 40 285 40 188 q 81 449 40 382 q 186 552 121 517 q 328 587 252 587 q 447 560 397 587 q 526 499 497 533 q 557 443 555 465 l 557 570 l 600 570 l 600 0 l 557 0 m 85 285 q 119 147 85 204 q 209 58 154 89 q 324 28 264 28 q 442 59 390 28 q 524 148 494 90 q 554 285 554 206 q 524 422 554 364 q 442 511 494 479 q 324 542 390 542 q 209 511 264 542 q 119 423 154 481 q 85 285 85 365 m 342 -210 q 307 -195 322 -210 q 292 -160 292 -179 q 307 -124 292 -140 q 342 -108 322 -108 q 378 -124 363 -108 q 394 -160 394 -139 q 378 -195 394 -181 q 342 -210 363 -210 z "},"à":{"ha":700,"x_min":40,"x_max":600,"o":"m 557 0 l 557 126 q 525 73 553 107 q 447 11 497 38 q 328 -17 397 -17 q 186 18 252 -17 q 81 120 121 53 q 40 285 40 188 q 81 449 40 382 q 186 552 121 517 q 328 587 252 587 q 447 560 397 587 q 526 499 497 533 q 557 443 555 465 l 557 570 l 600 570 l 600 0 l 557 0 m 85 285 q 119 147 85 204 q 209 58 154 89 q 324 28 264 28 q 442 59 390 28 q 524 148 494 90 q 554 285 554 206 q 524 422 554 364 q 442 511 494 479 q 324 542 390 542 q 209 511 264 542 q 119 423 154 481 q 85 285 85 365 m 433 696 l 219 835 l 260 887 l 460 730 l 433 696 z "},"ả":{"ha":700,"x_min":40,"x_max":600,"o":"m 557 0 l 557 126 q 525 73 553 107 q 447 11 497 38 q 328 -17 397 -17 q 186 18 252 -17 q 81 120 121 53 q 40 285 40 188 q 81 449 40 382 q 186 552 121 517 q 328 587 252 587 q 447 560 397 587 q 526 499 497 533 q 557 443 555 465 l 557 570 l 600 570 l 600 0 l 557 0 m 85 285 q 119 147 85 204 q 209 58 154 89 q 324 28 264 28 q 442 59 390 28 q 524 148 494 90 q 554 285 554 206 q 524 422 554 364 q 442 511 494 479 q 324 542 390 542 q 209 511 264 542 q 119 423 154 481 q 85 285 85 365 m 317 610 l 291 646 q 341 666 310 651 q 395 710 371 682 q 419 778 419 738 q 402 836 419 819 q 361 859 385 854 q 315 863 337 863 q 248 851 285 863 q 190 829 210 840 l 190 874 q 238 894 202 882 q 328 907 273 907 q 395 896 364 907 q 446 859 426 885 q 465 783 465 832 q 451 717 465 745 q 414 668 437 688 q 366 633 391 647 q 317 610 340 619 z "},"ȃ":{"ha":700,"x_min":40,"x_max":600,"o":"m 557 0 l 557 126 q 525 73 553 107 q 447 11 497 38 q 328 -17 397 -17 q 186 18 252 -17 q 81 120 121 53 q 40 285 40 188 q 81 449 40 382 q 186 552 121 517 q 328 587 252 587 q 447 560 397 587 q 526 499 497 533 q 557 443 555 465 l 557 570 l 600 570 l 600 0 l 557 0 m 85 285 q 119 147 85 204 q 209 58 154 89 q 324 28 264 28 q 442 59 390 28 q 524 148 494 90 q 554 285 554 206 q 524 422 554 364 q 442 511 494 479 q 324 542 390 542 q 209 511 264 542 q 119 423 154 481 q 85 285 85 365 m 225 687 l 166 701 q 188 755 169 726 q 242 805 207 784 q 327 826 277 826 q 412 805 377 826 q 466 756 447 785 q 488 701 485 727 l 431 687 q 414 727 427 706 q 380 761 401 747 q 327 776 358 776 q 275 761 297 776 q 241 727 253 747 q 225 687 229 706 z "},"ā":{"ha":726,"x_min":40,"x_max":600,"o":"m 557 0 l 557 126 q 525 73 553 107 q 447 11 497 38 q 328 -17 397 -17 q 186 18 252 -17 q 81 120 121 53 q 40 285 40 188 q 81 449 40 382 q 186 552 121 517 q 328 587 252 587 q 447 560 397 587 q 526 499 497 533 q 557 443 555 465 l 557 570 l 600 570 l 600 0 l 557 0 m 85 285 q 119 147 85 204 q 209 58 154 89 q 324 28 264 28 q 442 59 390 28 q 524 148 494 90 q 554 285 554 206 q 524 422 554 364 q 442 511 494 479 q 324 542 390 542 q 209 511 264 542 q 119 423 154 481 q 85 285 85 365 m 165 749 l 165 793 l 535 793 l 535 749 l 165 749 z "},"ą":{"ha":726,"x_min":40,"x_max":727,"o":"m 557 0 l 557 126 q 525 73 553 107 q 447 11 497 38 q 328 -17 397 -17 q 186 18 252 -17 q 81 120 121 53 q 40 285 40 188 q 81 449 40 382 q 186 552 121 517 q 328 587 252 587 q 447 560 397 587 q 526 499 497 533 q 557 443 555 465 l 557 570 l 600 570 l 600 0 l 557 0 m 85 285 q 119 147 85 204 q 209 58 154 89 q 324 28 264 28 q 442 59 390 28 q 524 148 494 90 q 554 285 554 206 q 524 422 554 364 q 442 511 494 479 q 324 542 390 542 q 209 511 264 542 q 119 423 154 481 q 85 285 85 365 m 575 -292 q 515 -283 546 -292 q 462 -247 483 -273 q 440 -174 440 -222 q 461 -99 440 -137 q 512 -27 482 -60 q 570 28 542 6 l 600 0 q 552 -49 578 -20 q 509 -110 527 -78 q 492 -170 492 -142 q 520 -234 492 -217 q 588 -250 549 -250 q 649 -233 622 -250 q 689 -197 676 -216 l 727 -226 q 667 -272 711 -252 q 575 -292 622 -292 z "},"å":{"ha":700,"x_min":40,"x_max":600,"o":"m 557 0 l 557 126 q 525 73 553 107 q 447 11 497 38 q 328 -17 397 -17 q 186 18 252 -17 q 81 120 121 53 q 40 285 40 188 q 81 449 40 382 q 186 552 121 517 q 328 587 252 587 q 447 560 397 587 q 526 499 497 533 q 557 443 555 465 l 557 570 l 600 570 l 600 0 l 557 0 m 85 285 q 119 147 85 204 q 209 58 154 89 q 324 28 264 28 q 442 59 390 28 q 524 148 494 90 q 554 285 554 206 q 524 422 554 364 q 442 511 494 479 q 324 542 390 542 q 209 511 264 542 q 119 423 154 481 q 85 285 85 365 m 328 646 q 246 674 277 646 q 215 747 215 702 q 231 799 215 776 q 271 835 246 822 q 328 848 297 848 q 385 835 360 848 q 425 799 410 822 q 440 747 440 776 q 408 674 440 702 q 328 646 377 646 m 328 683 q 372 700 354 683 q 390 747 390 717 q 372 793 390 777 q 328 810 354 810 q 284 793 303 810 q 265 747 265 777 q 284 700 265 717 q 328 683 303 683 z "},"ǻ":{"ha":700,"x_min":40,"x_max":600,"o":"m 557 0 l 557 126 q 525 73 553 107 q 447 11 497 38 q 328 -17 397 -17 q 186 18 252 -17 q 81 120 121 53 q 40 285 40 188 q 81 449 40 382 q 186 552 121 517 q 328 587 252 587 q 447 560 397 587 q 526 499 497 533 q 557 443 555 465 l 557 570 l 600 570 l 600 0 l 557 0 m 85 285 q 119 147 85 204 q 209 58 154 89 q 324 28 264 28 q 442 59 390 28 q 524 148 494 90 q 554 285 554 206 q 524 422 554 364 q 442 511 494 479 q 324 542 390 542 q 209 511 264 542 q 119 423 154 481 q 85 285 85 365 m 328 646 q 246 674 277 646 q 215 747 215 702 q 231 799 215 776 q 271 835 246 822 q 328 848 297 848 q 385 835 360 848 q 425 799 410 822 q 440 747 440 776 q 408 674 440 702 q 328 646 377 646 m 328 683 q 372 700 354 683 q 390 747 390 717 q 372 793 390 777 q 328 810 354 810 q 284 793 303 810 q 265 747 265 777 q 284 700 265 717 q 328 683 303 683 m 245 863 l 219 897 l 417 1053 l 460 1001 l 245 863 z "},"ã":{"ha":700,"x_min":40,"x_max":600,"o":"m 557 0 l 557 126 q 525 73 553 107 q 447 11 497 38 q 328 -17 397 -17 q 186 18 252 -17 q 81 120 121 53 q 40 285 40 188 q 81 449 40 382 q 186 552 121 517 q 328 587 252 587 q 447 560 397 587 q 526 499 497 533 q 557 443 555 465 l 557 570 l 600 570 l 600 0 l 557 0 m 85 285 q 119 147 85 204 q 209 58 154 89 q 324 28 264 28 q 442 59 390 28 q 524 148 494 90 q 554 285 554 206 q 524 422 554 364 q 442 511 494 479 q 324 542 390 542 q 209 511 264 542 q 119 423 154 481 q 85 285 85 365 m 131 712 q 153 760 138 735 q 192 802 169 785 q 247 819 216 819 q 314 806 288 819 q 362 779 340 792 q 417 765 385 765 q 461 784 445 765 q 481 819 476 802 l 547 819 q 523 772 540 797 q 483 729 507 747 q 428 712 458 712 q 359 725 386 712 q 311 752 333 739 q 265 765 290 765 q 221 747 239 765 q 197 712 203 729 l 131 712 z "},"æ":{"ha":981,"x_min":40,"x_max":913,"o":"m 254 -17 q 149 3 198 -17 q 70 65 100 23 q 40 174 40 108 q 71 272 40 231 q 151 336 101 313 q 259 359 201 359 q 345 347 308 359 q 406 320 383 335 q 435 297 428 305 l 435 332 q 417 439 435 397 q 371 502 399 480 q 315 534 344 525 q 265 542 287 542 q 167 518 210 542 q 106 470 124 494 l 71 513 q 143 562 92 537 q 265 587 194 587 q 369 563 328 587 q 435 503 411 538 q 470 433 460 467 q 507 502 478 467 q 580 563 535 538 q 676 587 624 587 q 802 553 749 587 q 884 452 855 519 q 913 285 913 385 q 912 278 913 278 q 911 272 911 278 l 483 272 q 503 139 483 194 q 567 56 524 84 q 680 28 610 28 q 771 51 733 28 q 832 102 809 74 q 863 144 856 131 l 902 119 q 857 63 888 95 q 781 7 826 31 q 676 -17 735 -17 q 580 1 625 -17 q 502 48 534 19 q 458 110 470 76 q 423 59 451 89 q 353 6 396 29 q 254 -17 310 -17 m 248 28 q 344 50 302 27 q 410 108 386 73 q 435 180 435 144 q 385 278 435 242 q 265 315 336 315 q 182 298 223 315 q 113 250 140 282 q 85 172 85 219 q 132 69 85 110 q 248 28 178 29 m 489 315 l 861 315 q 854 375 860 337 q 830 451 848 413 q 775 516 811 490 q 680 542 740 542 q 544 481 592 542 q 489 315 496 419 z "},"ǽ":{"ha":981,"x_min":40,"x_max":913,"o":"m 254 -17 q 149 3 198 -17 q 70 65 100 23 q 40 174 40 108 q 71 272 40 231 q 151 336 101 313 q 259 359 201 359 q 345 347 308 359 q 406 320 383 335 q 435 297 428 305 l 435 332 q 417 439 435 397 q 371 502 399 480 q 315 534 344 525 q 265 542 287 542 q 167 518 210 542 q 106 470 124 494 l 71 513 q 143 562 92 537 q 265 587 194 587 q 369 563 328 587 q 435 503 411 538 q 470 433 460 467 q 507 502 478 467 q 580 563 535 538 q 676 587 624 587 q 802 553 749 587 q 884 452 855 519 q 913 285 913 385 q 912 278 913 278 q 911 272 911 278 l 483 272 q 503 139 483 194 q 567 56 524 84 q 680 28 610 28 q 771 51 733 28 q 832 102 809 74 q 863 144 856 131 l 902 119 q 857 63 888 95 q 781 7 826 31 q 676 -17 735 -17 q 580 1 625 -17 q 502 48 534 19 q 458 110 470 76 q 423 59 451 89 q 353 6 396 29 q 254 -17 310 -17 m 248 28 q 344 50 302 27 q 410 108 386 73 q 435 180 435 144 q 385 278 435 242 q 265 315 336 315 q 182 298 223 315 q 113 250 140 282 q 85 172 85 219 q 132 69 85 110 q 248 28 178 29 m 489 315 l 861 315 q 854 375 860 337 q 830 451 848 413 q 775 516 811 490 q 680 542 740 542 q 544 481 592 542 q 489 315 496 419 m 394 661 l 367 695 l 566 852 l 608 800 l 394 661 z "},"b":{"ha":687,"x_min":83,"x_max":644,"o":"m 83 0 l 83 956 l 130 956 l 130 443 q 163 501 133 467 q 246 561 193 535 q 368 587 299 587 q 507 552 444 587 q 607 449 569 517 q 644 285 644 382 q 607 120 644 188 q 507 18 569 53 q 368 -17 444 -17 q 244 10 298 -17 q 160 72 191 38 q 128 126 130 106 l 128 0 l 83 0 m 599 285 q 567 423 599 365 q 483 511 535 481 q 372 542 432 542 q 251 511 306 542 q 163 422 196 479 q 130 285 130 364 q 163 148 130 206 q 251 59 196 90 q 372 28 306 28 q 483 58 432 28 q 567 147 535 89 q 599 285 599 204 z "},"c":{"ha":563,"x_min":48,"x_max":501,"o":"m 320 28 q 426 48 387 28 q 474 76 466 69 l 501 37 q 472 20 497 33 q 407 -5 447 7 q 315 -17 366 -17 q 192 16 253 -17 q 89 117 131 49 q 48 285 48 184 q 89 454 48 388 q 192 554 131 521 q 315 587 253 587 q 405 574 366 587 q 467 545 443 560 q 497 524 491 530 l 470 485 q 445 505 464 491 q 396 531 427 519 q 320 542 365 542 q 214 513 267 542 q 127 426 161 483 q 92 285 92 369 q 127 144 92 202 q 214 57 161 87 q 320 28 267 28 z "},"ć":{"ha":563,"x_min":48,"x_max":501,"o":"m 320 28 q 426 48 387 28 q 474 76 466 69 l 501 37 q 472 20 497 33 q 407 -5 447 7 q 315 -17 366 -17 q 192 16 253 -17 q 89 117 131 49 q 48 285 48 184 q 89 454 48 388 q 192 554 131 521 q 315 587 253 587 q 405 574 366 587 q 467 545 443 560 q 497 524 491 530 l 470 485 q 445 505 464 491 q 396 531 427 519 q 320 542 365 542 q 214 513 267 542 q 127 426 161 483 q 92 285 92 369 q 127 144 92 202 q 214 57 161 87 q 320 28 267 28 m 265 696 l 239 730 l 438 887 l 480 835 l 265 696 z "},"č":{"ha":563,"x_min":48,"x_max":512,"o":"m 320 28 q 426 48 387 28 q 474 76 466 69 l 501 37 q 472 20 497 33 q 407 -5 447 7 q 315 -17 366 -17 q 192 16 253 -17 q 89 117 131 49 q 48 285 48 184 q 89 454 48 388 q 192 554 131 521 q 315 587 253 587 q 405 574 366 587 q 467 545 443 560 q 497 524 491 530 l 470 485 q 445 505 464 491 q 396 531 427 519 q 320 542 365 542 q 214 513 267 542 q 127 426 161 483 q 92 285 92 369 q 127 144 92 202 q 214 57 161 87 q 320 28 267 28 m 335 680 l 158 809 l 192 854 l 335 751 l 478 856 l 512 810 l 335 680 z "},"ç":{"ha":563,"x_min":48,"x_max":501,"o":"m 320 28 q 426 48 387 28 q 474 76 466 69 l 501 37 q 472 20 497 33 q 407 -5 447 7 q 315 -17 366 -17 q 192 16 253 -17 q 89 117 131 49 q 48 285 48 184 q 89 454 48 388 q 192 554 131 521 q 315 587 253 587 q 405 574 366 587 q 467 545 443 560 q 497 524 491 530 l 470 485 q 445 505 464 491 q 396 531 427 519 q 320 542 365 542 q 214 513 267 542 q 127 426 161 483 q 92 285 92 369 q 127 144 92 202 q 214 57 161 87 q 320 28 267 28 m 272 -291 q 198 -279 233 -291 q 146 -256 163 -267 l 176 -218 q 216 -238 189 -228 q 272 -249 242 -249 q 342 -231 313 -249 q 370 -185 370 -214 q 351 -143 370 -156 q 300 -129 332 -129 q 259 -132 278 -129 q 230 -139 240 -135 l 201 -124 l 254 29 l 292 10 l 254 -101 q 321 -94 283 -91 q 389 -116 360 -97 q 418 -176 418 -135 q 395 -240 418 -215 q 339 -278 373 -266 q 272 -291 306 -291 z "},"ĉ":{"ha":563,"x_min":48,"x_max":501,"o":"m 320 28 q 426 48 387 28 q 474 76 466 69 l 501 37 q 472 20 497 33 q 407 -5 447 7 q 315 -17 366 -17 q 192 16 253 -17 q 89 117 131 49 q 48 285 48 184 q 89 454 48 388 q 192 554 131 521 q 315 587 253 587 q 405 574 366 587 q 467 545 443 560 q 497 524 491 530 l 470 485 q 445 505 464 491 q 396 531 427 519 q 320 542 365 542 q 214 513 267 542 q 127 426 161 483 q 92 285 92 369 q 127 144 92 202 q 214 57 161 87 q 320 28 267 28 m 467 650 l 324 756 l 181 651 l 147 697 l 324 826 l 501 696 l 467 650 z "},"ċ":{"ha":563,"x_min":48,"x_max":501,"o":"m 320 28 q 426 48 387 28 q 474 76 466 69 l 501 37 q 472 20 497 33 q 407 -5 447 7 q 315 -17 366 -17 q 192 16 253 -17 q 89 117 131 49 q 48 285 48 184 q 89 454 48 388 q 192 554 131 521 q 315 587 253 587 q 405 574 366 587 q 467 545 443 560 q 497 524 491 530 l 470 485 q 445 505 464 491 q 396 531 427 519 q 320 542 365 542 q 214 513 267 542 q 127 426 161 483 q 92 285 92 369 q 127 144 92 202 q 214 57 161 87 q 320 28 267 28 m 335 726 q 299 741 314 726 q 284 776 284 757 q 299 812 284 797 q 335 828 314 828 q 370 813 355 828 q 386 776 386 797 q 370 741 386 756 q 335 726 355 726 z "},"d":{"ha":687,"x_min":67,"x_max":628,"o":"m 343 -17 q 205 18 267 -17 q 104 120 142 53 q 67 285 67 188 q 104 449 67 382 q 205 552 142 517 q 343 587 267 587 q 465 561 413 587 q 549 501 518 535 q 581 443 579 467 l 581 956 l 628 956 l 628 0 l 583 0 l 583 126 q 551 72 581 106 q 467 10 520 38 q 343 -17 413 -17 m 339 28 q 460 59 405 28 q 548 148 515 90 q 581 285 581 206 q 548 422 581 364 q 460 511 515 479 q 339 542 405 542 q 228 511 280 542 q 144 423 176 481 q 113 285 113 365 q 144 147 113 204 q 228 58 176 89 q 339 28 280 28 z "},"ð":{"ha":743,"x_min":65,"x_max":665,"o":"m 65 285 q 88 411 65 355 q 152 506 111 467 q 245 566 192 545 q 358 587 298 587 q 478 569 430 587 q 552 532 526 552 q 588 502 579 511 q 535 603 573 551 q 445 699 497 654 q 339 774 394 744 l 230 656 l 189 694 l 288 794 q 244 813 272 803 q 188 832 216 824 q 144 844 160 841 l 163 885 q 223 867 191 878 q 282 845 256 856 q 320 830 309 835 l 415 933 l 465 894 l 369 807 q 518 697 451 762 q 625 535 585 632 q 665 296 665 438 q 631 138 665 208 q 531 25 597 67 q 367 -17 465 -17 q 203 22 271 -17 q 100 128 135 60 q 65 285 65 197 m 109 285 q 140 152 109 211 q 229 60 172 94 q 365 26 286 26 q 509 61 452 26 q 593 153 565 95 q 620 285 620 212 q 555 479 620 416 q 365 542 490 542 q 180 474 250 542 q 109 285 109 405 z "},"ď":{"ha":724,"x_min":67,"x_max":825,"o":"m 747 792 l 723 813 q 763 839 742 822 q 788 879 783 857 q 766 874 778 874 q 734 889 747 874 q 721 919 721 903 q 735 955 721 942 q 771 969 749 969 q 809 953 793 969 q 825 914 825 937 q 814 863 825 886 q 785 821 803 839 q 747 792 767 803 m 343 -17 q 205 18 267 -17 q 104 120 142 53 q 67 285 67 188 q 104 449 67 382 q 205 552 142 517 q 343 587 267 587 q 465 561 413 587 q 549 501 518 535 q 581 443 579 467 l 581 956 l 628 956 l 628 0 l 583 0 l 583 126 q 551 72 581 106 q 467 10 520 38 q 343 -17 413 -17 m 339 28 q 460 59 405 28 q 548 148 515 90 q 581 285 581 206 q 548 422 581 364 q 460 511 515 479 q 339 542 405 542 q 228 511 280 542 q 144 423 176 481 q 113 285 113 365 q 144 147 113 204 q 228 58 176 89 q 339 28 280 28 z "},"đ":{"ha":687,"x_min":67,"x_max":689,"o":"m 398 726 l 398 769 l 689 769 l 689 726 l 398 726 m 343 -17 q 205 18 267 -17 q 104 120 142 53 q 67 285 67 188 q 104 449 67 382 q 205 552 142 517 q 343 587 267 587 q 465 561 413 587 q 549 501 518 535 q 581 443 579 467 l 581 956 l 628 956 l 628 0 l 583 0 l 583 126 q 551 72 581 106 q 467 10 520 38 q 343 -17 413 -17 m 339 28 q 460 59 405 28 q 548 148 515 90 q 581 285 581 206 q 548 422 581 364 q 460 511 515 479 q 339 542 405 542 q 228 511 280 542 q 144 423 176 481 q 113 285 113 365 q 144 147 113 204 q 228 58 176 89 q 339 28 280 28 z "},"ǆ":{"ha":1238,"x_min":67,"x_max":1185,"o":"m 343 -17 q 205 18 267 -17 q 104 120 142 53 q 67 285 67 188 q 104 449 67 382 q 205 552 142 517 q 343 587 267 587 q 465 561 413 587 q 549 501 518 535 q 581 443 579 467 l 581 956 l 628 956 l 628 0 l 583 0 l 583 126 q 551 72 581 106 q 467 10 520 38 q 343 -17 413 -17 m 339 28 q 460 59 405 28 q 548 148 515 90 q 581 285 581 206 q 548 422 581 364 q 460 511 515 479 q 339 542 405 542 q 228 511 280 542 q 144 423 176 481 q 113 285 113 365 q 144 147 113 204 q 228 58 176 89 q 339 28 280 28 m 744 570 l 1185 570 l 796 44 l 1177 44 l 1177 0 l 711 0 l 1100 526 l 744 526 l 744 570 m 960 680 l 784 809 l 818 854 l 960 751 l 1104 856 l 1138 810 l 960 680 z "},"e":{"ha":638,"x_min":40,"x_max":570,"o":"m 88 289 q 113 161 88 222 q 189 64 138 101 q 319 26 240 26 q 423 48 382 26 q 486 98 463 69 q 519 149 510 127 l 560 121 q 498 45 532 76 q 420 -1 464 14 q 317 -17 376 -17 q 165 25 227 -17 q 72 138 103 67 q 40 292 40 208 q 73 442 40 376 q 166 548 105 509 q 315 587 228 587 q 449 551 392 587 q 538 453 506 515 q 570 313 570 392 q 569 300 570 306 q 569 289 569 294 l 88 289 m 521 333 q 500 427 519 378 q 437 509 481 476 q 315 543 392 543 q 185 510 233 543 q 116 429 138 478 q 91 333 95 381 l 521 333 z "},"é":{"ha":638,"x_min":40,"x_max":570,"o":"m 88 289 q 113 161 88 222 q 189 64 138 101 q 319 26 240 26 q 423 48 382 26 q 486 98 463 69 q 519 149 510 127 l 560 121 q 498 45 532 76 q 420 -1 464 14 q 317 -17 376 -17 q 165 25 227 -17 q 72 138 103 67 q 40 292 40 208 q 73 442 40 376 q 166 548 105 509 q 315 587 228 587 q 449 551 392 587 q 538 453 506 515 q 570 313 570 392 q 569 300 570 306 q 569 289 569 294 l 88 289 m 521 333 q 500 427 519 378 q 437 509 481 476 q 315 543 392 543 q 185 510 233 543 q 116 429 138 478 q 91 333 95 381 l 521 333 m 227 661 l 201 695 l 399 852 l 442 800 l 227 661 z "},"ĕ":{"ha":638,"x_min":40,"x_max":570,"o":"m 88 289 q 113 161 88 222 q 189 64 138 101 q 319 26 240 26 q 423 48 382 26 q 486 98 463 69 q 519 149 510 127 l 560 121 q 498 45 532 76 q 420 -1 464 14 q 317 -17 376 -17 q 165 25 227 -17 q 72 138 103 67 q 40 292 40 208 q 73 442 40 376 q 166 548 105 509 q 315 587 228 587 q 449 551 392 587 q 538 453 506 515 q 570 313 570 392 q 569 300 570 306 q 569 289 569 294 l 88 289 m 521 333 q 500 427 519 378 q 437 509 481 476 q 315 543 392 543 q 185 510 233 543 q 116 429 138 478 q 91 333 95 381 l 521 333 m 310 684 q 225 705 260 684 q 171 754 190 725 q 149 808 151 783 l 206 823 q 223 783 210 804 q 257 748 235 763 q 310 734 279 734 q 362 748 340 734 q 396 783 383 763 q 412 823 408 804 l 471 808 q 449 755 468 784 q 395 705 430 726 q 310 684 360 684 z "},"ě":{"ha":653,"x_min":40,"x_max":570,"o":"m 88 289 q 113 161 88 222 q 189 64 138 101 q 319 26 240 26 q 423 48 382 26 q 486 98 463 69 q 519 149 510 127 l 560 121 q 498 45 532 76 q 420 -1 464 14 q 317 -17 376 -17 q 165 25 227 -17 q 72 138 103 67 q 40 292 40 208 q 73 442 40 376 q 166 548 105 509 q 315 587 228 587 q 449 551 392 587 q 538 453 506 515 q 570 313 570 392 q 569 300 570 306 q 569 289 569 294 l 88 289 m 521 333 q 500 427 519 378 q 437 509 481 476 q 315 543 392 543 q 185 510 233 543 q 116 429 138 478 q 91 333 95 381 l 521 333 m 313 680 l 137 809 l 171 854 l 313 751 l 457 856 l 490 810 l 313 680 z "},"ê":{"ha":638,"x_min":40,"x_max":570,"o":"m 88 289 q 113 161 88 222 q 189 64 138 101 q 319 26 240 26 q 423 48 382 26 q 486 98 463 69 q 519 149 510 127 l 560 121 q 498 45 532 76 q 420 -1 464 14 q 317 -17 376 -17 q 165 25 227 -17 q 72 138 103 67 q 40 292 40 208 q 73 442 40 376 q 166 548 105 509 q 315 587 228 587 q 449 551 392 587 q 538 453 506 515 q 570 313 570 392 q 569 300 570 306 q 569 289 569 294 l 88 289 m 521 333 q 500 427 519 378 q 437 509 481 476 q 315 543 392 543 q 185 510 233 543 q 116 429 138 478 q 91 333 95 381 l 521 333 m 453 650 l 310 756 l 167 651 l 133 697 l 310 826 l 487 696 l 453 650 z "},"ế":{"ha":638,"x_min":40,"x_max":652,"o":"m 88 289 q 113 161 88 222 q 189 64 138 101 q 319 26 240 26 q 423 48 382 26 q 486 98 463 69 q 519 149 510 127 l 560 121 q 498 45 532 76 q 420 -1 464 14 q 317 -17 376 -17 q 165 25 227 -17 q 72 138 103 67 q 40 292 40 208 q 73 442 40 376 q 166 548 105 509 q 315 587 228 587 q 449 551 392 587 q 538 453 506 515 q 570 313 570 392 q 569 300 570 306 q 569 289 569 294 l 88 289 m 521 333 q 500 427 519 378 q 437 509 481 476 q 315 543 392 543 q 185 510 233 543 q 116 429 138 478 q 91 333 95 381 l 521 333 m 453 644 l 310 750 l 167 646 l 133 691 l 310 820 l 487 690 l 453 644 m 438 810 l 411 844 l 610 1001 l 652 949 l 438 810 z "},"ệ":{"ha":638,"x_min":40,"x_max":570,"o":"m 88 289 q 113 161 88 222 q 189 64 138 101 q 319 26 240 26 q 423 48 382 26 q 486 98 463 69 q 519 149 510 127 l 560 121 q 498 45 532 76 q 420 -1 464 14 q 317 -17 376 -17 q 165 25 227 -17 q 72 138 103 67 q 40 292 40 208 q 73 442 40 376 q 166 548 105 509 q 315 587 228 587 q 449 551 392 587 q 538 453 506 515 q 570 313 570 392 q 569 300 570 306 q 569 289 569 294 l 88 289 m 521 333 q 500 427 519 378 q 437 509 481 476 q 315 543 392 543 q 185 510 233 543 q 116 429 138 478 q 91 333 95 381 l 521 333 m 310 -210 q 274 -195 289 -210 q 259 -160 259 -179 q 274 -124 259 -140 q 310 -108 289 -108 q 345 -124 330 -108 q 361 -160 361 -139 q 345 -195 361 -181 q 310 -210 330 -210 m 453 650 l 310 756 l 167 651 l 133 697 l 310 826 l 487 696 l 453 650 z "},"ề":{"ha":638,"x_min":40,"x_max":577,"o":"m 88 289 q 113 161 88 222 q 189 64 138 101 q 319 26 240 26 q 423 48 382 26 q 486 98 463 69 q 519 149 510 127 l 560 121 q 498 45 532 76 q 420 -1 464 14 q 317 -17 376 -17 q 165 25 227 -17 q 72 138 103 67 q 40 292 40 208 q 73 442 40 376 q 166 548 105 509 q 315 587 228 587 q 449 551 392 587 q 538 453 506 515 q 570 313 570 392 q 569 300 570 306 q 569 289 569 294 l 88 289 m 521 333 q 500 427 519 378 q 437 509 481 476 q 315 543 392 543 q 185 510 233 543 q 116 429 138 478 q 91 333 95 381 l 521 333 m 457 644 l 313 750 l 171 646 l 137 691 l 313 820 l 490 690 l 457 644 m 550 787 l 336 926 l 377 978 l 577 821 l 550 787 z "},"ể":{"ha":638,"x_min":40,"x_max":583,"o":"m 88 289 q 113 161 88 222 q 189 64 138 101 q 319 26 240 26 q 423 48 382 26 q 486 98 463 69 q 519 149 510 127 l 560 121 q 498 45 532 76 q 420 -1 464 14 q 317 -17 376 -17 q 165 25 227 -17 q 72 138 103 67 q 40 292 40 208 q 73 442 40 376 q 166 548 105 509 q 315 587 228 587 q 449 551 392 587 q 538 453 506 515 q 570 313 570 392 q 569 300 570 306 q 569 289 569 294 l 88 289 m 521 333 q 500 427 519 378 q 437 509 481 476 q 315 543 392 543 q 185 510 233 543 q 116 429 138 478 q 91 333 95 381 l 521 333 m 435 785 l 409 822 q 459 842 428 826 q 513 885 489 858 q 537 953 537 913 q 520 1012 537 994 q 479 1034 503 1030 q 433 1039 455 1039 q 366 1027 403 1039 q 308 1005 328 1015 l 308 1049 q 356 1070 320 1058 q 447 1083 391 1083 q 513 1072 482 1083 q 564 1034 544 1061 q 583 959 583 1008 q 569 892 583 921 q 532 843 555 864 q 484 809 509 823 q 435 785 458 795 m 454 644 l 310 750 l 168 646 l 134 691 l 310 820 l 488 690 l 454 644 z "},"ễ":{"ha":638,"x_min":40,"x_max":570,"o":"m 88 289 q 113 161 88 222 q 189 64 138 101 q 319 26 240 26 q 423 48 382 26 q 486 98 463 69 q 519 149 510 127 l 560 121 q 498 45 532 76 q 420 -1 464 14 q 317 -17 376 -17 q 165 25 227 -17 q 72 138 103 67 q 40 292 40 208 q 73 442 40 376 q 166 548 105 509 q 315 587 228 587 q 449 551 392 587 q 538 453 506 515 q 570 313 570 392 q 569 300 570 306 q 569 289 569 294 l 88 289 m 521 333 q 500 427 519 378 q 437 509 481 476 q 315 543 392 543 q 185 510 233 543 q 116 429 138 478 q 91 333 95 381 l 521 333 m 103 854 q 125 902 110 878 q 165 944 141 927 q 219 962 188 962 q 286 948 260 962 q 334 921 312 935 q 389 908 357 908 q 433 926 417 908 q 453 962 449 944 l 519 962 q 495 914 512 939 q 455 872 479 889 q 400 854 431 854 q 332 868 358 854 q 284 894 305 881 q 238 908 263 908 q 193 890 211 908 q 169 854 176 872 l 103 854 m 451 644 l 307 750 l 165 646 l 131 691 l 307 820 l 484 690 l 451 644 z "},"ȅ":{"ha":638,"x_min":-8,"x_max":570,"o":"m 88 289 q 113 161 88 222 q 189 64 138 101 q 319 26 240 26 q 423 48 382 26 q 486 98 463 69 q 519 149 510 127 l 560 121 q 498 45 532 76 q 420 -1 464 14 q 317 -17 376 -17 q 165 25 227 -17 q 72 138 103 67 q 40 292 40 208 q 73 442 40 376 q 166 548 105 509 q 315 587 228 587 q 449 551 392 587 q 538 453 506 515 q 570 313 570 392 q 569 300 570 306 q 569 289 569 294 l 88 289 m 521 333 q 500 427 519 378 q 437 509 481 476 q 315 543 392 543 q 185 510 233 543 q 116 429 138 478 q 91 333 95 381 l 521 333 m 435 696 l 222 835 l 263 887 l 463 730 l 435 696 m 206 696 l -8 835 l 33 887 l 233 730 l 206 696 z "},"ë":{"ha":638,"x_min":40,"x_max":570,"o":"m 88 289 q 113 161 88 222 q 189 64 138 101 q 319 26 240 26 q 423 48 382 26 q 486 98 463 69 q 519 149 510 127 l 560 121 q 498 45 532 76 q 420 -1 464 14 q 317 -17 376 -17 q 165 25 227 -17 q 72 138 103 67 q 40 292 40 208 q 73 442 40 376 q 166 548 105 509 q 315 587 228 587 q 449 551 392 587 q 538 453 506 515 q 570 313 570 392 q 569 300 570 306 q 569 289 569 294 l 88 289 m 521 333 q 500 427 519 378 q 437 509 481 476 q 315 543 392 543 q 185 510 233 543 q 116 429 138 478 q 91 333 95 381 l 521 333 m 451 706 q 416 721 431 706 q 401 756 401 737 q 416 792 401 776 q 451 808 431 808 q 487 792 472 808 q 503 756 503 777 q 487 720 503 735 q 451 706 472 706 m 188 706 q 152 721 167 706 q 138 756 138 737 q 152 792 138 776 q 188 808 167 808 q 224 792 208 808 q 240 756 240 777 q 224 720 240 735 q 188 706 208 706 z "},"ė":{"ha":638,"x_min":40,"x_max":570,"o":"m 88 289 q 113 161 88 222 q 189 64 138 101 q 319 26 240 26 q 423 48 382 26 q 486 98 463 69 q 519 149 510 127 l 560 121 q 498 45 532 76 q 420 -1 464 14 q 317 -17 376 -17 q 165 25 227 -17 q 72 138 103 67 q 40 292 40 208 q 73 442 40 376 q 166 548 105 509 q 315 587 228 587 q 449 551 392 587 q 538 453 506 515 q 570 313 570 392 q 569 300 570 306 q 569 289 569 294 l 88 289 m 521 333 q 500 427 519 378 q 437 509 481 476 q 315 543 392 543 q 185 510 233 543 q 116 429 138 478 q 91 333 95 381 l 521 333 m 313 726 q 277 741 292 726 q 263 776 263 757 q 277 812 263 797 q 313 828 292 828 q 349 813 333 828 q 365 776 365 797 q 349 741 365 756 q 313 726 333 726 z "},"ẹ":{"ha":638,"x_min":40,"x_max":570,"o":"m 88 289 q 113 161 88 222 q 189 64 138 101 q 319 26 240 26 q 423 48 382 26 q 486 98 463 69 q 519 149 510 127 l 560 121 q 498 45 532 76 q 420 -1 464 14 q 317 -17 376 -17 q 165 25 227 -17 q 72 138 103 67 q 40 292 40 208 q 73 442 40 376 q 166 548 105 509 q 315 587 228 587 q 449 551 392 587 q 538 453 506 515 q 570 313 570 392 q 569 300 570 306 q 569 289 569 294 l 88 289 m 521 333 q 500 427 519 378 q 437 509 481 476 q 315 543 392 543 q 185 510 233 543 q 116 429 138 478 q 91 333 95 381 l 521 333 m 310 -210 q 274 -195 289 -210 q 259 -160 259 -179 q 274 -124 259 -140 q 310 -108 289 -108 q 345 -124 330 -108 q 361 -160 361 -139 q 345 -195 361 -181 q 310 -210 330 -210 z "},"è":{"ha":638,"x_min":40,"x_max":570,"o":"m 88 289 q 113 161 88 222 q 189 64 138 101 q 319 26 240 26 q 423 48 382 26 q 486 98 463 69 q 519 149 510 127 l 560 121 q 498 45 532 76 q 420 -1 464 14 q 317 -17 376 -17 q 165 25 227 -17 q 72 138 103 67 q 40 292 40 208 q 73 442 40 376 q 166 548 105 509 q 315 587 228 587 q 449 551 392 587 q 538 453 506 515 q 570 313 570 392 q 569 300 570 306 q 569 289 569 294 l 88 289 m 521 333 q 500 427 519 378 q 437 509 481 476 q 315 543 392 543 q 185 510 233 543 q 116 429 138 478 q 91 333 95 381 l 521 333 m 415 696 l 201 835 l 242 887 l 442 730 l 415 696 z "},"ẻ":{"ha":638,"x_min":40,"x_max":570,"o":"m 88 289 q 113 161 88 222 q 189 64 138 101 q 319 26 240 26 q 423 48 382 26 q 486 98 463 69 q 519 149 510 127 l 560 121 q 498 45 532 76 q 420 -1 464 14 q 317 -17 376 -17 q 165 25 227 -17 q 72 138 103 67 q 40 292 40 208 q 73 442 40 376 q 166 548 105 509 q 315 587 228 587 q 449 551 392 587 q 538 453 506 515 q 570 313 570 392 q 569 300 570 306 q 569 289 569 294 l 88 289 m 521 333 q 500 427 519 378 q 437 509 481 476 q 315 543 392 543 q 185 510 233 543 q 116 429 138 478 q 91 333 95 381 l 521 333 m 299 610 l 273 646 q 323 666 292 651 q 377 710 353 682 q 401 778 401 738 q 384 836 401 819 q 343 859 367 854 q 297 863 319 863 q 230 851 267 863 q 172 829 192 840 l 172 874 q 219 894 184 882 q 310 907 255 907 q 377 896 346 907 q 428 859 408 885 q 447 783 447 832 q 433 717 447 745 q 396 668 419 688 q 348 633 373 647 q 299 610 322 619 z "},"ȇ":{"ha":638,"x_min":40,"x_max":570,"o":"m 88 289 q 113 161 88 222 q 189 64 138 101 q 319 26 240 26 q 423 48 382 26 q 486 98 463 69 q 519 149 510 127 l 560 121 q 498 45 532 76 q 420 -1 464 14 q 317 -17 376 -17 q 165 25 227 -17 q 72 138 103 67 q 40 292 40 208 q 73 442 40 376 q 166 548 105 509 q 315 587 228 587 q 449 551 392 587 q 538 453 506 515 q 570 313 570 392 q 569 300 570 306 q 569 289 569 294 l 88 289 m 521 333 q 500 427 519 378 q 437 509 481 476 q 315 543 392 543 q 185 510 233 543 q 116 429 138 478 q 91 333 95 381 l 521 333 m 207 687 l 148 701 q 170 755 151 726 q 224 805 189 784 q 309 826 259 826 q 394 805 359 826 q 448 756 428 785 q 470 701 467 727 l 413 687 q 396 727 409 706 q 361 761 383 747 q 309 776 340 776 q 257 761 278 776 q 223 727 235 747 q 207 687 211 706 z "},"ē":{"ha":653,"x_min":40,"x_max":570,"o":"m 88 289 q 113 161 88 222 q 189 64 138 101 q 319 26 240 26 q 423 48 382 26 q 486 98 463 69 q 519 149 510 127 l 560 121 q 498 45 532 76 q 420 -1 464 14 q 317 -17 376 -17 q 165 25 227 -17 q 72 138 103 67 q 40 292 40 208 q 73 442 40 376 q 166 548 105 509 q 315 587 228 587 q 449 551 392 587 q 538 453 506 515 q 570 313 570 392 q 569 300 570 306 q 569 289 569 294 l 88 289 m 521 333 q 500 427 519 378 q 437 509 481 476 q 315 543 392 543 q 185 510 233 543 q 116 429 138 478 q 91 333 95 381 l 521 333 m 131 749 l 131 793 l 501 793 l 501 749 l 131 749 z "},"ę":{"ha":653,"x_min":40,"x_max":570,"o":"m 88 289 q 113 161 88 222 q 189 64 138 101 q 319 26 240 26 q 423 48 382 26 q 486 98 463 69 q 519 149 510 127 l 560 121 q 498 45 532 76 q 420 -1 464 14 q 317 -17 376 -17 q 165 25 227 -17 q 72 138 103 67 q 40 292 40 208 q 73 442 40 376 q 166 548 105 509 q 315 587 228 587 q 449 551 392 587 q 538 453 506 515 q 570 313 570 392 q 569 300 570 306 q 569 289 569 294 l 88 289 m 521 333 q 500 427 519 378 q 437 509 481 476 q 315 543 392 543 q 185 510 233 543 q 116 429 138 478 q 91 333 95 381 l 521 333 m 385 -292 q 324 -283 356 -292 q 272 -247 293 -273 q 250 -174 250 -222 q 271 -99 250 -137 q 322 -27 292 -60 q 380 28 352 6 l 410 0 q 362 -49 388 -20 q 319 -110 337 -78 q 301 -170 301 -142 q 330 -234 301 -217 q 398 -250 359 -250 q 459 -233 432 -250 q 499 -197 485 -216 l 537 -226 q 476 -272 521 -252 q 385 -292 432 -292 z "},"ẽ":{"ha":638,"x_min":40,"x_max":570,"o":"m 88 289 q 113 161 88 222 q 189 64 138 101 q 319 26 240 26 q 423 48 382 26 q 486 98 463 69 q 519 149 510 127 l 560 121 q 498 45 532 76 q 420 -1 464 14 q 317 -17 376 -17 q 165 25 227 -17 q 72 138 103 67 q 40 292 40 208 q 73 442 40 376 q 166 548 105 509 q 315 587 228 587 q 449 551 392 587 q 538 453 506 515 q 570 313 570 392 q 569 300 570 306 q 569 289 569 294 l 88 289 m 521 333 q 500 427 519 378 q 437 509 481 476 q 315 543 392 543 q 185 510 233 543 q 116 429 138 478 q 91 333 95 381 l 521 333 m 113 712 q 135 760 119 735 q 174 802 151 785 q 228 819 198 819 q 296 806 270 819 q 344 779 322 792 q 399 765 367 765 q 443 784 427 765 q 463 819 458 802 l 529 819 q 505 772 522 797 q 465 729 489 747 q 410 712 440 712 q 341 725 368 712 q 293 752 315 739 q 247 765 272 765 q 203 747 221 765 q 179 712 185 729 l 113 712 z "},"ə":{"ha":638,"x_min":68,"x_max":598,"o":"m 324 -17 q 189 19 247 -17 q 100 117 132 55 q 68 258 68 178 q 69 270 68 264 q 69 281 69 276 l 551 281 q 526 409 551 349 q 450 506 501 469 q 319 544 399 544 q 216 522 257 544 q 152 472 175 501 q 119 422 129 443 l 78 449 q 141 526 107 495 q 218 572 174 556 q 322 587 263 587 q 473 545 412 587 q 566 433 535 503 q 598 278 598 363 q 566 128 598 194 q 472 22 533 61 q 324 -17 410 -17 m 324 27 q 453 60 406 27 q 522 141 501 92 q 547 237 544 190 l 117 237 q 138 143 119 192 q 201 61 157 94 q 324 27 246 27 z "},"f":{"ha":424,"x_min":24,"x_max":431,"o":"m 24 570 l 159 570 l 159 741 q 185 881 159 831 q 249 952 210 931 q 328 972 288 972 q 401 959 375 972 q 431 942 428 945 l 410 903 q 384 918 406 907 q 324 930 363 930 q 267 916 294 930 q 220 859 239 901 q 202 732 202 817 l 202 570 l 382 570 l 382 526 l 202 526 l 202 0 l 159 0 l 159 526 l 24 526 l 24 570 z "},"g":{"ha":707,"x_min":40,"x_max":600,"o":"m 335 -304 q 210 -287 261 -304 q 127 -245 159 -271 q 79 -194 95 -220 l 121 -163 q 154 -203 132 -181 q 218 -242 176 -226 q 335 -259 261 -259 q 458 -225 408 -259 q 532 -134 507 -190 q 557 -12 557 -78 l 557 10 l 600 10 l 600 -17 q 564 -174 600 -110 q 468 -271 528 -238 q 335 -304 408 -304 m 557 0 l 557 126 q 525 73 553 107 q 447 11 497 38 q 328 -17 397 -17 q 186 18 252 -17 q 81 120 121 53 q 40 285 40 188 q 81 449 40 382 q 186 552 121 517 q 328 587 252 587 q 447 560 397 587 q 526 499 497 533 q 557 443 555 465 l 557 570 l 600 570 l 600 0 l 557 0 m 85 285 q 119 147 85 204 q 209 58 154 89 q 324 28 264 28 q 442 59 390 28 q 524 148 494 90 q 554 285 554 206 q 524 422 554 364 q 442 511 494 479 q 324 542 390 542 q 209 511 264 542 q 119 423 154 481 q 85 285 85 365 z "},"ğ":{"ha":726,"x_min":40,"x_max":600,"o":"m 335 -304 q 210 -287 261 -304 q 127 -245 159 -271 q 79 -194 95 -220 l 121 -163 q 154 -203 132 -181 q 218 -242 176 -226 q 335 -259 261 -259 q 458 -225 408 -259 q 532 -134 507 -190 q 557 -12 557 -78 l 557 10 l 600 10 l 600 -17 q 564 -174 600 -110 q 468 -271 528 -238 q 335 -304 408 -304 m 557 0 l 557 126 q 525 73 553 107 q 447 11 497 38 q 328 -17 397 -17 q 186 18 252 -17 q 81 120 121 53 q 40 285 40 188 q 81 449 40 382 q 186 552 121 517 q 328 587 252 587 q 447 560 397 587 q 526 499 497 533 q 557 443 555 465 l 557 570 l 600 570 l 600 0 l 557 0 m 85 285 q 119 147 85 204 q 209 58 154 89 q 324 28 264 28 q 442 59 390 28 q 524 148 494 90 q 554 285 554 206 q 524 422 554 364 q 442 511 494 479 q 324 542 390 542 q 209 511 264 542 q 119 423 154 481 q 85 285 85 365 m 326 684 q 242 705 277 684 q 188 754 207 725 q 165 808 168 783 l 223 823 q 240 783 227 804 q 274 748 252 763 q 326 734 296 734 q 378 748 357 734 q 413 783 400 763 q 428 823 425 804 l 488 808 q 466 755 485 784 q 411 705 447 726 q 326 684 376 684 z "},"ǧ":{"ha":707,"x_min":40,"x_max":600,"o":"m 335 -304 q 210 -287 261 -304 q 127 -245 159 -271 q 79 -194 95 -220 l 121 -163 q 154 -203 132 -181 q 218 -242 176 -226 q 335 -259 261 -259 q 458 -225 408 -259 q 532 -134 507 -190 q 557 -12 557 -78 l 557 10 l 600 10 l 600 -17 q 564 -174 600 -110 q 468 -271 528 -238 q 335 -304 408 -304 m 557 0 l 557 126 q 525 73 553 107 q 447 11 497 38 q 328 -17 397 -17 q 186 18 252 -17 q 81 120 121 53 q 40 285 40 188 q 81 449 40 382 q 186 552 121 517 q 328 587 252 587 q 447 560 397 587 q 526 499 497 533 q 557 443 555 465 l 557 570 l 600 570 l 600 0 l 557 0 m 85 285 q 119 147 85 204 q 209 58 154 89 q 324 28 264 28 q 442 59 390 28 q 524 148 494 90 q 554 285 554 206 q 524 422 554 364 q 442 511 494 479 q 324 542 390 542 q 209 511 264 542 q 119 423 154 481 q 85 285 85 365 m 338 680 l 161 809 l 195 854 l 338 751 l 481 856 l 515 810 l 338 680 z "},"ĝ":{"ha":707,"x_min":40,"x_max":600,"o":"m 335 -304 q 210 -287 261 -304 q 127 -245 159 -271 q 79 -194 95 -220 l 121 -163 q 154 -203 132 -181 q 218 -242 176 -226 q 335 -259 261 -259 q 458 -225 408 -259 q 532 -134 507 -190 q 557 -12 557 -78 l 557 10 l 600 10 l 600 -17 q 564 -174 600 -110 q 468 -271 528 -238 q 335 -304 408 -304 m 557 0 l 557 126 q 525 73 553 107 q 447 11 497 38 q 328 -17 397 -17 q 186 18 252 -17 q 81 120 121 53 q 40 285 40 188 q 81 449 40 382 q 186 552 121 517 q 328 587 252 587 q 447 560 397 587 q 526 499 497 533 q 557 443 555 465 l 557 570 l 600 570 l 600 0 l 557 0 m 85 285 q 119 147 85 204 q 209 58 154 89 q 324 28 264 28 q 442 59 390 28 q 524 148 494 90 q 554 285 554 206 q 524 422 554 364 q 442 511 494 479 q 324 542 390 542 q 209 511 264 542 q 119 423 154 481 q 85 285 85 365 m 470 650 l 326 756 l 184 651 l 150 697 l 326 826 l 503 696 l 470 650 z "},"ģ":{"ha":707,"x_min":40,"x_max":600,"o":"m 335 -304 q 210 -287 261 -304 q 127 -245 159 -271 q 79 -194 95 -220 l 121 -163 q 154 -203 132 -181 q 218 -242 176 -226 q 335 -259 261 -259 q 458 -225 408 -259 q 532 -134 507 -190 q 557 -12 557 -78 l 557 10 l 600 10 l 600 -17 q 564 -174 600 -110 q 468 -271 528 -238 q 335 -304 408 -304 m 557 0 l 557 126 q 525 73 553 107 q 447 11 497 38 q 328 -17 397 -17 q 186 18 252 -17 q 81 120 121 53 q 40 285 40 188 q 81 449 40 382 q 186 552 121 517 q 328 587 252 587 q 447 560 397 587 q 526 499 497 533 q 557 443 555 465 l 557 570 l 600 570 l 600 0 l 557 0 m 85 285 q 119 147 85 204 q 209 58 154 89 q 324 28 264 28 q 442 59 390 28 q 524 148 494 90 q 554 285 554 206 q 524 422 554 364 q 442 511 494 479 q 324 542 390 542 q 209 511 264 542 q 119 423 154 481 q 85 285 85 365 m 304 660 q 264 677 281 660 q 247 719 247 694 q 259 774 247 749 q 289 818 270 799 q 329 848 308 837 l 355 825 q 313 798 335 816 q 286 755 291 779 q 309 760 297 760 q 344 745 330 760 q 358 713 358 730 q 343 675 358 690 q 304 660 328 660 z "},"ġ":{"ha":707,"x_min":40,"x_max":600,"o":"m 335 -304 q 210 -287 261 -304 q 127 -245 159 -271 q 79 -194 95 -220 l 121 -163 q 154 -203 132 -181 q 218 -242 176 -226 q 335 -259 261 -259 q 458 -225 408 -259 q 532 -134 507 -190 q 557 -12 557 -78 l 557 10 l 600 10 l 600 -17 q 564 -174 600 -110 q 468 -271 528 -238 q 335 -304 408 -304 m 557 0 l 557 126 q 525 73 553 107 q 447 11 497 38 q 328 -17 397 -17 q 186 18 252 -17 q 81 120 121 53 q 40 285 40 188 q 81 449 40 382 q 186 552 121 517 q 328 587 252 587 q 447 560 397 587 q 526 499 497 533 q 557 443 555 465 l 557 570 l 600 570 l 600 0 l 557 0 m 85 285 q 119 147 85 204 q 209 58 154 89 q 324 28 264 28 q 442 59 390 28 q 524 148 494 90 q 554 285 554 206 q 524 422 554 364 q 442 511 494 479 q 324 542 390 542 q 209 511 264 542 q 119 423 154 481 q 85 285 85 365 m 337 726 q 301 741 316 726 q 286 776 286 757 q 301 812 286 797 q 337 828 316 828 q 373 813 357 828 q 388 776 388 797 q 373 741 388 756 q 337 726 357 726 z "},"h":{"ha":674,"x_min":94,"x_max":563,"o":"m 346 587 q 448 564 398 587 q 530 491 498 541 q 563 363 563 442 l 563 0 l 517 0 l 517 348 q 468 498 517 453 q 344 542 419 542 q 248 513 294 542 q 171 434 201 484 q 141 322 141 384 l 141 0 l 94 0 l 94 956 l 141 956 l 141 453 q 173 510 145 478 q 247 564 201 541 q 346 587 292 587 z "},"ħ":{"ha":674,"x_min":15,"x_max":563,"o":"m 15 726 l 15 769 l 307 769 l 307 726 l 15 726 m 346 587 q 448 564 398 587 q 530 491 498 541 q 563 363 563 442 l 563 0 l 517 0 l 517 348 q 468 498 517 453 q 344 542 419 542 q 248 513 294 542 q 171 434 201 484 q 141 322 141 384 l 141 0 l 94 0 l 94 956 l 141 956 l 141 453 q 173 510 145 478 q 247 564 201 541 q 346 587 292 587 z "},"ĥ":{"ha":674,"x_min":94,"x_max":563,"o":"m 346 587 q 448 564 398 587 q 530 491 498 541 q 563 363 563 442 l 563 0 l 517 0 l 517 348 q 468 498 517 453 q 344 542 419 542 q 248 513 294 542 q 171 434 201 484 q 141 322 141 384 l 141 0 l 94 0 l 94 956 l 141 956 l 141 453 q 173 510 145 478 q 247 564 201 541 q 346 587 292 587 m 484 990 l 340 1095 l 198 991 l 164 1036 l 340 1165 l 517 1035 l 484 990 z "},"i":{"ha":281,"x_min":81,"x_max":174,"o":"m 103 0 l 103 570 l 148 570 l 148 0 l 103 0 m 126 831 q 94 844 108 831 q 81 876 81 858 q 95 909 81 896 q 126 922 108 922 q 150 916 139 922 q 167 900 160 910 q 174 876 174 890 q 160 844 174 858 q 126 831 146 831 z "},"ı":{"ha":235,"x_min":82,"x_max":126,"o":"m 82 0 l 82 570 l 126 570 l 126 0 l 82 0 z "},"í":{"ha":235,"x_min":-5,"x_max":236,"o":"m 82 0 l 82 570 l 126 570 l 126 0 l 82 0 m 22 661 l -5 695 l 194 852 l 236 800 l 22 661 z "},"ĭ":{"ha":235,"x_min":-57,"x_max":265,"o":"m 82 0 l 82 570 l 126 570 l 126 0 l 82 0 m 104 684 q 20 705 55 684 q -35 754 -15 725 q -57 808 -54 783 l 1 823 q 17 783 5 804 q 52 748 30 763 q 104 734 74 734 q 156 748 135 734 q 190 783 178 763 q 206 823 203 804 l 265 808 q 243 755 263 784 q 189 705 224 726 q 104 684 154 684 z "},"ǐ":{"ha":235,"x_min":-61,"x_max":292,"o":"m 82 0 l 82 570 l 126 570 l 126 0 l 82 0 m 115 680 l -61 809 l -27 854 l 115 751 l 259 856 l 292 810 l 115 680 z "},"î":{"ha":235,"x_min":-72,"x_max":281,"o":"m 82 0 l 82 570 l 126 570 l 126 0 l 82 0 m 248 650 l 104 756 l -38 651 l -72 697 l 104 826 l 281 696 l 248 650 z "},"ȉ":{"ha":235,"x_min":-213,"x_max":257,"o":"m 82 0 l 82 570 l 126 570 l 126 0 l 82 0 m 230 696 l 16 835 l 57 887 l 257 730 l 230 696 m 1 696 l -213 835 l -172 887 l 28 730 l 1 696 z "},"ï":{"ha":235,"x_min":-68,"x_max":297,"o":"m 82 0 l 82 570 l 126 570 l 126 0 l 82 0 m 246 706 q 210 721 225 706 q 195 756 195 737 q 210 792 195 776 q 246 808 225 808 q 282 792 266 808 q 297 756 297 777 q 282 720 297 735 q 246 706 266 706 m -17 706 q -53 721 -38 706 q -68 756 -68 737 q -53 792 -68 776 q -17 808 -38 808 q 18 792 3 808 q 34 756 34 777 q 18 720 34 735 q -17 706 3 706 z "},"ị":{"ha":281,"x_min":76,"x_max":178,"o":"m 103 0 l 103 570 l 148 570 l 148 0 l 103 0 m 126 831 q 94 844 108 831 q 81 876 81 858 q 95 909 81 896 q 126 922 108 922 q 150 916 139 922 q 167 900 160 910 q 174 876 174 890 q 160 844 174 858 q 126 831 146 831 m 126 -210 q 91 -195 106 -210 q 76 -160 76 -179 q 91 -124 76 -140 q 126 -108 106 -108 q 162 -124 147 -108 q 178 -160 178 -139 q 162 -195 178 -181 q 126 -210 147 -210 z "},"ì":{"ha":235,"x_min":-4,"x_max":237,"o":"m 82 0 l 82 570 l 126 570 l 126 0 l 82 0 m 210 696 l -4 835 l 37 887 l 237 730 l 210 696 z "},"ỉ":{"ha":235,"x_min":-34,"x_max":242,"o":"m 82 0 l 82 570 l 126 570 l 126 0 l 82 0 m 94 610 l 67 646 q 117 666 87 651 q 171 710 147 682 q 195 778 195 738 q 178 836 195 819 q 137 859 161 854 q 92 863 113 863 q 24 851 62 863 q -34 829 -13 840 l -34 874 q 14 894 -22 882 q 105 907 49 907 q 172 896 140 907 q 222 859 203 885 q 242 783 242 832 q 227 717 242 745 q 190 668 213 688 q 142 633 167 647 q 94 610 117 619 z "},"ȋ":{"ha":235,"x_min":-58,"x_max":265,"o":"m 82 0 l 82 570 l 126 570 l 126 0 l 82 0 m 1 687 l -58 701 q -36 755 -55 726 q 18 805 -17 784 q 103 826 53 826 q 188 805 153 826 q 242 756 223 785 q 265 701 262 727 l 207 687 q 191 727 203 706 q 156 761 178 747 q 103 776 134 776 q 51 761 73 776 q 18 727 30 747 q 1 687 6 706 z "},"ī":{"ha":235,"x_min":-80,"x_max":290,"o":"m 82 0 l 82 570 l 126 570 l 126 0 l 82 0 m -80 749 l -80 793 l 290 793 l 290 749 l -80 749 z "},"į":{"ha":281,"x_min":-12,"x_max":275,"o":"m 103 0 l 103 570 l 148 570 l 148 0 l 103 0 m 126 831 q 94 844 108 831 q 81 876 81 858 q 95 909 81 896 q 126 922 108 922 q 150 916 139 922 q 167 900 160 910 q 174 876 174 890 q 160 844 174 858 q 126 831 146 831 m 123 -292 q 63 -283 94 -292 q 10 -247 31 -273 q -12 -174 -12 -222 q 9 -99 -12 -137 q 60 -27 30 -60 q 118 28 90 6 l 148 0 q 100 -49 126 -20 q 57 -110 75 -78 q 40 -170 40 -142 q 68 -234 40 -217 q 136 -250 97 -250 q 197 -233 170 -250 q 237 -197 224 -216 l 275 -226 q 215 -272 259 -252 q 123 -292 170 -292 z "},"ĩ":{"ha":235,"x_min":-93,"x_max":324,"o":"m 82 0 l 82 570 l 126 570 l 126 0 l 82 0 m -93 712 q -70 760 -86 735 q -31 802 -55 785 q 23 819 -8 819 q 90 806 65 819 q 139 779 116 792 q 193 765 161 765 q 237 784 222 765 q 257 819 253 802 l 324 819 q 300 772 316 797 q 259 729 283 747 q 204 712 235 712 q 136 725 163 712 q 88 752 109 739 q 42 765 67 765 q -2 747 15 765 q -26 712 -20 729 l -93 712 z "},"j":{"ha":297,"x_min":-54,"x_max":199,"o":"m 35 -306 q -22 -297 2 -306 q -54 -280 -45 -288 l -26 -242 q -7 -255 -19 -249 q 35 -261 6 -261 q 95 -236 76 -261 q 120 -165 115 -210 q 126 -61 126 -120 l 126 570 l 171 570 l 171 -87 q 159 -205 171 -156 q 118 -280 147 -253 q 35 -306 88 -306 m 153 831 q 121 844 134 831 q 108 876 108 858 q 114 899 108 889 q 131 916 120 910 q 153 922 141 922 q 177 916 167 922 q 193 899 187 910 q 199 876 199 889 q 186 844 199 858 q 153 831 173 831 z "},"ȷ":{"ha":297,"x_min":-54,"x_max":171,"o":"m 35 -306 q -22 -297 2 -306 q -54 -280 -45 -288 l -26 -242 q -7 -255 -19 -249 q 35 -261 6 -261 q 95 -236 76 -261 q 120 -165 115 -210 q 126 -61 126 -120 l 126 570 l 171 570 l 171 -87 q 159 -205 171 -156 q 118 -280 147 -253 q 35 -306 88 -306 z "},"ĵ":{"ha":297,"x_min":-54,"x_max":326,"o":"m 35 -306 q -22 -297 2 -306 q -54 -280 -45 -288 l -26 -242 q -7 -255 -19 -249 q 35 -261 6 -261 q 95 -236 76 -261 q 120 -165 115 -210 q 126 -61 126 -120 l 126 570 l 171 570 l 171 -87 q 159 -205 171 -156 q 118 -280 147 -253 q 35 -306 88 -306 m 292 650 l 149 756 l 6 651 l -28 697 l 149 826 l 326 696 l 292 650 z "},"k":{"ha":502,"x_min":67,"x_max":480,"o":"m 400 570 l 467 570 l 151 299 l 480 0 l 413 0 l 111 272 l 111 0 l 67 0 l 67 956 l 111 956 l 111 321 l 400 570 z "},"ķ":{"ha":502,"x_min":67,"x_max":480,"o":"m 400 570 l 467 570 l 151 299 l 480 0 l 413 0 l 111 272 l 111 0 l 67 0 l 67 956 l 111 956 l 111 321 l 400 570 m 219 -262 l 190 -237 q 237 -207 213 -228 q 267 -160 262 -186 q 241 -165 255 -165 q 203 -149 218 -165 q 188 -113 188 -132 q 204 -70 188 -86 q 247 -54 221 -54 q 292 -73 273 -54 q 310 -119 310 -92 q 298 -180 310 -152 q 264 -228 285 -208 q 219 -262 243 -249 z "},"ĸ":{"ha":510,"x_min":104,"x_max":487,"o":"m 198 294 l 487 0 l 428 0 l 149 282 l 149 0 l 104 0 l 104 570 l 149 570 l 149 299 l 407 570 l 465 570 l 198 294 z "},"l":{"ha":259,"x_min":93,"x_max":139,"o":"m 139 0 l 93 0 l 93 956 l 139 956 l 139 0 z "},"ĺ":{"ha":259,"x_min":47,"x_max":288,"o":"m 139 0 l 93 0 l 93 956 l 139 956 l 139 0 m 73 1081 l 47 1115 l 245 1272 l 288 1220 l 73 1081 z "},"ľ":{"ha":259,"x_min":93,"x_max":419,"o":"m 344 764 l 322 785 q 359 809 340 792 q 383 848 379 826 q 363 843 374 843 q 332 857 344 843 q 319 885 319 870 q 333 921 319 908 q 367 934 346 934 q 404 919 388 934 q 419 881 419 903 q 409 832 419 854 q 381 792 398 809 q 344 764 364 775 m 139 0 l 93 0 l 93 956 l 139 956 l 139 0 z "},"ļ":{"ha":259,"x_min":69,"x_max":192,"o":"m 139 0 l 93 0 l 93 956 l 139 956 l 139 0 m 101 -262 l 72 -237 q 119 -207 94 -228 q 149 -160 144 -186 q 123 -165 137 -165 q 85 -149 100 -165 q 69 -113 69 -132 q 86 -70 69 -86 q 128 -54 103 -54 q 174 -73 155 -54 q 192 -119 192 -92 q 180 -180 192 -152 q 146 -228 167 -208 q 101 -262 125 -249 z "},"ŀ":{"ha":328,"x_min":93,"x_max":328,"o":"m 139 0 l 93 0 l 93 956 l 139 956 l 139 0 m 263 415 q 216 434 235 415 q 197 480 197 453 q 216 527 197 508 q 263 547 235 547 q 309 527 290 547 q 328 480 328 508 q 309 434 328 453 q 263 415 290 415 z "},"ǉ":{"ha":556,"x_min":93,"x_max":458,"o":"m 139 0 l 93 0 l 93 956 l 139 956 l 139 0 m 294 -306 q 238 -297 261 -306 q 205 -280 214 -288 l 233 -242 q 252 -255 240 -249 q 294 -261 265 -261 q 354 -236 335 -261 q 380 -165 374 -210 q 385 -61 385 -120 l 385 570 l 430 570 l 430 -87 q 418 -205 430 -156 q 377 -280 406 -253 q 294 -306 347 -306 m 413 831 q 380 844 393 831 q 367 876 367 858 q 373 899 367 889 q 390 916 379 910 q 413 922 400 922 q 436 916 426 922 q 452 899 446 910 q 458 876 458 889 q 445 844 458 858 q 413 831 432 831 z "},"ł":{"ha":318,"x_min":51,"x_max":239,"o":"m 113 0 l 113 422 l 51 374 l 51 448 l 113 497 l 113 956 l 159 956 l 159 533 l 239 596 l 239 521 l 159 459 l 159 0 l 113 0 z "},"m":{"ha":989,"x_min":97,"x_max":871,"o":"m 685 587 q 789 559 747 587 q 850 474 830 531 q 871 329 871 417 l 871 0 l 826 0 l 826 311 q 794 486 826 432 q 681 541 762 541 q 601 518 642 541 q 533 445 560 496 q 506 311 506 395 l 506 0 l 461 0 l 461 311 q 419 486 461 432 q 313 541 377 541 q 233 519 272 541 q 167 448 193 498 q 141 311 141 397 l 141 0 l 97 0 l 97 570 l 141 570 l 141 478 q 171 525 148 499 q 233 568 194 550 q 322 587 272 587 q 410 561 375 587 q 464 500 445 535 q 485 439 483 465 q 523 508 496 474 q 591 564 549 542 q 685 587 632 587 z "},"n":{"ha":663,"x_min":93,"x_max":559,"o":"m 342 587 q 444 564 394 587 q 527 491 494 541 q 559 363 559 442 l 559 0 l 513 0 l 513 348 q 465 498 513 453 q 341 542 416 542 q 244 513 291 542 q 168 434 198 484 q 138 322 138 384 l 138 0 l 93 0 l 93 570 l 138 570 l 138 453 q 170 510 142 478 q 244 564 199 541 q 342 587 289 587 z "},"ń":{"ha":663,"x_min":93,"x_max":559,"o":"m 342 587 q 444 564 394 587 q 527 491 494 541 q 559 363 559 442 l 559 0 l 513 0 l 513 348 q 465 498 513 453 q 341 542 416 542 q 244 513 291 542 q 168 434 198 484 q 138 322 138 384 l 138 0 l 93 0 l 93 570 l 138 570 l 138 453 q 170 510 142 478 q 244 564 199 541 q 342 587 289 587 m 224 661 l 198 695 l 397 852 l 439 800 l 224 661 z "},"ň":{"ha":663,"x_min":93,"x_max":559,"o":"m 342 587 q 444 564 394 587 q 527 491 494 541 q 559 363 559 442 l 559 0 l 513 0 l 513 348 q 465 498 513 453 q 341 542 416 542 q 244 513 291 542 q 168 434 198 484 q 138 322 138 384 l 138 0 l 93 0 l 93 570 l 138 570 l 138 453 q 170 510 142 478 q 244 564 199 541 q 342 587 289 587 m 315 680 l 139 809 l 173 854 l 315 751 l 459 856 l 492 810 l 315 680 z "},"ņ":{"ha":663,"x_min":93,"x_max":559,"o":"m 342 587 q 444 564 394 587 q 527 491 494 541 q 559 363 559 442 l 559 0 l 513 0 l 513 348 q 465 498 513 453 q 341 542 416 542 q 244 513 291 542 q 168 434 198 484 q 138 322 138 384 l 138 0 l 93 0 l 93 570 l 138 570 l 138 453 q 170 510 142 478 q 244 564 199 541 q 342 587 289 587 m 292 -262 l 264 -237 q 311 -207 286 -228 q 340 -160 335 -186 q 315 -165 328 -165 q 276 -149 292 -165 q 261 -113 261 -132 q 278 -70 261 -86 q 320 -54 294 -54 q 365 -73 347 -54 q 384 -119 384 -92 q 371 -180 384 -152 q 338 -228 358 -208 q 292 -262 317 -249 z "},"ǌ":{"ha":959,"x_min":93,"x_max":861,"o":"m 342 587 q 444 564 394 587 q 527 491 494 541 q 559 363 559 442 l 559 0 l 513 0 l 513 348 q 465 498 513 453 q 341 542 416 542 q 244 513 291 542 q 168 434 198 484 q 138 322 138 384 l 138 0 l 93 0 l 93 570 l 138 570 l 138 453 q 170 510 142 478 q 244 564 199 541 q 342 587 289 587 m 698 -306 q 641 -297 665 -306 q 608 -280 617 -288 l 636 -242 q 656 -255 644 -249 q 697 -261 668 -261 q 758 -236 738 -261 q 783 -165 777 -210 q 789 -61 789 -120 l 789 570 l 833 570 l 833 -87 q 822 -205 833 -156 q 780 -280 810 -253 q 698 -306 751 -306 m 816 831 q 783 844 797 831 q 770 876 770 858 q 776 899 770 889 q 793 916 783 910 q 816 922 803 922 q 839 916 829 922 q 855 899 849 910 q 861 876 861 889 q 848 844 861 858 q 816 831 835 831 z "},"ñ":{"ha":663,"x_min":93,"x_max":559,"o":"m 342 587 q 444 564 394 587 q 527 491 494 541 q 559 363 559 442 l 559 0 l 513 0 l 513 348 q 465 498 513 453 q 341 542 416 542 q 244 513 291 542 q 168 434 198 484 q 138 322 138 384 l 138 0 l 93 0 l 93 570 l 138 570 l 138 453 q 170 510 142 478 q 244 564 199 541 q 342 587 289 587 m 110 712 q 132 760 117 735 q 172 802 148 785 q 226 819 195 819 q 293 806 267 819 q 341 779 319 792 q 396 765 364 765 q 440 784 424 765 q 460 819 456 802 l 526 819 q 502 772 519 797 q 462 729 486 747 q 407 712 438 712 q 339 725 365 712 q 291 752 312 739 q 244 765 269 765 q 200 747 218 765 q 176 712 183 729 l 110 712 z "},"ŋ":{"ha":663,"x_min":93,"x_max":559,"o":"m 559 0 l 513 0 l 513 -50 q 510 -144 513 -98 q 489 -220 506 -190 q 431 -250 472 -250 q 387 -242 406 -250 q 361 -228 369 -235 l 335 -274 q 360 -285 337 -275 q 424 -294 384 -294 q 491 -278 465 -294 q 532 -234 517 -262 q 553 -168 547 -206 q 559 -87 559 -131 l 559 0 m 342 587 q 444 564 394 587 q 527 491 494 541 q 559 363 559 442 l 559 0 l 513 0 l 513 348 q 465 498 513 453 q 341 542 416 542 q 244 513 291 542 q 168 434 198 484 q 138 322 138 384 l 138 0 l 93 0 l 93 570 l 138 570 l 138 453 q 170 510 142 478 q 244 564 199 541 q 342 587 289 587 z "},"o":{"ha":679,"x_min":40,"x_max":611,"o":"m 326 -17 q 178 24 243 -17 q 77 132 114 64 q 40 283 40 200 q 77 436 40 367 q 178 546 114 505 q 326 587 243 587 q 474 546 410 587 q 575 436 538 505 q 611 283 611 367 q 575 132 611 200 q 474 24 538 64 q 326 -17 410 -17 m 326 28 q 453 61 399 28 q 537 153 507 95 q 567 283 567 211 q 537 414 567 356 q 453 508 507 473 q 326 542 399 542 q 200 508 254 542 q 115 414 145 473 q 85 283 85 356 q 115 153 85 211 q 200 61 145 95 q 326 28 254 28 z "},"ó":{"ha":679,"x_min":40,"x_max":611,"o":"m 326 -17 q 178 24 243 -17 q 77 132 114 64 q 40 283 40 200 q 77 436 40 367 q 178 546 114 505 q 326 587 243 587 q 474 546 410 587 q 575 436 538 505 q 611 283 611 367 q 575 132 611 200 q 474 24 538 64 q 326 -17 410 -17 m 326 28 q 453 61 399 28 q 537 153 507 95 q 567 283 567 211 q 537 414 567 356 q 453 508 507 473 q 326 542 399 542 q 200 508 254 542 q 115 414 145 473 q 85 283 85 356 q 115 153 85 211 q 200 61 145 95 q 326 28 254 28 m 243 661 l 217 695 l 415 852 l 458 800 l 243 661 z "},"ŏ":{"ha":679,"x_min":40,"x_max":611,"o":"m 326 -17 q 178 24 243 -17 q 77 132 114 64 q 40 283 40 200 q 77 436 40 367 q 178 546 114 505 q 326 587 243 587 q 474 546 410 587 q 575 436 538 505 q 611 283 611 367 q 575 132 611 200 q 474 24 538 64 q 326 -17 410 -17 m 326 28 q 453 61 399 28 q 537 153 507 95 q 567 283 567 211 q 537 414 567 356 q 453 508 507 473 q 326 542 399 542 q 200 508 254 542 q 115 414 145 473 q 85 283 85 356 q 115 153 85 211 q 200 61 145 95 q 326 28 254 28 m 326 684 q 241 705 276 684 q 187 754 206 725 q 165 808 167 783 l 222 823 q 239 783 226 804 q 273 748 251 763 q 326 734 295 734 q 378 748 356 734 q 412 783 399 763 q 428 823 424 804 l 487 808 q 465 755 484 784 q 411 705 446 726 q 326 684 376 684 z "},"ǒ":{"ha":679,"x_min":40,"x_max":611,"o":"m 326 -17 q 178 24 243 -17 q 77 132 114 64 q 40 283 40 200 q 77 436 40 367 q 178 546 114 505 q 326 587 243 587 q 474 546 410 587 q 575 436 538 505 q 611 283 611 367 q 575 132 611 200 q 474 24 538 64 q 326 -17 410 -17 m 326 28 q 453 61 399 28 q 537 153 507 95 q 567 283 567 211 q 537 414 567 356 q 453 508 507 473 q 326 542 399 542 q 200 508 254 542 q 115 414 145 473 q 85 283 85 356 q 115 153 85 211 q 200 61 145 95 q 326 28 254 28 m 337 680 l 160 809 l 194 854 l 337 751 l 481 856 l 514 810 l 337 680 z "},"ô":{"ha":679,"x_min":40,"x_max":611,"o":"m 326 -17 q 178 24 243 -17 q 77 132 114 64 q 40 283 40 200 q 77 436 40 367 q 178 546 114 505 q 326 587 243 587 q 474 546 410 587 q 575 436 538 505 q 611 283 611 367 q 575 132 611 200 q 474 24 538 64 q 326 -17 410 -17 m 326 28 q 453 61 399 28 q 537 153 507 95 q 567 283 567 211 q 537 414 567 356 q 453 508 507 473 q 326 542 399 542 q 200 508 254 542 q 115 414 145 473 q 85 283 85 356 q 115 153 85 211 q 200 61 145 95 q 326 28 254 28 m 469 650 l 326 756 l 183 651 l 149 697 l 326 826 l 503 696 l 469 650 z "},"ố":{"ha":679,"x_min":40,"x_max":668,"o":"m 326 -17 q 178 24 243 -17 q 77 132 114 64 q 40 283 40 200 q 77 436 40 367 q 178 546 114 505 q 326 587 243 587 q 474 546 410 587 q 575 436 538 505 q 611 283 611 367 q 575 132 611 200 q 474 24 538 64 q 326 -17 410 -17 m 326 28 q 453 61 399 28 q 537 153 507 95 q 567 283 567 211 q 537 414 567 356 q 453 508 507 473 q 326 542 399 542 q 200 508 254 542 q 115 414 145 473 q 85 283 85 356 q 115 153 85 211 q 200 61 145 95 q 326 28 254 28 m 469 644 l 326 750 l 183 646 l 149 691 l 326 820 l 503 690 l 469 644 m 453 810 l 427 844 l 626 1001 l 668 949 l 453 810 z "},"ộ":{"ha":679,"x_min":40,"x_max":611,"o":"m 326 -17 q 178 24 243 -17 q 77 132 114 64 q 40 283 40 200 q 77 436 40 367 q 178 546 114 505 q 326 587 243 587 q 474 546 410 587 q 575 436 538 505 q 611 283 611 367 q 575 132 611 200 q 474 24 538 64 q 326 -17 410 -17 m 326 28 q 453 61 399 28 q 537 153 507 95 q 567 283 567 211 q 537 414 567 356 q 453 508 507 473 q 326 542 399 542 q 200 508 254 542 q 115 414 145 473 q 85 283 85 356 q 115 153 85 211 q 200 61 145 95 q 326 28 254 28 m 326 -281 q 290 -266 305 -281 q 275 -231 275 -250 q 290 -195 275 -210 q 326 -179 305 -179 q 361 -194 346 -179 q 377 -231 377 -210 q 361 -266 377 -251 q 326 -281 346 -281 m 469 650 l 326 756 l 183 651 l 149 697 l 326 826 l 503 696 l 469 650 z "},"ồ":{"ha":679,"x_min":40,"x_max":611,"o":"m 326 -17 q 178 24 243 -17 q 77 132 114 64 q 40 283 40 200 q 77 436 40 367 q 178 546 114 505 q 326 587 243 587 q 474 546 410 587 q 575 436 538 505 q 611 283 611 367 q 575 132 611 200 q 474 24 538 64 q 326 -17 410 -17 m 326 28 q 453 61 399 28 q 537 153 507 95 q 567 283 567 211 q 537 414 567 356 q 453 508 507 473 q 326 542 399 542 q 200 508 254 542 q 115 414 145 473 q 85 283 85 356 q 115 153 85 211 q 200 61 145 95 q 326 28 254 28 m 473 644 l 329 750 l 187 646 l 153 691 l 329 820 l 506 690 l 473 644 m 566 787 l 352 926 l 393 978 l 593 821 l 566 787 z "},"ổ":{"ha":679,"x_min":40,"x_max":611,"o":"m 326 -17 q 178 24 243 -17 q 77 132 114 64 q 40 283 40 200 q 77 436 40 367 q 178 546 114 505 q 326 587 243 587 q 474 546 410 587 q 575 436 538 505 q 611 283 611 367 q 575 132 611 200 q 474 24 538 64 q 326 -17 410 -17 m 326 28 q 453 61 399 28 q 537 153 507 95 q 567 283 567 211 q 537 414 567 356 q 453 508 507 473 q 326 542 399 542 q 200 508 254 542 q 115 414 145 473 q 85 283 85 356 q 115 153 85 211 q 200 61 145 95 q 326 28 254 28 m 451 785 l 425 822 q 475 842 444 826 q 529 885 505 858 q 553 953 553 913 q 536 1012 553 994 q 495 1034 519 1030 q 449 1039 471 1039 q 382 1027 419 1039 q 324 1005 344 1015 l 324 1049 q 372 1070 336 1058 q 463 1083 407 1083 q 529 1072 498 1083 q 580 1034 560 1061 q 599 959 599 1008 q 585 892 599 921 q 548 843 571 864 q 500 809 525 823 q 451 785 474 795 m 470 644 l 326 750 l 184 646 l 150 691 l 326 820 l 503 690 l 470 644 z "},"ỗ":{"ha":679,"x_min":40,"x_max":611,"o":"m 326 -17 q 178 24 243 -17 q 77 132 114 64 q 40 283 40 200 q 77 436 40 367 q 178 546 114 505 q 326 587 243 587 q 474 546 410 587 q 575 436 538 505 q 611 283 611 367 q 575 132 611 200 q 474 24 538 64 q 326 -17 410 -17 m 326 28 q 453 61 399 28 q 537 153 507 95 q 567 283 567 211 q 537 414 567 356 q 453 508 507 473 q 326 542 399 542 q 200 508 254 542 q 115 414 145 473 q 85 283 85 356 q 115 153 85 211 q 200 61 145 95 q 326 28 254 28 m 119 854 q 141 902 126 878 q 181 944 157 927 q 235 962 204 962 q 302 948 276 962 q 350 921 328 935 q 405 908 373 908 q 449 926 433 908 q 469 962 465 944 l 535 962 q 511 914 528 939 q 471 872 495 889 q 416 854 447 854 q 348 868 374 854 q 300 894 321 881 q 253 908 278 908 q 209 890 227 908 q 185 854 192 872 l 119 854 m 467 644 l 323 750 l 181 646 l 147 691 l 323 820 l 500 690 l 467 644 z "},"ȍ":{"ha":679,"x_min":8,"x_max":611,"o":"m 326 -17 q 178 24 243 -17 q 77 132 114 64 q 40 283 40 200 q 77 436 40 367 q 178 546 114 505 q 326 587 243 587 q 474 546 410 587 q 575 436 538 505 q 611 283 611 367 q 575 132 611 200 q 474 24 538 64 q 326 -17 410 -17 m 326 28 q 453 61 399 28 q 537 153 507 95 q 567 283 567 211 q 537 414 567 356 q 453 508 507 473 q 326 542 399 542 q 200 508 254 542 q 115 414 145 473 q 85 283 85 356 q 115 153 85 211 q 200 61 145 95 q 326 28 254 28 m 451 696 l 238 835 l 278 887 l 478 730 l 451 696 m 222 696 l 8 835 l 49 887 l 249 730 l 222 696 z "},"ö":{"ha":679,"x_min":40,"x_max":611,"o":"m 326 -17 q 178 24 243 -17 q 77 132 114 64 q 40 283 40 200 q 77 436 40 367 q 178 546 114 505 q 326 587 243 587 q 474 546 410 587 q 575 436 538 505 q 611 283 611 367 q 575 132 611 200 q 474 24 538 64 q 326 -17 410 -17 m 326 28 q 453 61 399 28 q 537 153 507 95 q 567 283 567 211 q 537 414 567 356 q 453 508 507 473 q 326 542 399 542 q 200 508 254 542 q 115 414 145 473 q 85 283 85 356 q 115 153 85 211 q 200 61 145 95 q 326 28 254 28 m 467 706 q 432 721 447 706 q 417 756 417 737 q 432 792 417 776 q 467 808 447 808 q 503 792 488 808 q 519 756 519 777 q 503 720 519 735 q 467 706 488 706 m 204 706 q 168 721 183 706 q 153 756 153 737 q 168 792 153 776 q 204 808 183 808 q 240 792 224 808 q 256 756 256 777 q 240 720 256 735 q 204 706 224 706 z "},"ȫ":{"ha":679,"x_min":40,"x_max":611,"o":"m 326 -17 q 178 24 243 -17 q 77 132 114 64 q 40 283 40 200 q 77 436 40 367 q 178 546 114 505 q 326 587 243 587 q 474 546 410 587 q 575 436 538 505 q 611 283 611 367 q 575 132 611 200 q 474 24 538 64 q 326 -17 410 -17 m 326 28 q 453 61 399 28 q 537 153 507 95 q 567 283 567 211 q 537 414 567 356 q 453 508 507 473 q 326 542 399 542 q 200 508 254 542 q 115 414 145 473 q 85 283 85 356 q 115 153 85 211 q 200 61 145 95 q 326 28 254 28 m 467 706 q 432 721 447 706 q 417 756 417 737 q 432 792 417 776 q 467 808 447 808 q 503 792 488 808 q 519 756 519 777 q 503 720 519 735 q 467 706 488 706 m 204 706 q 168 721 183 706 q 153 756 153 737 q 168 792 153 776 q 204 808 183 808 q 240 792 224 808 q 256 756 256 777 q 240 720 256 735 q 204 706 224 706 m 153 882 l 153 926 l 523 926 l 523 882 l 153 882 z "},"ȱ":{"ha":679,"x_min":40,"x_max":611,"o":"m 326 -17 q 178 24 243 -17 q 77 132 114 64 q 40 283 40 200 q 77 436 40 367 q 178 546 114 505 q 326 587 243 587 q 474 546 410 587 q 575 436 538 505 q 611 283 611 367 q 575 132 611 200 q 474 24 538 64 q 326 -17 410 -17 m 326 28 q 453 61 399 28 q 537 153 507 95 q 567 283 567 211 q 537 414 567 356 q 453 508 507 473 q 326 542 399 542 q 200 508 254 542 q 115 414 145 473 q 85 283 85 356 q 115 153 85 211 q 200 61 145 95 q 326 28 254 28 m 337 726 q 301 741 316 726 q 286 776 286 757 q 301 812 286 797 q 337 828 316 828 q 373 813 357 828 q 388 776 388 797 q 373 741 388 756 q 337 726 357 726 m 164 909 l 164 953 l 534 953 l 534 909 l 164 909 z "},"ọ":{"ha":679,"x_min":40,"x_max":611,"o":"m 326 -17 q 178 24 243 -17 q 77 132 114 64 q 40 283 40 200 q 77 436 40 367 q 178 546 114 505 q 326 587 243 587 q 474 546 410 587 q 575 436 538 505 q 611 283 611 367 q 575 132 611 200 q 474 24 538 64 q 326 -17 410 -17 m 326 28 q 453 61 399 28 q 537 153 507 95 q 567 283 567 211 q 537 414 567 356 q 453 508 507 473 q 326 542 399 542 q 200 508 254 542 q 115 414 145 473 q 85 283 85 356 q 115 153 85 211 q 200 61 145 95 q 326 28 254 28 m 326 -281 q 290 -266 305 -281 q 275 -231 275 -250 q 290 -195 275 -210 q 326 -179 305 -179 q 361 -194 346 -179 q 377 -231 377 -210 q 361 -266 377 -251 q 326 -281 346 -281 z "},"ò":{"ha":679,"x_min":40,"x_max":611,"o":"m 326 -17 q 178 24 243 -17 q 77 132 114 64 q 40 283 40 200 q 77 436 40 367 q 178 546 114 505 q 326 587 243 587 q 474 546 410 587 q 575 436 538 505 q 611 283 611 367 q 575 132 611 200 q 474 24 538 64 q 326 -17 410 -17 m 326 28 q 453 61 399 28 q 537 153 507 95 q 567 283 567 211 q 537 414 567 356 q 453 508 507 473 q 326 542 399 542 q 200 508 254 542 q 115 414 145 473 q 85 283 85 356 q 115 153 85 211 q 200 61 145 95 q 326 28 254 28 m 431 696 l 217 835 l 258 887 l 458 730 l 431 696 z "},"ỏ":{"ha":679,"x_min":40,"x_max":611,"o":"m 326 -17 q 178 24 243 -17 q 77 132 114 64 q 40 283 40 200 q 77 436 40 367 q 178 546 114 505 q 326 587 243 587 q 474 546 410 587 q 575 436 538 505 q 611 283 611 367 q 575 132 611 200 q 474 24 538 64 q 326 -17 410 -17 m 326 28 q 453 61 399 28 q 537 153 507 95 q 567 283 567 211 q 537 414 567 356 q 453 508 507 473 q 326 542 399 542 q 200 508 254 542 q 115 414 145 473 q 85 283 85 356 q 115 153 85 211 q 200 61 145 95 q 326 28 254 28 m 315 610 l 289 646 q 339 666 308 651 q 393 710 369 682 q 417 778 417 738 q 400 836 417 819 q 359 859 383 854 q 313 863 335 863 q 246 851 283 863 q 188 829 208 840 l 188 874 q 235 894 200 882 q 326 907 271 907 q 393 896 362 907 q 444 859 424 885 q 463 783 463 832 q 449 717 463 745 q 412 668 435 688 q 364 633 389 647 q 315 610 338 619 z "},"ơ":{"ha":679,"x_min":40,"x_max":674,"o":"m 326 -17 q 178 24 243 -17 q 77 132 114 64 q 40 283 40 200 q 77 436 40 367 q 178 546 114 505 q 326 587 243 587 q 474 546 410 587 q 575 436 538 505 q 611 283 611 367 q 575 132 611 200 q 474 24 538 64 q 326 -17 410 -17 m 326 28 q 453 61 399 28 q 537 153 507 95 q 567 283 567 211 q 537 414 567 356 q 453 508 507 473 q 326 542 399 542 q 200 508 254 542 q 115 414 145 473 q 85 283 85 356 q 115 153 85 211 q 200 61 145 95 q 326 28 254 28 m 545 481 q 506 488 525 481 q 471 503 487 494 l 471 542 q 500 526 481 533 q 540 519 519 519 q 607 549 585 519 q 629 615 629 578 q 625 661 629 645 q 613 696 621 676 l 656 696 q 668 667 662 686 q 674 611 674 647 q 657 550 674 580 q 611 501 640 520 q 545 481 582 481 z "},"ớ":{"ha":679,"x_min":40,"x_max":674,"o":"m 326 -17 q 178 24 243 -17 q 77 132 114 64 q 40 283 40 200 q 77 436 40 367 q 178 546 114 505 q 326 587 243 587 q 474 546 410 587 q 575 436 538 505 q 611 283 611 367 q 575 132 611 200 q 474 24 538 64 q 326 -17 410 -17 m 326 28 q 453 61 399 28 q 537 153 507 95 q 567 283 567 211 q 537 414 567 356 q 453 508 507 473 q 326 542 399 542 q 200 508 254 542 q 115 414 145 473 q 85 283 85 356 q 115 153 85 211 q 200 61 145 95 q 326 28 254 28 m 545 481 q 506 488 525 481 q 471 503 487 494 l 471 542 q 500 526 481 533 q 540 519 519 519 q 607 549 585 519 q 629 615 629 578 q 625 661 629 645 q 613 696 621 676 l 656 696 q 668 667 662 686 q 674 611 674 647 q 657 550 674 580 q 611 501 640 520 q 545 481 582 481 m 243 661 l 217 695 l 415 852 l 458 800 l 243 661 z "},"ợ":{"ha":679,"x_min":40,"x_max":674,"o":"m 326 -17 q 178 24 243 -17 q 77 132 114 64 q 40 283 40 200 q 77 436 40 367 q 178 546 114 505 q 326 587 243 587 q 474 546 410 587 q 575 436 538 505 q 611 283 611 367 q 575 132 611 200 q 474 24 538 64 q 326 -17 410 -17 m 326 28 q 453 61 399 28 q 537 153 507 95 q 567 283 567 211 q 537 414 567 356 q 453 508 507 473 q 326 542 399 542 q 200 508 254 542 q 115 414 145 473 q 85 283 85 356 q 115 153 85 211 q 200 61 145 95 q 326 28 254 28 m 545 481 q 506 488 525 481 q 471 503 487 494 l 471 542 q 500 526 481 533 q 540 519 519 519 q 607 549 585 519 q 629 615 629 578 q 625 661 629 645 q 613 696 621 676 l 656 696 q 668 667 662 686 q 674 611 674 647 q 657 550 674 580 q 611 501 640 520 q 545 481 582 481 m 326 -281 q 290 -266 305 -281 q 275 -231 275 -250 q 290 -195 275 -210 q 326 -179 305 -179 q 361 -194 346 -179 q 377 -231 377 -210 q 361 -266 377 -251 q 326 -281 346 -281 z "},"ờ":{"ha":679,"x_min":40,"x_max":674,"o":"m 326 -17 q 178 24 243 -17 q 77 132 114 64 q 40 283 40 200 q 77 436 40 367 q 178 546 114 505 q 326 587 243 587 q 474 546 410 587 q 575 436 538 505 q 611 283 611 367 q 575 132 611 200 q 474 24 538 64 q 326 -17 410 -17 m 326 28 q 453 61 399 28 q 537 153 507 95 q 567 283 567 211 q 537 414 567 356 q 453 508 507 473 q 326 542 399 542 q 200 508 254 542 q 115 414 145 473 q 85 283 85 356 q 115 153 85 211 q 200 61 145 95 q 326 28 254 28 m 545 481 q 506 488 525 481 q 471 503 487 494 l 471 542 q 500 526 481 533 q 540 519 519 519 q 607 549 585 519 q 629 615 629 578 q 625 661 629 645 q 613 696 621 676 l 656 696 q 668 667 662 686 q 674 611 674 647 q 657 550 674 580 q 611 501 640 520 q 545 481 582 481 m 431 696 l 217 835 l 258 887 l 458 730 l 431 696 z "},"ở":{"ha":679,"x_min":40,"x_max":674,"o":"m 326 -17 q 178 24 243 -17 q 77 132 114 64 q 40 283 40 200 q 77 436 40 367 q 178 546 114 505 q 326 587 243 587 q 474 546 410 587 q 575 436 538 505 q 611 283 611 367 q 575 132 611 200 q 474 24 538 64 q 326 -17 410 -17 m 326 28 q 453 61 399 28 q 537 153 507 95 q 567 283 567 211 q 537 414 567 356 q 453 508 507 473 q 326 542 399 542 q 200 508 254 542 q 115 414 145 473 q 85 283 85 356 q 115 153 85 211 q 200 61 145 95 q 326 28 254 28 m 545 481 q 506 488 525 481 q 471 503 487 494 l 471 542 q 500 526 481 533 q 540 519 519 519 q 607 549 585 519 q 629 615 629 578 q 625 661 629 645 q 613 696 621 676 l 656 696 q 668 667 662 686 q 674 611 674 647 q 657 550 674 580 q 611 501 640 520 q 545 481 582 481 m 315 610 l 289 646 q 339 666 308 651 q 393 710 369 682 q 417 778 417 738 q 400 836 417 819 q 359 859 383 854 q 313 863 335 863 q 246 851 283 863 q 188 829 208 840 l 188 874 q 235 894 200 882 q 326 907 271 907 q 393 896 362 907 q 444 859 424 885 q 463 783 463 832 q 449 717 463 745 q 412 668 435 688 q 364 633 389 647 q 315 610 338 619 z "},"ỡ":{"ha":679,"x_min":40,"x_max":674,"o":"m 326 -17 q 178 24 243 -17 q 77 132 114 64 q 40 283 40 200 q 77 436 40 367 q 178 546 114 505 q 326 587 243 587 q 474 546 410 587 q 575 436 538 505 q 611 283 611 367 q 575 132 611 200 q 474 24 538 64 q 326 -17 410 -17 m 326 28 q 453 61 399 28 q 537 153 507 95 q 567 283 567 211 q 537 414 567 356 q 453 508 507 473 q 326 542 399 542 q 200 508 254 542 q 115 414 145 473 q 85 283 85 356 q 115 153 85 211 q 200 61 145 95 q 326 28 254 28 m 545 481 q 506 488 525 481 q 471 503 487 494 l 471 542 q 500 526 481 533 q 540 519 519 519 q 607 549 585 519 q 629 615 629 578 q 625 661 629 645 q 613 696 621 676 l 656 696 q 668 667 662 686 q 674 611 674 647 q 657 550 674 580 q 611 501 640 520 q 545 481 582 481 m 128 712 q 151 760 135 735 q 190 802 167 785 q 244 819 214 819 q 312 806 286 819 q 360 779 338 792 q 415 765 383 765 q 459 784 443 765 q 478 819 474 802 l 545 819 q 521 772 538 797 q 481 729 505 747 q 426 712 456 712 q 357 725 384 712 q 309 752 331 739 q 263 765 288 765 q 219 747 237 765 q 195 712 201 729 l 128 712 z "},"ő":{"ha":679,"x_min":40,"x_max":626,"o":"m 326 -17 q 178 24 243 -17 q 77 132 114 64 q 40 283 40 200 q 77 436 40 367 q 178 546 114 505 q 326 587 243 587 q 474 546 410 587 q 575 436 538 505 q 611 283 611 367 q 575 132 611 200 q 474 24 538 64 q 326 -17 410 -17 m 326 28 q 453 61 399 28 q 537 153 507 95 q 567 283 567 211 q 537 414 567 356 q 453 508 507 473 q 326 542 399 542 q 200 508 254 542 q 115 414 145 473 q 85 283 85 356 q 115 153 85 211 q 200 61 145 95 q 326 28 254 28 m 428 690 l 400 717 l 583 909 l 626 854 l 428 690 m 188 690 l 160 717 l 342 909 l 385 854 l 188 690 z "},"ȏ":{"ha":679,"x_min":40,"x_max":611,"o":"m 326 -17 q 178 24 243 -17 q 77 132 114 64 q 40 283 40 200 q 77 436 40 367 q 178 546 114 505 q 326 587 243 587 q 474 546 410 587 q 575 436 538 505 q 611 283 611 367 q 575 132 611 200 q 474 24 538 64 q 326 -17 410 -17 m 326 28 q 453 61 399 28 q 537 153 507 95 q 567 283 567 211 q 537 414 567 356 q 453 508 507 473 q 326 542 399 542 q 200 508 254 542 q 115 414 145 473 q 85 283 85 356 q 115 153 85 211 q 200 61 145 95 q 326 28 254 28 m 223 687 l 164 701 q 186 755 167 726 q 240 805 205 784 q 325 826 275 826 q 410 805 375 826 q 464 756 444 785 q 486 701 483 727 l 428 687 q 412 727 425 706 q 377 761 399 747 q 325 776 356 776 q 273 761 294 776 q 239 727 251 747 q 223 687 227 706 z "},"ō":{"ha":679,"x_min":40,"x_max":611,"o":"m 326 -17 q 178 24 243 -17 q 77 132 114 64 q 40 283 40 200 q 77 436 40 367 q 178 546 114 505 q 326 587 243 587 q 474 546 410 587 q 575 436 538 505 q 611 283 611 367 q 575 132 611 200 q 474 24 538 64 q 326 -17 410 -17 m 326 28 q 453 61 399 28 q 537 153 507 95 q 567 283 567 211 q 537 414 567 356 q 453 508 507 473 q 326 542 399 542 q 200 508 254 542 q 115 414 145 473 q 85 283 85 356 q 115 153 85 211 q 200 61 145 95 q 326 28 254 28 m 140 749 l 140 793 l 510 793 l 510 749 l 140 749 z "},"ǫ":{"ha":679,"x_min":40,"x_max":611,"o":"m 326 -17 q 178 24 243 -17 q 77 132 114 64 q 40 283 40 200 q 77 436 40 367 q 178 546 114 505 q 326 587 243 587 q 474 546 410 587 q 575 436 538 505 q 611 283 611 367 q 575 132 611 200 q 474 24 538 64 q 326 -17 410 -17 m 326 28 q 453 61 399 28 q 537 153 507 95 q 567 283 567 211 q 537 414 567 356 q 453 508 507 473 q 326 542 399 542 q 200 508 254 542 q 115 414 145 473 q 85 283 85 356 q 115 153 85 211 q 200 61 145 95 q 326 28 254 28 m 399 -292 q 339 -283 370 -292 q 286 -247 308 -273 q 265 -174 265 -222 q 285 -99 265 -137 q 336 -27 306 -60 q 394 28 367 6 l 424 0 q 377 -49 402 -20 q 334 -110 351 -78 q 316 -170 316 -142 q 345 -234 316 -217 q 413 -250 374 -250 q 473 -233 447 -250 q 513 -197 500 -216 l 551 -226 q 491 -272 535 -252 q 399 -292 447 -292 z "},"ø":{"ha":679,"x_min":29,"x_max":626,"o":"m 596 589 l 626 560 l 60 -15 l 29 15 l 596 589 m 326 -17 q 178 24 243 -17 q 77 132 114 64 q 40 283 40 200 q 77 436 40 367 q 178 546 114 505 q 326 587 243 587 q 474 546 410 587 q 575 436 538 505 q 611 283 611 367 q 575 132 611 200 q 474 24 538 64 q 326 -17 410 -17 m 326 28 q 453 61 399 28 q 537 153 507 95 q 567 283 567 211 q 537 414 567 356 q 453 508 507 473 q 326 542 399 542 q 200 508 254 542 q 115 414 145 473 q 85 283 85 356 q 115 153 85 211 q 200 61 145 95 q 326 28 254 28 z "},"ǿ":{"ha":679,"x_min":29,"x_max":626,"o":"m 596 589 l 626 560 l 60 -15 l 29 15 l 596 589 m 326 -17 q 178 24 243 -17 q 77 132 114 64 q 40 283 40 200 q 77 436 40 367 q 178 546 114 505 q 326 587 243 587 q 474 546 410 587 q 575 436 538 505 q 611 283 611 367 q 575 132 611 200 q 474 24 538 64 q 326 -17 410 -17 m 326 28 q 453 61 399 28 q 537 153 507 95 q 567 283 567 211 q 537 414 567 356 q 453 508 507 473 q 326 542 399 542 q 200 508 254 542 q 115 414 145 473 q 85 283 85 356 q 115 153 85 211 q 200 61 145 95 q 326 28 254 28 m 243 661 l 217 695 l 415 852 l 458 800 l 243 661 z "},"õ":{"ha":679,"x_min":40,"x_max":611,"o":"m 326 -17 q 178 24 243 -17 q 77 132 114 64 q 40 283 40 200 q 77 436 40 367 q 178 546 114 505 q 326 587 243 587 q 474 546 410 587 q 575 436 538 505 q 611 283 611 367 q 575 132 611 200 q 474 24 538 64 q 326 -17 410 -17 m 326 28 q 453 61 399 28 q 537 153 507 95 q 567 283 567 211 q 537 414 567 356 q 453 508 507 473 q 326 542 399 542 q 200 508 254 542 q 115 414 145 473 q 85 283 85 356 q 115 153 85 211 q 200 61 145 95 q 326 28 254 28 m 115 726 q 138 774 122 749 q 177 816 153 799 q 231 833 201 833 q 299 820 273 833 q 347 793 324 806 q 401 779 369 779 q 445 798 430 779 q 465 833 461 816 l 532 833 q 508 785 524 810 q 467 743 492 760 q 413 726 443 726 q 344 739 371 726 q 296 766 317 753 q 250 779 275 779 q 206 761 224 779 q 182 726 188 743 l 115 726 z "},"ȭ":{"ha":679,"x_min":40,"x_max":611,"o":"m 326 -17 q 178 24 243 -17 q 77 132 114 64 q 40 283 40 200 q 77 436 40 367 q 178 546 114 505 q 326 587 243 587 q 474 546 410 587 q 575 436 538 505 q 611 283 611 367 q 575 132 611 200 q 474 24 538 64 q 326 -17 410 -17 m 326 28 q 453 61 399 28 q 537 153 507 95 q 567 283 567 211 q 537 414 567 356 q 453 508 507 473 q 326 542 399 542 q 200 508 254 542 q 115 414 145 473 q 85 283 85 356 q 115 153 85 211 q 200 61 145 95 q 326 28 254 28 m 128 712 q 151 760 135 735 q 190 802 167 785 q 244 819 214 819 q 312 806 286 819 q 360 779 338 792 q 415 765 383 765 q 459 784 443 765 q 478 819 474 802 l 545 819 q 521 772 538 797 q 481 729 505 747 q 426 712 456 712 q 357 725 384 712 q 309 752 331 739 q 263 765 288 765 q 219 747 237 765 q 195 712 201 729 l 128 712 m 155 909 l 155 953 l 525 953 l 525 909 l 155 909 z "},"œ":{"ha":1163,"x_min":40,"x_max":1094,"o":"m 326 -17 q 178 24 243 -17 q 77 132 114 64 q 40 283 40 200 q 77 436 40 367 q 178 546 114 505 q 326 587 243 587 q 474 546 410 587 q 575 436 538 505 q 611 283 611 367 q 575 132 611 200 q 474 24 538 64 q 326 -17 410 -17 m 326 28 q 453 61 399 28 q 537 153 507 95 q 567 283 567 211 q 537 414 567 356 q 453 508 507 473 q 326 542 399 542 q 200 508 254 542 q 115 414 145 473 q 85 283 85 356 q 115 153 85 211 q 200 61 145 95 q 326 28 254 28 m 612 289 q 637 161 612 222 q 713 64 662 101 q 843 26 765 26 q 947 48 906 26 q 1011 98 988 69 q 1043 149 1034 127 l 1084 121 q 1022 45 1056 76 q 944 -1 988 14 q 841 -17 900 -17 q 690 25 751 -17 q 596 138 628 67 q 565 292 565 208 q 597 442 565 376 q 691 548 629 509 q 839 587 752 587 q 973 551 916 587 q 1063 453 1031 515 q 1094 313 1094 392 q 1094 300 1094 306 q 1093 289 1093 294 l 612 289 m 1045 333 q 1025 427 1044 378 q 961 509 1006 476 q 839 543 917 543 q 709 510 757 543 q 641 429 662 478 q 615 333 619 381 l 1045 333 z "},"p":{"ha":709,"x_min":90,"x_max":652,"o":"m 135 -289 l 90 -289 l 90 570 l 138 570 l 138 443 q 170 501 140 467 q 252 561 200 535 q 374 587 305 587 q 514 552 451 587 q 614 449 576 517 q 652 285 652 382 q 614 120 652 188 q 514 18 576 53 q 374 -17 451 -17 q 252 10 305 -17 q 168 72 199 38 q 135 126 138 106 l 135 -289 m 607 285 q 575 423 607 365 q 491 511 542 481 q 379 542 439 542 q 258 511 313 542 q 170 422 203 479 q 138 285 138 364 q 170 148 138 206 q 258 59 203 90 q 379 28 313 28 q 491 58 439 28 q 575 147 542 89 q 607 285 607 204 z "},"þ":{"ha":687,"x_min":83,"x_max":644,"o":"m 83 0 l 128 0 l 128 -289 l 83 -289 l 83 0 m 83 0 l 83 956 l 130 956 l 130 443 q 163 501 133 467 q 246 561 193 535 q 368 587 299 587 q 507 552 444 587 q 607 449 569 517 q 644 285 644 382 q 607 120 644 188 q 507 18 569 53 q 368 -17 444 -17 q 244 10 298 -17 q 160 72 191 38 q 128 126 130 106 l 128 0 l 83 0 m 599 285 q 567 423 599 365 q 483 511 535 481 q 372 542 432 542 q 251 511 306 542 q 163 422 196 479 q 130 285 130 364 q 163 148 130 206 q 251 59 196 90 q 372 28 306 28 q 483 58 432 28 q 567 147 535 89 q 599 285 599 204 z "},"q":{"ha":709,"x_min":57,"x_max":619,"o":"m 574 -289 l 574 126 q 541 72 572 106 q 458 10 510 38 q 335 -17 405 -17 q 196 18 259 -17 q 95 120 133 53 q 57 285 57 188 q 95 449 57 382 q 196 552 133 517 q 335 587 259 587 q 457 561 404 587 q 539 501 509 535 q 572 443 569 467 l 572 570 l 619 570 l 619 -289 l 574 -289 m 330 28 q 451 59 397 28 q 539 148 506 90 q 572 285 572 206 q 539 422 572 364 q 451 511 506 479 q 330 542 397 542 q 219 511 271 542 q 134 423 167 481 q 102 285 102 365 q 134 147 102 204 q 219 58 167 89 q 330 28 271 28 z "},"r":{"ha":431,"x_min":98,"x_max":420,"o":"m 141 0 l 98 0 l 98 570 l 141 570 l 141 463 l 138 463 q 162 511 140 482 q 224 564 185 540 q 315 587 263 587 q 383 577 355 587 q 420 558 410 567 l 399 518 q 365 534 389 526 q 306 542 340 542 q 220 508 257 542 q 162 425 183 473 q 141 338 141 377 l 141 0 z "},"ŕ":{"ha":465,"x_min":98,"x_max":420,"o":"m 141 0 l 98 0 l 98 570 l 141 570 l 141 463 l 138 463 q 162 511 140 482 q 224 564 185 540 q 315 587 263 587 q 383 577 355 587 q 420 558 410 567 l 399 518 q 365 534 389 526 q 306 542 340 542 q 220 508 257 542 q 162 425 183 473 q 141 338 141 377 l 141 0 m 165 696 l 139 730 l 338 887 l 380 835 l 165 696 z "},"ř":{"ha":465,"x_min":46,"x_max":420,"o":"m 141 0 l 98 0 l 98 570 l 141 570 l 141 463 l 138 463 q 162 511 140 482 q 224 564 185 540 q 315 587 263 587 q 383 577 355 587 q 420 558 410 567 l 399 518 q 365 534 389 526 q 306 542 340 542 q 220 508 257 542 q 162 425 183 473 q 141 338 141 377 l 141 0 m 222 680 l 46 809 l 80 854 l 222 751 l 366 856 l 399 810 l 222 680 z "},"ŗ":{"ha":431,"x_min":98,"x_max":420,"o":"m 141 0 l 98 0 l 98 570 l 141 570 l 141 463 l 138 463 q 162 511 140 482 q 224 564 185 540 q 315 587 263 587 q 383 577 355 587 q 420 558 410 567 l 399 518 q 365 534 389 526 q 306 542 340 542 q 220 508 257 542 q 162 425 183 473 q 141 338 141 377 l 141 0 m 206 -262 l 177 -237 q 224 -207 199 -228 q 253 -160 249 -186 q 228 -165 242 -165 q 190 -149 205 -165 q 174 -113 174 -132 q 191 -70 174 -86 q 233 -54 208 -54 q 278 -73 260 -54 q 297 -119 297 -92 q 284 -180 297 -152 q 251 -228 272 -208 q 206 -262 230 -249 z "},"ȑ":{"ha":431,"x_min":-97,"x_max":420,"o":"m 141 0 l 98 0 l 98 570 l 141 570 l 141 463 l 138 463 q 162 511 140 482 q 224 564 185 540 q 315 587 263 587 q 383 577 355 587 q 420 558 410 567 l 399 518 q 365 534 389 526 q 306 542 340 542 q 220 508 257 542 q 162 425 183 473 q 141 338 141 377 l 141 0 m 346 696 l 132 835 l 173 887 l 373 730 l 346 696 m 117 696 l -97 835 l -56 887 l 144 730 l 117 696 z "},"ȓ":{"ha":431,"x_min":58,"x_max":420,"o":"m 141 0 l 98 0 l 98 570 l 141 570 l 141 463 l 138 463 q 162 511 140 482 q 224 564 185 540 q 315 587 263 587 q 383 577 355 587 q 420 558 410 567 l 399 518 q 365 534 389 526 q 306 542 340 542 q 220 508 257 542 q 162 425 183 473 q 141 338 141 377 l 141 0 m 117 687 l 58 701 q 80 755 61 726 q 134 805 99 784 q 219 826 169 826 q 304 805 269 826 q 358 756 339 785 q 381 701 378 727 l 323 687 q 307 727 319 706 q 272 761 294 747 q 219 776 250 776 q 167 761 189 776 q 134 727 146 747 q 117 687 122 706 z "},"s":{"ha":526,"x_min":46,"x_max":448,"o":"m 263 587 q 331 578 299 587 q 388 557 363 569 q 426 532 413 544 l 397 496 q 345 526 381 510 q 263 542 309 542 q 159 516 202 542 q 115 440 115 490 q 159 364 115 392 q 271 318 202 336 q 362 286 322 305 q 425 235 402 267 q 448 151 448 203 q 431 78 448 110 q 385 26 415 47 q 317 -6 356 5 q 233 -17 278 -17 q 154 -7 191 -17 q 89 18 117 3 q 46 46 61 33 l 78 87 q 138 48 96 67 q 237 28 179 28 q 353 62 307 28 q 400 151 400 97 q 378 217 400 192 q 320 255 356 241 q 246 279 285 269 q 176 302 208 289 q 119 334 144 315 q 82 380 95 353 q 68 441 68 406 q 94 517 68 484 q 165 568 121 549 q 263 587 210 587 z "},"ś":{"ha":526,"x_min":46,"x_max":448,"o":"m 263 587 q 331 578 299 587 q 388 557 363 569 q 426 532 413 544 l 397 496 q 345 526 381 510 q 263 542 309 542 q 159 516 202 542 q 115 440 115 490 q 159 364 115 392 q 271 318 202 336 q 362 286 322 305 q 425 235 402 267 q 448 151 448 203 q 431 78 448 110 q 385 26 415 47 q 317 -6 356 5 q 233 -17 278 -17 q 154 -7 191 -17 q 89 18 117 3 q 46 46 61 33 l 78 87 q 138 48 96 67 q 237 28 179 28 q 353 62 307 28 q 400 151 400 97 q 378 217 400 192 q 320 255 356 241 q 246 279 285 269 q 176 302 208 289 q 119 334 144 315 q 82 380 95 353 q 68 441 68 406 q 94 517 68 484 q 165 568 121 549 q 263 587 210 587 m 188 696 l 161 730 l 360 887 l 402 835 l 188 696 z "},"š":{"ha":526,"x_min":46,"x_max":448,"o":"m 263 587 q 331 578 299 587 q 388 557 363 569 q 426 532 413 544 l 397 496 q 345 526 381 510 q 263 542 309 542 q 159 516 202 542 q 115 440 115 490 q 159 364 115 392 q 271 318 202 336 q 362 286 322 305 q 425 235 402 267 q 448 151 448 203 q 431 78 448 110 q 385 26 415 47 q 317 -6 356 5 q 233 -17 278 -17 q 154 -7 191 -17 q 89 18 117 3 q 46 46 61 33 l 78 87 q 138 48 96 67 q 237 28 179 28 q 353 62 307 28 q 400 151 400 97 q 378 217 400 192 q 320 255 356 241 q 246 279 285 269 q 176 302 208 289 q 119 334 144 315 q 82 380 95 353 q 68 441 68 406 q 94 517 68 484 q 165 568 121 549 q 263 587 210 587 m 261 680 l 85 809 l 119 854 l 261 751 l 405 856 l 438 810 l 261 680 z "},"ş":{"ha":526,"x_min":46,"x_max":448,"o":"m 263 587 q 331 578 299 587 q 388 557 363 569 q 426 532 413 544 l 397 496 q 345 526 381 510 q 263 542 309 542 q 159 516 202 542 q 115 440 115 490 q 159 364 115 392 q 271 318 202 336 q 362 286 322 305 q 425 235 402 267 q 448 151 448 203 q 431 78 448 110 q 385 26 415 47 q 317 -6 356 5 q 233 -17 278 -17 q 154 -7 191 -17 q 89 18 117 3 q 46 46 61 33 l 78 87 q 138 48 96 67 q 237 28 179 28 q 353 62 307 28 q 400 151 400 97 q 378 217 400 192 q 320 255 356 241 q 246 279 285 269 q 176 302 208 289 q 119 334 144 315 q 82 380 95 353 q 68 441 68 406 q 94 517 68 484 q 165 568 121 549 q 263 587 210 587 m 261 -291 q 187 -279 222 -291 q 135 -256 152 -267 l 165 -218 q 205 -238 178 -228 q 261 -249 231 -249 q 331 -231 302 -249 q 359 -185 359 -214 q 340 -143 359 -156 q 289 -129 321 -129 q 248 -132 267 -129 q 219 -139 228 -135 l 190 -124 l 243 29 l 281 10 l 243 -101 q 310 -94 272 -91 q 378 -116 349 -97 q 407 -176 407 -135 q 384 -240 407 -215 q 328 -278 362 -266 q 261 -291 294 -291 z "},"ŝ":{"ha":526,"x_min":46,"x_max":448,"o":"m 263 587 q 331 578 299 587 q 388 557 363 569 q 426 532 413 544 l 397 496 q 345 526 381 510 q 263 542 309 542 q 159 516 202 542 q 115 440 115 490 q 159 364 115 392 q 271 318 202 336 q 362 286 322 305 q 425 235 402 267 q 448 151 448 203 q 431 78 448 110 q 385 26 415 47 q 317 -6 356 5 q 233 -17 278 -17 q 154 -7 191 -17 q 89 18 117 3 q 46 46 61 33 l 78 87 q 138 48 96 67 q 237 28 179 28 q 353 62 307 28 q 400 151 400 97 q 378 217 400 192 q 320 255 356 241 q 246 279 285 269 q 176 302 208 289 q 119 334 144 315 q 82 380 95 353 q 68 441 68 406 q 94 517 68 484 q 165 568 121 549 q 263 587 210 587 m 394 650 l 250 756 l 108 651 l 74 697 l 250 826 l 427 696 l 394 650 z "},"ș":{"ha":526,"x_min":46,"x_max":448,"o":"m 263 587 q 331 578 299 587 q 388 557 363 569 q 426 532 413 544 l 397 496 q 345 526 381 510 q 263 542 309 542 q 159 516 202 542 q 115 440 115 490 q 159 364 115 392 q 271 318 202 336 q 362 286 322 305 q 425 235 402 267 q 448 151 448 203 q 431 78 448 110 q 385 26 415 47 q 317 -6 356 5 q 233 -17 278 -17 q 154 -7 191 -17 q 89 18 117 3 q 46 46 61 33 l 78 87 q 138 48 96 67 q 237 28 179 28 q 353 62 307 28 q 400 151 400 97 q 378 217 400 192 q 320 255 356 241 q 246 279 285 269 q 176 302 208 289 q 119 334 144 315 q 82 380 95 353 q 68 441 68 406 q 94 517 68 484 q 165 568 121 549 q 263 587 210 587 m 235 -262 l 207 -237 q 254 -207 229 -228 q 283 -160 278 -186 q 258 -165 272 -165 q 219 -149 235 -165 q 204 -113 204 -132 q 221 -70 204 -86 q 263 -54 238 -54 q 308 -73 290 -54 q 327 -119 327 -92 q 314 -180 327 -152 q 281 -228 301 -208 q 235 -262 260 -249 z "},"ß":{"ha":643,"x_min":67,"x_max":565,"o":"m 251 28 q 404 59 345 28 q 491 143 463 91 q 519 253 519 194 q 448 419 519 361 q 251 478 377 478 l 251 522 q 424 586 362 522 q 485 748 485 649 q 461 856 485 817 q 398 911 437 895 q 313 928 358 928 q 200 892 244 928 q 133 801 155 857 q 111 685 111 745 l 111 0 l 67 0 l 67 691 q 99 838 67 774 q 186 937 131 901 q 313 972 242 972 q 470 914 409 972 q 532 742 532 856 q 501 624 532 676 q 428 542 471 573 q 351 504 386 510 q 447 467 397 499 q 530 381 496 435 q 565 256 565 327 q 527 107 565 168 q 420 15 490 47 q 251 -17 350 -17 l 251 28 z "},"t":{"ha":422,"x_min":37,"x_max":379,"o":"m 37 570 l 161 570 l 161 804 l 206 804 l 206 570 l 368 570 l 368 526 l 206 526 l 206 140 q 229 52 206 77 q 285 28 253 28 q 333 39 317 28 q 352 53 349 50 l 379 17 q 364 5 376 13 q 332 -10 352 -3 q 283 -17 313 -17 q 197 18 233 -17 q 161 129 161 52 l 161 526 l 37 526 l 37 570 z "},"ŧ":{"ha":422,"x_min":37,"x_max":379,"o":"m 38 381 l 369 381 l 369 337 l 38 337 l 38 381 m 37 570 l 161 570 l 161 804 l 206 804 l 206 570 l 368 570 l 368 526 l 206 526 l 206 140 q 229 52 206 77 q 285 28 253 28 q 333 39 317 28 q 352 53 349 50 l 379 17 q 364 5 376 13 q 332 -10 352 -3 q 283 -17 313 -17 q 197 18 233 -17 q 161 129 161 52 l 161 526 l 37 526 l 37 570 z "},"ť":{"ha":422,"x_min":37,"x_max":531,"o":"m 283 -17 q 197 18 233 -17 q 161 129 161 52 l 161 526 l 37 526 l 37 570 l 161 570 l 161 804 l 206 804 l 206 570 l 368 570 l 368 526 l 206 526 l 206 140 q 229 52 206 77 q 285 28 253 28 q 333 39 317 28 q 352 53 349 50 l 379 17 q 364 5 376 13 q 332 -10 352 -3 q 283 -17 313 -17 m 456 711 l 432 733 q 470 758 450 740 q 496 797 491 775 q 474 792 485 792 q 442 806 455 792 q 430 835 430 820 q 443 871 430 858 q 478 885 457 885 q 516 869 501 885 q 531 831 531 853 q 521 780 531 803 q 493 740 510 757 q 456 711 476 722 z "},"ţ":{"ha":422,"x_min":37,"x_max":427,"o":"m 37 570 l 161 570 l 161 804 l 206 804 l 206 570 l 368 570 l 368 526 l 206 526 l 206 140 q 229 52 206 77 q 285 28 253 28 q 333 39 317 28 q 352 53 349 50 l 379 17 q 364 5 376 13 q 332 -10 352 -3 q 283 -17 313 -17 q 197 18 233 -17 q 161 129 161 52 l 161 526 l 37 526 l 37 570 m 281 -297 q 207 -284 242 -297 q 155 -261 172 -272 l 185 -224 q 225 -244 198 -233 q 281 -254 251 -254 q 351 -237 322 -254 q 379 -190 379 -219 q 360 -148 379 -162 q 309 -135 341 -135 q 268 -138 288 -135 q 239 -144 249 -141 l 210 -129 l 263 24 l 301 4 l 263 -107 q 330 -99 292 -97 q 398 -122 369 -102 q 427 -181 427 -141 q 405 -246 427 -220 q 348 -284 382 -272 q 281 -297 315 -297 z "}}}
